<?xml version="1.0" encoding="iso-8859-1"?>
<!-- Generator: Adobe Illustrator 19.0.0, SVG Export Plug-In . SVG Version: 6.00 Build 0)  -->
<svg version="1.1" id="Layer_1" xmlns="http://www.w3.org/2000/svg" xmlns:xlink="http://www.w3.org/1999/xlink" x="0px" y="0px"
	 viewBox="0 0 512.001 512.001" style="enable-background:new 0 0 512.001 512.001;" xml:space="preserve">
<g>
	<g>
		<g>
			<path d="M419.301,315.703c-9.803-6.536-23.048-3.886-29.584,5.917l-36.765,55.148l-19.999-19.999
				c-8.331-8.331-21.839-8.331-30.17,0s-8.331,21.839,0,30.17l38.4,38.4c9.519,9.519,25.368,7.95,32.835-3.251l51.2-76.8
				C431.753,335.484,429.104,322.239,419.301,315.703z"/>
			<path d="M512,256.001c0-141.376-114.608-255.99-255.981-256c-0.012,0-0.023,0-0.035,0C184.8,0.005,120.411,29.074,74.012,75.976
				c-2.314,1.432-4.393,3.328-6.081,5.674c-0.495,0.688-0.929,1.399-1.331,2.122C25.224,129.246,0,189.678,0,256.001
				c0,141.382,114.618,256,256,256c20.143,0,40.204-2.531,60.175-7.389c14.633,4.789,30.257,7.389,46.492,7.389
				c82.481,0,149.333-66.853,149.333-149.333c0-16.234-2.6-31.859-7.389-46.492C509.469,296.205,512,276.144,512,256.001z
				 M469.321,258.153c-22.946-23.413-53.533-39.308-87.735-43.631c-2.61-22.229-7.32-43.803-14.011-64.466
				c19.078-7.313,37.446-16.508,54.887-27.464c29.32,36.536,46.872,82.92,46.872,133.409
				C469.334,256.718,469.329,257.436,469.321,258.153z M43.726,277.334h84.92c1.733,28.964,6.994,57.087,15.597,83.805
				c-19.284,7.233-37.848,16.383-55.476,27.312C64.061,357.299,47.872,319.089,43.726,277.334z M89.492,122.649
				c17.455,10.962,35.854,20.151,54.97,27.462c-8.698,26.86-14.063,55.237-15.819,84.556H43.726
				C47.913,192.507,64.38,153.964,89.492,122.649z M234.667,127.171c-11.079-0.871-22.025-2.426-32.797-4.626
				c9.097-17.882,20.076-34.613,32.797-49.924V127.171z M234.667,169.937v64.73h-63.253c1.706-25.041,6.39-49.223,13.854-72.082
				C201.409,166.331,217.914,168.801,234.667,169.937z M277.334,72.552c12.743,15.315,23.73,32.065,32.843,49.962
				c-10.789,2.213-21.75,3.777-32.843,4.652V72.552z M314.664,50.838c28.568,8.154,54.688,22.111,77.002,40.518
				c-12.807,7.446-26.138,13.818-39.89,19.057C341.62,89.143,329.203,69.166,314.664,50.838z M160.239,110.465
				c-13.786-5.238-27.148-11.601-39.972-19.053c22.34-18.445,48.5-32.427,77.114-40.587
				C182.832,69.18,170.395,89.175,160.239,110.465z M159.977,400.814c4.288,9.016,8.983,17.819,14.095,26.373
				c7.111,11.915,14.99,23.284,23.566,34.065c-29.091-8.256-55.644-22.538-78.243-41.4
				C132.423,412.382,145.986,406.014,159.977,400.814z M215.274,386.738c2.992,18.466,9.368,35.794,18.474,51.331
				c-8.458-10.282-16.16-21.224-23.045-32.761c-3.176-5.314-6.168-10.741-8.98-16.27C206.212,388.157,210.73,387.39,215.274,386.738
				z M214.517,343.791c-9.906,1.248-19.711,2.956-29.384,5.134c-7.416-22.778-12.048-46.791-13.737-71.591h68.713
				C226.636,296.649,217.606,319.292,214.517,343.791z M277.334,169.935c16.763-1.141,33.281-3.615,49.437-7.376
				c5.516,16.898,9.522,34.522,11.917,52.7c-22.54,3.638-43.388,12.319-61.353,24.85V169.935z M362.667,469.334
				c-12.541,0-24.573-2.171-35.75-6.145c-0.631-0.307-1.28-0.597-1.962-0.856c-37.297-14.128-63.6-47.797-68.226-87.2
				c-0.005-0.046-0.01-0.092-0.016-0.138c-0.298-2.568-0.499-5.162-0.61-7.775c-0.011-0.266-0.021-0.532-0.03-0.799
				c-0.044-1.247-0.073-2.497-0.073-3.753c0-58.917,47.75-106.667,106.667-106.667c1.256,0,2.506,0.029,3.753,0.073
				c0.266,0.009,0.533,0.019,0.799,0.03c2.613,0.111,5.207,0.312,7.775,0.61c0.046,0.005,0.092,0.01,0.138,0.016
				c39.404,4.625,73.072,30.929,87.2,68.226c0.258,0.682,0.548,1.332,0.856,1.962c3.974,11.177,6.145,23.209,6.145,35.75
				C469.334,421.584,421.584,469.334,362.667,469.334z"/>
		</g>
	</g>
</g>
<g>
</g>
<g>
</g>
<g>
</g>
<g>
</g>
<g>
</g>
<g>
</g>
<g>
</g>
<g>
</g>
<g>
</g>
<g>
</g>
<g>
</g>
<g>
</g>
<g>
</g>
<g>
</g>
<g>
</g>
</svg>
