<svg id="svg" xmlns="http://www.w3.org/2000/svg" xmlns:xlink="http://www.w3.org/1999/xlink" width="400" height="400" viewBox="0, 0, 400,400" version="1.1"><g id="svgg"><path id="path0" d="M260.156 66.013 C 239.669 70.137,214.063 85.399,214.063 93.486 C 214.063 102.090,221.045 103.287,230.351 96.280 C 260.079 73.893,290.216 74.010,316.102 96.613 C 327.878 106.895,338.143 96.087,326.758 85.393 C 308.797 68.523,283.808 61.252,260.156 66.013 M260.489 89.816 C 239.605 95.293,224.825 108.665,232.227 115.386 C 236.051 118.859,239.545 118.413,245.777 113.656 C 263.934 99.796,283.985 99.676,299.591 113.332 C 311.959 124.155,321.733 112.701,309.610 101.592 C 296.906 89.952,277.612 85.326,260.489 89.816 M262.194 115.663 C 248.548 120.459,242.550 128.608,248.377 134.435 C 251.565 137.622,254.750 137.480,260.046 133.913 C 270.348 126.975,277.182 127.076,286.240 134.297 C 295.434 141.628,304.487 130.551,295.944 122.424 C 287.863 114.736,273.194 111.798,262.194 115.663 M270.408 141.473 C 261.879 143.277,258.206 153.451,263.554 160.462 L 265.625 163.177 265.625 190.573 L 265.625 217.969 164.258 217.986 C 50.622 218.005,59.013 217.575,54.405 223.617 C 51.244 227.761,50.781 232.528,50.781 260.938 C 50.781 295.105,51.558 298.725,59.675 302.412 C 64.116 304.429,332.792 304.756,339.538 302.753 C 347.711 300.326,350.000 295.714,350.000 281.679 L 350.000 271.094 337.500 271.094 L 325.000 271.094 325.000 268.750 L 325.000 266.406 337.500 266.406 L 350.000 266.406 350.000 264.063 L 350.000 261.719 337.500 261.719 L 325.000 261.719 325.000 259.375 L 325.000 257.031 337.500 257.031 L 350.000 257.031 350.000 254.688 L 350.000 252.344 337.500 252.344 L 325.000 252.344 325.000 249.609 L 325.000 246.875 337.500 246.875 L 350.000 246.875 350.000 238.242 C 350.000 219.065,347.710 217.969,307.671 217.969 L 279.688 217.969 279.688 190.371 L 279.688 162.772 281.649 160.929 C 289.763 153.307,281.563 139.114,270.408 141.473 M111.454 238.726 C 113.671 239.796,116.746 242.067,118.287 243.773 L 121.090 246.875 217.967 246.875 C 313.802 246.875,314.861 246.892,316.406 248.438 C 318.863 250.895,318.757 268.982,316.270 271.629 L 314.571 273.438 217.809 273.438 L 121.046 273.438 118.780 276.018 C 109.772 286.277,94.114 286.288,84.218 276.041 C 66.399 257.589,88.317 227.560,111.454 238.726 M93.359 243.632 C 75.236 252.274,81.824 278.906,102.086 278.906 C 119.517 278.906,126.299 254.478,111.574 244.733 C 107.245 241.868,98.204 241.321,93.359 243.632 M218.750 260.156 L 218.750 265.625 231.641 265.625 L 244.531 265.625 244.531 260.156 L 244.531 254.688 231.641 254.688 L 218.750 254.688 218.750 260.156 M251.563 260.156 L 251.563 265.625 264.453 265.625 L 277.344 265.625 277.344 260.156 L 277.344 254.688 264.453 254.688 L 251.563 254.688 251.563 260.156 M284.375 260.156 L 284.375 265.625 297.266 265.625 L 310.156 265.625 310.156 260.156 L 310.156 254.688 297.266 254.688 L 284.375 254.688 284.375 260.156 " stroke="none" fill="#000000" fill-rule="evenodd"></path></g></svg>