<svg id="svg" xmlns="http://www.w3.org/2000/svg" xmlns:xlink="http://www.w3.org/1999/xlink" width="400" height="443.8095238095238" viewBox="0, 0, 400,443.8095238095238"><g id="svgg"><path id="path0" d="M319.166 77.858 C 301.809 112.560,288.036 140.952,288.560 140.952 C 289.084 140.952,303.232 113.524,320.000 80.000 C 350.083 19.858,351.990 16.729,355.698 21.429 C 357.735 24.011,358.234 36.501,356.251 35.275 C 355.084 34.554,333.303 76.682,333.363 79.545 C 333.379 80.319,334.223 79.667,335.238 78.095 C 337.337 74.847,337.792 77.998,335.925 82.861 C 335.130 84.934,334.257 85.303,333.406 83.927 C 332.690 82.769,321.881 102.925,309.385 128.718 C 284.040 181.037,279.370 192.112,297.752 156.304 C 304.443 143.271,310.296 133.745,310.760 135.136 C 311.877 138.488,351.565 53.377,350.955 48.937 C 350.695 47.043,351.187 45.929,352.050 46.462 C 353.712 47.489,361.905 32.079,361.905 27.924 C 361.905 26.577,359.389 23.065,356.315 20.119 L 350.725 14.764 319.166 77.858 M189.350 25.480 C 188.797 26.923,188.669 32.280,189.067 37.385 L 189.790 46.667 190.133 35.714 C 190.420 26.562,196.190 17.748,196.190 26.463 C 196.190 27.398,197.642 28.721,199.417 29.402 C 202.245 30.487,202.209 30.159,199.122 26.749 C 195.053 22.253,190.800 21.701,189.350 25.480 M194.911 42.857 C 194.919 50.190,195.263 52.957,195.676 49.005 C 196.088 45.053,196.081 39.053,195.660 35.672 C 195.240 32.290,194.902 35.524,194.911 42.857 M200.625 44.762 C 200.633 52.095,200.978 54.862,201.390 50.910 C 201.802 46.958,201.796 40.958,201.375 37.577 C 200.954 34.195,200.617 37.429,200.625 44.762 M187.257 60.000 C 187.268 66.286,187.623 68.628,188.047 65.204 C 188.471 61.780,188.462 56.638,188.028 53.775 C 187.593 50.913,187.246 53.714,187.257 60.000 M344.027 64.092 C 340.344 71.270,337.288 76.516,337.237 75.750 C 337.095 73.641,349.226 49.543,350.026 50.344 C 350.410 50.727,347.710 56.914,344.027 64.092 M89.627 61.780 C 88.380 63.283,87.709 67.355,88.137 70.828 L 88.914 77.143 89.219 70.000 C 89.387 66.071,90.381 62.857,91.429 62.857 C 92.476 62.857,93.432 66.071,93.552 70.000 L 93.771 77.143 95.252 69.524 C 97.261 59.184,94.704 55.663,89.627 61.780 M193.006 71.429 C 193.014 78.762,193.359 81.529,193.771 77.577 C 194.183 73.625,194.176 67.625,193.756 64.243 C 193.335 60.862,192.998 64.095,193.006 71.429 M198.748 75.238 C 198.755 83.619,199.090 86.811,199.492 82.331 C 199.895 77.851,199.889 70.993,199.480 67.093 C 199.071 63.192,198.741 66.857,198.748 75.238 M96.190 78.095 C 95.446 84.510,95.265 90.186,95.789 90.710 C 96.313 91.234,97.351 86.414,98.095 80.000 C 98.840 73.586,99.020 67.909,98.496 67.385 C 97.973 66.861,96.935 71.681,96.190 78.095 M185.352 84.762 C 185.363 91.048,185.718 93.389,186.142 89.966 C 186.566 86.542,186.558 81.400,186.123 78.537 C 185.688 75.675,185.341 78.476,185.352 84.762 M90.069 86.667 C 90.083 91.905,90.453 93.822,90.891 90.926 C 91.328 88.031,91.317 83.745,90.865 81.402 C 90.413 79.060,90.054 81.429,90.069 86.667 M98.095 93.333 C 97.351 99.748,97.170 105.424,97.694 105.948 C 98.218 106.472,99.256 101.652,100.000 95.238 C 100.744 88.824,100.925 83.147,100.401 82.623 C 99.877 82.100,98.840 86.919,98.095 93.333 M322.593 110.212 C 316.641 122.942,311.308 132.895,310.742 132.330 C 310.177 131.764,314.771 121.073,320.952 108.571 C 335.489 79.172,336.589 80.273,322.593 110.212 M191.117 100.952 C 191.117 108.810,191.453 112.024,191.864 108.095 C 192.275 104.167,192.275 97.738,191.864 93.810 C 191.453 89.881,191.117 93.095,191.117 100.952 M196.867 111.429 C 196.861 120.857,197.183 124.954,197.582 120.534 C 197.982 116.113,197.987 108.399,197.593 103.391 C 197.199 98.383,196.872 102.000,196.867 111.429 M91.973 105.714 C 91.988 110.952,92.358 112.869,92.795 109.974 C 93.233 107.078,93.222 102.793,92.769 100.450 C 92.317 98.107,91.959 100.476,91.973 105.714 M100.000 108.571 C 99.256 114.986,99.075 120.662,99.599 121.186 C 100.123 121.710,101.160 116.890,101.905 110.476 C 102.649 104.062,102.830 98.385,102.306 97.861 C 101.782 97.338,100.744 102.157,100.000 108.571 M183.447 107.619 C 183.458 113.905,183.814 116.247,184.238 112.823 C 184.662 109.400,184.653 104.257,184.218 101.394 C 183.784 98.532,183.437 101.333,183.447 107.619 M101.905 123.810 C 101.160 130.224,100.956 135.877,101.451 136.372 C 101.946 136.866,102.946 132.009,103.673 125.578 C 104.401 119.147,104.605 113.494,104.127 113.016 C 103.649 112.538,102.649 117.395,101.905 123.810 M93.904 125.714 C 93.904 131.476,94.261 133.833,94.698 130.952 C 95.134 128.071,95.134 123.357,94.698 120.476 C 94.261 117.595,93.904 119.952,93.904 125.714 M189.212 131.429 C 189.212 139.286,189.548 142.500,189.959 138.571 C 190.370 134.643,190.370 128.214,189.959 124.286 C 189.548 120.357,189.212 123.571,189.212 131.429 M181.523 131.429 C 181.523 137.190,181.880 139.548,182.317 136.667 C 182.753 133.786,182.753 129.071,182.317 126.190 C 181.880 123.310,181.523 125.667,181.523 131.429 M105.091 129.524 C 105.031 132.143,105.691 137.714,106.557 141.905 C 107.568 146.792,108.173 147.817,108.243 144.762 C 108.303 142.143,107.643 136.571,106.776 132.381 C 105.765 127.494,105.161 126.469,105.091 129.524 M194.981 153.333 C 194.986 163.810,195.306 167.852,195.692 162.317 C 196.078 156.782,196.074 148.211,195.683 143.269 C 195.292 138.328,194.976 142.857,194.981 153.333 M95.783 145.714 C 95.797 150.952,96.167 152.869,96.605 149.974 C 97.043 147.078,97.031 142.793,96.579 140.450 C 96.127 138.107,95.769 140.476,95.783 145.714 M103.337 145.714 C 103.359 149.905,103.749 151.395,104.204 149.025 C 104.660 146.656,104.643 143.227,104.166 141.406 C 103.689 139.585,103.316 141.524,103.337 145.714 M297.020 164.874 C 290.350 179.111,284.075 191.264,283.075 191.882 C 281.985 192.556,281.841 191.547,282.716 189.360 C 286.005 181.140,285.935 180.285,282.416 185.714 C 276.863 194.283,272.381 197.620,272.381 193.186 C 272.381 190.421,271.899 190.196,270.016 192.079 C 268.132 193.963,268.174 194.768,270.219 196.032 C 273.633 198.142,269.947 200.408,265.733 198.791 C 262.678 197.619,262.665 196.346,265.619 187.619 C 266.329 185.524,265.460 186.322,263.689 189.394 C 261.173 193.755,260.942 195.736,262.631 198.441 C 264.693 201.743,263.120 201.905,228.842 201.905 L 192.890 201.905 193.329 189.048 C 193.570 181.976,193.411 180.262,192.975 185.238 C 192.539 190.214,191.312 194.286,190.248 194.286 C 189.182 194.286,188.857 195.993,189.524 198.095 C 190.189 200.190,189.872 201.905,188.820 201.905 C 187.769 201.905,186.562 199.119,186.140 195.714 L 185.372 189.524 185.067 195.714 C 184.597 205.254,177.641 204.469,176.626 194.762 L 175.878 187.619 175.558 195.714 L 175.238 203.810 145.714 203.810 L 116.190 203.810 116.001 197.619 C 115.825 191.897,115.710 191.789,114.476 196.190 C 113.387 200.073,112.016 200.910,107.047 200.723 C 102.750 200.562,100.952 201.353,100.952 203.405 C 100.952 205.983,108.299 206.173,165.238 205.071 C 200.595 204.387,239.167 203.823,250.952 203.818 C 268.726 203.811,272.381 203.322,272.381 200.952 C 272.381 199.381,273.238 198.095,274.286 198.095 C 275.333 198.095,276.190 198.952,276.190 200.000 C 276.190 201.048,277.048 201.905,278.095 201.905 C 279.143 201.905,280.000 200.724,280.000 199.281 C 280.000 197.838,281.421 195.481,283.158 194.043 C 286.354 191.397,311.110 140.952,309.838 139.679 C 309.458 139.299,303.690 150.637,297.020 164.874 M276.090 162.105 C 270.778 172.691,266.735 181.656,267.106 182.027 C 267.477 182.398,272.239 173.736,277.688 162.779 C 283.138 151.822,287.181 142.857,286.673 142.857 C 286.165 142.857,281.403 151.518,276.090 162.105 M179.618 154.286 C 179.618 160.048,179.975 162.405,180.412 159.524 C 180.848 156.643,180.848 151.929,180.412 149.048 C 179.975 146.167,179.618 148.524,179.618 154.286 M187.371 167.619 C 187.371 178.619,187.686 183.119,188.071 177.619 C 188.456 172.119,188.456 163.119,188.071 157.619 C 187.686 152.119,187.371 156.619,187.371 167.619 M109.013 156.190 C 109.013 159.857,109.405 161.357,109.884 159.524 C 110.364 157.690,110.364 154.690,109.884 152.857 C 109.405 151.024,109.013 152.524,109.013 156.190 M105.242 160.952 C 105.263 165.143,105.653 166.633,106.109 164.264 C 106.565 161.894,106.547 158.466,106.071 156.644 C 105.594 154.823,105.221 156.762,105.242 160.952 M97.714 167.619 C 97.714 173.381,98.071 175.738,98.507 172.857 C 98.944 169.976,98.944 165.262,98.507 162.381 C 98.071 159.500,97.714 161.857,97.714 167.619 M110.918 169.524 C 110.918 173.190,111.310 174.690,111.789 172.857 C 112.268 171.024,112.268 168.024,111.789 166.190 C 111.310 164.357,110.918 165.857,110.918 169.524 M177.733 176.190 C 177.744 182.476,178.099 184.818,178.523 181.394 C 178.947 177.971,178.938 172.828,178.504 169.966 C 178.069 167.104,177.722 169.905,177.733 176.190 M107.147 176.190 C 107.168 180.381,107.558 181.871,108.014 179.502 C 108.469 177.132,108.452 173.704,107.975 171.883 C 107.499 170.061,107.126 172.000,107.147 176.190 M112.861 183.810 C 112.882 188.000,113.273 189.490,113.728 187.121 C 114.184 184.751,114.166 181.323,113.690 179.502 C 113.213 177.680,112.840 179.619,112.861 183.810 M99.592 187.619 C 99.607 192.857,99.977 194.774,100.414 191.879 C 100.852 188.983,100.841 184.698,100.388 182.355 C 99.936 180.012,99.578 182.381,99.592 187.619 M108.571 192.381 C 108.571 196.571,109.237 200.000,110.050 200.000 C 110.864 200.000,111.202 196.571,110.803 192.381 C 110.403 188.190,109.738 184.762,109.324 184.762 C 108.910 184.762,108.571 188.190,108.571 192.381 M281.783 205.238 C 281.302 218.378,278.496 253.539,277.890 254.026 C 277.479 254.355,233.429 253.097,180.000 251.229 C 126.571 249.361,80.500 247.784,77.619 247.726 C 72.779 247.627,72.364 247.004,72.160 239.524 C 71.766 225.071,70.623 236.071,65.781 300.952 C 63.162 336.048,60.525 370.762,59.922 378.095 L 58.826 391.429 65.780 395.157 C 70.877 397.890,76.374 398.868,86.367 398.819 C 95.728 398.773,98.508 399.225,95.238 400.261 C 92.140 401.243,94.137 401.484,100.952 400.952 C 108.867 400.335,110.264 400.568,106.667 401.905 C 103.069 403.242,104.467 403.475,112.381 402.857 C 120.295 402.240,121.693 402.472,118.095 403.810 C 114.498 405.147,115.895 405.380,123.810 404.762 C 130.436 404.245,132.536 404.486,129.524 405.418 C 125.708 406.599,127.725 407.374,139.678 409.323 C 147.882 410.661,155.096 411.253,155.710 410.639 C 156.323 410.026,154.325 409.456,151.270 409.373 C 148.214 409.291,146.721 408.812,147.951 408.310 C 149.870 407.527,180.086 411.991,251.834 423.657 C 260.963 425.141,269.320 426.904,270.406 427.576 C 271.549 428.282,272.396 426.943,272.416 424.398 C 272.530 410.182,285.725 205.068,286.581 204.212 C 287.152 203.642,287.748 207.817,287.905 213.492 L 288.191 223.810 289.334 215.248 L 290.476 206.687 294.286 215.210 C 296.381 219.897,297.952 224.180,297.776 224.727 C 297.601 225.275,296.414 249.677,295.139 278.954 C 293.106 325.654,292.408 332.548,289.456 335.140 C 284.691 339.325,281.794 383.092,286.543 379.150 C 291.317 375.188,290.322 382.334,284.739 392.099 C 278.109 403.696,278.823 404.162,288.092 394.286 L 296.137 385.714 298.348 304.793 L 300.558 223.873 295.014 212.889 C 289.410 201.788,282.064 197.540,281.783 205.238 M73.160 208.337 C 72.606 209.780,72.478 215.137,72.876 220.242 L 73.599 229.524 73.942 218.671 L 74.286 207.818 84.286 207.119 L 94.286 206.419 84.226 206.067 C 77.184 205.820,73.864 206.501,73.160 208.337 M286.367 240.952 C 286.374 249.333,286.709 252.525,287.111 248.045 C 287.514 243.565,287.508 236.708,287.099 232.807 C 286.690 228.906,286.360 232.571,286.367 240.952 M243.221 237.507 C 241.739 239.905,244.194 243.199,247.619 243.406 C 249.190 243.501,253.262 244.110,256.667 244.761 C 262.030 245.785,262.857 245.419,262.857 242.019 C 262.857 237.230,258.057 236.850,255.391 241.429 C 253.577 244.542,253.445 244.546,253.391 241.488 C 253.352 239.279,252.342 238.595,250.284 239.385 C 248.607 240.029,246.571 239.482,245.760 238.169 C 244.949 236.857,243.807 236.559,243.221 237.507 M127.617 253.220 C 127.616 253.806,139.786 254.092,154.662 253.856 C 177.949 253.487,182.231 253.884,185.467 256.713 C 187.697 258.663,188.591 258.919,187.664 257.344 C 186.339 255.091,191.863 254.883,224.003 255.972 C 244.849 256.678,265.599 257.189,270.115 257.106 L 278.325 256.955 277.162 271.811 C 276.522 279.982,275.704 291.810,275.344 298.095 C 272.946 340.008,272.020 354.014,271.312 359.048 C 270.870 362.190,269.990 377.190,269.355 392.381 C 268.721 407.571,267.819 420.621,267.352 421.381 C 266.473 422.807,250.766 421.468,245.714 419.536 C 244.143 418.935,242.399 418.517,241.839 418.609 C 241.278 418.700,233.135 417.583,223.743 416.127 C 214.351 414.671,198.143 412.157,187.726 410.541 C 177.309 408.924,168.107 406.534,167.279 405.229 C 166.099 403.371,165.766 403.397,165.743 405.351 C 165.727 406.722,164.811 407.286,163.708 406.604 C 162.605 405.922,158.105 405.001,153.708 404.557 C 149.311 404.113,143.571 403.254,140.952 402.648 C 138.333 402.041,133.190 401.199,129.524 400.776 C 125.857 400.352,120.714 399.481,118.095 398.840 C 115.476 398.198,110.028 397.403,105.988 397.073 C 94.079 396.101,79.918 392.150,81.156 390.147 C 81.787 389.126,80.447 389.425,78.179 390.812 C 74.579 393.012,73.704 392.862,71.313 389.636 C 69.805 387.602,68.571 386.960,68.571 388.207 C 68.571 389.455,67.256 390.476,65.647 390.476 C 63.258 390.476,63.118 389.737,64.885 386.437 C 66.265 383.858,66.323 382.845,65.045 383.635 C 62.966 384.920,63.555 358.149,65.984 340.952 C 66.650 336.238,67.008 328.217,66.779 323.127 C 66.550 318.037,67.074 314.313,67.943 314.851 C 68.812 315.388,69.330 310.124,69.093 303.152 C 68.857 296.180,69.170 289.190,69.789 287.619 C 70.408 286.048,70.888 280.256,70.854 274.748 C 70.821 269.240,71.365 265.087,72.064 265.520 C 72.762 265.952,73.207 262.964,73.052 258.880 L 72.771 251.454 100.195 251.804 C 115.278 251.996,127.618 252.633,127.617 253.220 M284.475 274.286 C 284.475 283.190,284.803 286.833,285.204 282.381 C 285.605 277.929,285.605 270.643,285.204 266.190 C 284.803 261.738,284.475 265.381,284.475 274.286 M282.558 307.619 C 282.565 316.000,282.900 319.192,283.302 314.712 C 283.704 310.231,283.699 303.374,283.289 299.473 C 282.880 295.573,282.551 299.238,282.558 307.619 M280.653 340.000 C 280.660 348.381,280.995 351.573,281.397 347.093 C 281.800 342.612,281.794 335.755,281.385 331.854 C 280.975 327.954,280.646 331.619,280.653 340.000 M288.966 349.025 C 288.511 351.395,288.121 349.905,288.099 345.714 C 288.078 341.524,288.451 339.585,288.928 341.406 C 289.405 343.227,289.422 346.656,288.966 349.025 M278.748 372.381 C 278.755 380.762,279.090 383.954,279.492 379.473 C 279.895 374.993,279.889 368.136,279.480 364.235 C 279.071 360.334,278.741 364.000,278.748 372.381 M287.749 373.965 C 285.325 376.389,284.985 369.320,287.169 361.905 C 288.415 357.672,288.639 357.965,289.178 364.537 C 289.511 368.603,288.868 372.846,287.749 373.965 M293.199 377.619 C 293.090 382.660,292.786 383.102,291.558 380.000 C 290.729 377.905,290.453 375.119,290.944 373.810 C 292.475 369.724,293.339 371.181,293.199 377.619 M276.552 406.667 C 276.330 415.462,275.012 424.120,273.435 427.143 C 269.822 434.067,271.536 433.799,290.042 424.540 C 309.049 415.032,307.740 416.252,305.112 410.484 C 303.491 406.926,301.477 405.714,297.184 405.714 C 291.538 405.714,289.569 403.279,293.333 400.952 C 294.381 400.305,295.153 397.897,295.048 395.602 C 294.868 391.638,294.796 391.620,293.620 395.250 C 292.938 397.352,289.549 403.145,286.088 408.123 C 282.551 413.211,280.379 418.211,281.129 419.540 C 282.050 421.172,281.817 421.314,280.376 420.000 C 279.228 418.952,277.985 412.095,277.613 404.762 L 276.937 391.429 276.552 406.667 M302.857 408.416 C 302.857 408.854,303.359 410.520,303.973 412.119 C 304.913 414.571,282.122 428.571,277.190 428.571 C 274.228 428.571,276.860 424.375,281.006 422.486 C 284.040 421.104,285.023 419.798,283.663 418.957 C 278.825 415.967,287.510 407.619,295.457 407.619 C 299.527 407.619,302.857 407.978,302.857 408.416 M293.333 415.238 C 289.667 417.246,287.524 418.888,288.571 418.888 C 289.619 418.888,293.476 417.246,297.143 415.238 C 300.810 413.231,302.952 411.588,301.905 411.588 C 300.857 411.588,297.000 413.231,293.333 415.238 M203.968 419.782 C 205.327 421.039,255.444 429.000,256.343 428.102 C 256.810 427.634,245.825 425.390,231.930 423.115 C 206.282 418.915,202.550 418.470,203.968 419.782 " stroke="none" fill="#000000" fill-rule="evenodd"></path></g></svg>