<svg id="svg" xmlns="http://www.w3.org/2000/svg" xmlns:xlink="http://www.w3.org/1999/xlink" width="400" height="405.3908355795148" viewBox="0, 0, 400,405.3908355795148"><g id="svgg"><path id="path0" d="M60.916 10.251 C 47.359 12.753,29.306 22.307,24.852 29.339 C 21.427 34.745,21.649 43.890,30.207 250.135 C 34.413 351.498,33.735 342.988,37.983 347.825 C 39.789 349.882,43.402 352.817,46.013 354.347 C 48.929 356.056,51.575 358.726,52.872 361.267 C 59.190 373.652,87.359 378.932,198.922 388.641 C 317.012 398.918,343.636 397.896,353.278 382.716 C 356.230 378.069,357.247 377.050,363.524 372.454 C 375.364 363.785,374.925 367.283,379.536 244.744 C 381.310 197.601,383.233 146.658,383.808 131.536 C 388.041 20.374,388.327 30.334,380.798 26.519 C 369.008 20.544,353.243 18.416,300.270 15.646 C 179.244 9.317,78.308 7.042,60.916 10.251 M99.579 11.892 C 88.229 12.313,76.603 13.009,73.745 13.437 C 57.587 15.860,40.076 28.986,44.756 35.167 C 47.196 38.389,46.646 39.107,42.355 38.302 C 29.315 35.856,28.350 30.992,39.349 23.143 C 53.594 12.978,62.967 10.978,95.957 11.064 L 120.216 11.127 99.579 11.892 M153.908 12.632 C 152.278 12.879,149.609 12.879,147.978 12.632 C 146.348 12.385,147.682 12.183,150.943 12.183 C 154.205 12.183,155.539 12.385,153.908 12.632 M206.469 17.242 C 342.701 22.629,363.342 24.942,363.342 34.825 C 363.342 51.931,338.343 52.987,153.100 43.709 C 49.202 38.505,39.081 36.779,50.314 26.171 C 64.078 13.174,80.231 12.250,206.469 17.242 M209.483 14.816 C 205.211 15.020,197.934 15.021,193.311 14.818 C 188.688 14.616,192.183 14.449,201.078 14.447 C 209.973 14.446,213.755 14.612,209.483 14.816 M241.824 15.891 C 238.142 16.101,231.835 16.103,227.808 15.895 C 223.780 15.687,226.792 15.515,234.501 15.513 C 242.210 15.511,245.505 15.682,241.824 15.891 M301.887 18.383 C 358.723 21.362,377.358 25.250,377.358 34.126 C 377.358 41.857,368.260 50.674,360.283 50.674 C 356.186 50.674,356.009 49.705,359.508 46.418 C 365.534 40.757,367.058 33.108,362.932 29.232 C 357.558 24.183,338.544 21.741,274.394 17.862 C 255.829 16.739,253.087 16.436,264.690 16.789 C 273.585 17.059,290.323 17.777,301.887 18.383 M32.320 36.096 C 33.427 37.098,37.160 38.820,40.616 39.925 C 48.124 42.324,44.330 42.774,35.782 40.498 C 25.195 37.680,23.356 35.556,27.224 30.615 L 29.650 27.516 29.979 30.896 C 30.160 32.755,31.214 35.095,32.320 36.096 M382.184 30.360 C 389.194 35.875,381.342 49.769,370.325 51.343 L 366.038 51.955 369.509 49.733 C 377.286 44.755,382.182 33.287,378.221 29.326 C 375.970 27.075,379.019 27.871,382.184 30.360 M34.855 42.001 C 51.544 46.269,92.827 48.511,295.957 56.176 C 346.636 58.088,367.708 56.407,378.778 49.569 C 381.634 47.805,384.146 46.361,384.360 46.361 C 384.575 46.361,384.533 48.908,384.267 52.022 C 384.002 55.135,383.054 77.817,382.161 102.426 C 378.714 197.343,373.122 340.522,372.568 348.024 C 371.200 366.543,361.822 375.247,339.805 378.432 C 314.712 382.062,189.803 375.086,128.302 366.621 C 123.854 366.008,110.997 364.266,99.730 362.749 C 57.860 357.111,50.302 355.214,41.808 348.213 C 36.538 343.869,37.128 350.497,33.413 253.908 C 32.820 238.491,31.629 210.593,30.765 191.914 C 29.902 173.235,28.922 149.704,28.587 139.623 C 28.252 129.542,27.519 111.105,26.958 98.652 C 25.404 64.133,24.932 39.892,25.815 39.892 C 26.252 39.892,30.320 40.841,34.855 42.001 M59.569 42.809 C 58.235 43.066,56.051 43.066,54.717 42.809 C 53.383 42.552,54.474 42.342,57.143 42.342 C 59.811 42.342,60.903 42.552,59.569 42.809 M108.805 45.960 C 109.589 46.661,93.523 46.162,86.792 45.276 C 82.572 44.720,85.195 44.621,94.340 44.991 C 102.049 45.303,108.558 45.739,108.805 45.960 M134.514 47.102 C 133.483 47.372,131.542 47.382,130.201 47.124 C 128.860 46.866,129.704 46.645,132.075 46.633 C 134.447 46.621,135.545 46.832,134.514 47.102 M349.865 50.674 C 349.499 51.267,346.923 51.688,344.141 51.610 C 339.171 51.471,339.148 51.455,342.857 50.674 C 348.536 49.478,350.604 49.478,349.865 50.674 M161.320 348.066 C 157.134 353.768,156.508 355.795,158.934 355.795 C 160.530 355.795,166.038 349.880,166.038 348.165 C 166.038 347.618,166.829 347.170,167.796 347.170 C 169.187 347.170,169.432 347.921,168.971 350.766 C 168.036 356.527,169.019 357.099,180.741 357.618 C 186.590 357.877,197.557 358.605,205.113 359.237 C 215.897 360.139,219.201 360.096,220.477 359.037 C 223.826 356.257,221.582 352.933,215.357 351.455 C 212.084 350.678,212.188 350.618,216.981 350.515 C 220.656 350.435,222.102 349.968,222.102 348.860 C 222.102 346.824,219.951 346.285,210.243 345.887 L 202.156 345.555 201.617 349.866 C 200.783 356.540,193.718 356.539,193.189 349.865 C 192.733 344.103,193.183 344.296,178.301 343.469 L 165.227 342.743 161.320 348.066 M188.679 349.299 C 188.679 349.903,187.189 350.067,185.175 349.683 C 180.262 348.748,180.105 348.248,184.726 348.248 C 186.900 348.248,188.679 348.721,188.679 349.299 M182.878 353.461 C 180.210 353.975,173.585 352.663,173.585 351.620 C 173.585 351.157,176.117 351.297,179.212 351.931 C 182.306 352.564,183.956 353.253,182.878 353.461 M212.559 355.594 C 209.212 356.095,204.611 354.901,205.340 353.720 C 205.658 353.207,207.982 353.333,210.506 354.001 C 214.128 354.959,214.561 355.295,212.559 355.594 M78.706 361.691 C 174.813 376.804,319.107 385.957,349.596 378.874 C 356.204 377.339,350.690 384.626,342.023 388.882 C 331.245 394.174,292.762 393.757,217.251 387.528 C 102.665 378.076,62.888 371.987,56.543 362.928 C 53.934 359.204,54.555 357.779,58.491 358.458 C 60.418 358.791,69.515 360.245,78.706 361.691 " stroke="none" fill="#000000" fill-rule="evenodd"></path></g></svg>