<svg id="svg" xmlns="http://www.w3.org/2000/svg" xmlns:xlink="http://www.w3.org/1999/xlink" width="400" height="386.15916955017303" viewBox="0, 0, 400,386.15916955017303" version="1.1"><g id="svgg"><path id="path0" d="M0.000 193.237 L 0.000 386.473 200.000 386.473 L 400.000 386.473 400.000 193.237 L 400.000 0.000 200.000 0.000 L 0.000 0.000 0.000 193.237 M116.329 11.982 C 127.700 12.199,142.657 12.558,149.565 12.779 C 156.473 12.999,169.865 13.422,179.324 13.719 C 195.281 14.218,201.287 14.444,225.700 15.467 C 230.696 15.677,239.043 16.024,244.251 16.240 C 249.459 16.456,257.198 16.806,261.449 17.018 C 265.700 17.231,273.266 17.575,278.261 17.783 C 283.256 17.991,289.256 18.333,291.594 18.543 C 295.320 18.877,307.350 19.513,317.295 19.903 C 321.602 20.072,334.432 21.106,338.357 21.602 C 340.058 21.816,343.275 22.182,345.507 22.414 C 352.732 23.165,358.732 24.359,362.319 25.761 C 364.660 26.675,367.274 27.831,367.923 28.237 C 368.242 28.437,368.881 28.765,369.344 28.966 C 373.768 30.887,374.578 33.485,374.106 44.243 C 373.387 60.637,372.940 72.180,372.558 84.251 C 372.347 90.947,371.998 99.469,371.783 103.188 C 371.568 106.908,371.224 116.300,371.019 124.058 C 370.813 131.816,370.547 139.295,370.427 140.676 C 370.307 142.058,369.959 150.319,369.654 159.034 C 369.349 167.749,368.921 179.401,368.703 184.928 C 367.969 203.520,367.529 215.014,367.155 225.314 C 366.951 230.947,366.515 241.990,366.187 249.855 C 365.458 267.344,364.935 281.090,364.439 295.845 C 363.667 318.751,362.750 332.989,361.888 335.459 C 359.769 341.524,358.420 343.863,355.027 347.356 C 352.741 349.710,348.667 352.536,346.591 353.207 C 345.320 353.618,345.097 353.892,344.577 355.683 C 343.432 359.620,340.712 362.665,335.602 365.729 C 334.298 366.510,333.081 367.156,332.896 367.163 C 332.712 367.170,331.865 367.512,331.014 367.923 C 330.164 368.333,329.066 368.675,328.574 368.683 C 328.081 368.690,327.319 368.888,326.879 369.124 C 322.552 371.439,298.901 371.568,266.087 369.453 C 262.686 369.234,256.686 368.885,252.754 368.677 C 248.821 368.469,243.037 368.041,239.900 367.725 C 236.763 367.408,232.937 367.148,231.397 367.147 C 229.858 367.145,227.121 366.973,225.314 366.763 C 223.507 366.554,219.681 366.205,216.812 365.986 C 213.942 365.768,208.899 365.339,205.604 365.033 C 202.309 364.727,195.179 364.117,189.758 363.677 C 184.338 363.237,178.686 362.709,177.198 362.503 C 175.710 362.297,172.232 361.957,169.469 361.746 C 166.705 361.536,162.966 361.175,161.159 360.944 C 159.353 360.713,156.135 360.379,154.010 360.201 C 149.039 359.786,135.435 358.347,133.867 358.071 C 133.205 357.954,131.118 357.702,129.230 357.511 C 123.228 356.903,112.354 355.592,109.952 355.186 C 108.676 354.971,106.242 354.622,104.541 354.410 C 101.302 354.008,96.737 353.330,90.242 352.288 C 75.184 349.873,64.766 344.308,63.335 337.916 C 62.835 335.681,61.316 333.913,59.897 333.913 C 59.500 333.913,59.083 333.762,58.968 333.577 C 58.854 333.392,57.779 332.744,56.580 332.137 C 53.855 330.759,49.494 326.762,48.077 324.343 C 46.794 322.154,46.297 316.316,45.617 295.459 C 45.395 288.657,45.038 280.483,44.824 277.295 C 44.610 274.106,44.271 266.802,44.070 261.063 C 43.869 255.324,43.524 246.628,43.304 241.739 C 42.925 233.313,42.629 226.083,41.741 203.575 C 41.529 198.208,41.170 190.077,40.944 185.507 C 40.718 180.937,40.376 172.589,40.184 166.957 C 39.992 161.324,39.572 150.715,39.250 143.382 C 38.928 136.048,38.486 125.005,38.267 118.841 C 37.340 92.689,37.049 84.850,36.505 71.304 C 35.147 37.514,35.485 33.324,39.926 28.883 C 43.254 25.555,56.448 17.250,59.588 16.506 C 60.080 16.390,61.266 16.029,62.222 15.706 C 65.693 14.531,68.287 13.954,72.077 13.514 C 74.203 13.267,76.109 12.963,76.312 12.837 C 76.737 12.575,88.417 11.727,92.754 11.643 C 94.348 11.612,104.957 11.765,116.329 11.982 M83.285 14.146 C 80.870 14.397,74.971 15.480,73.996 15.851 C 73.512 16.035,71.666 16.384,69.893 16.626 C 68.121 16.869,66.495 17.195,66.282 17.350 C 66.068 17.505,64.589 18.140,62.995 18.760 C 55.777 21.569,45.633 28.757,44.434 31.913 C 43.348 34.768,45.832 37.143,51.888 39.040 C 57.916 40.929,59.946 40.561,57.422 38.037 C 55.139 35.755,54.924 34.844,56.081 32.374 C 56.970 30.476,60.651 26.424,62.609 25.188 C 63.140 24.853,64.197 24.101,64.958 23.517 C 66.682 22.193,71.303 19.728,72.850 19.306 C 73.488 19.132,74.879 18.698,75.942 18.343 C 77.005 17.988,78.396 17.525,79.034 17.314 C 82.756 16.087,99.692 15.123,118.048 15.093 C 127.353 15.078,130.667 14.957,130.355 14.645 C 129.935 14.225,86.906 13.769,83.285 14.146 M132.082 14.959 C 132.563 15.052,133.258 15.048,133.628 14.952 C 133.997 14.855,133.604 14.779,132.754 14.783 C 131.903 14.788,131.601 14.867,132.082 14.959 M150.242 15.372 C 146.681 15.430,143.768 15.620,143.768 15.793 C 143.768 16.207,156.723 16.616,169.836 16.617 C 183.408 16.619,183.537 15.893,170.012 15.626 C 164.824 15.523,159.710 15.400,158.647 15.352 C 157.585 15.305,153.802 15.313,150.242 15.372 M185.152 16.977 C 184.196 17.582,187.383 17.760,203.092 17.980 C 211.382 18.095,218.860 18.357,219.710 18.561 C 221.243 18.929,227.398 19.189,241.932 19.500 C 246.077 19.588,250.550 19.832,251.873 20.041 C 253.195 20.250,259.542 20.544,265.979 20.695 C 272.501 20.848,278.013 21.141,278.431 21.358 C 278.843 21.573,283.800 21.892,289.445 22.068 C 295.091 22.244,300.928 22.566,302.415 22.782 C 303.903 22.999,308.512 23.359,312.657 23.583 C 316.802 23.807,320.976 24.150,321.932 24.345 C 322.889 24.541,325.063 24.721,326.763 24.746 C 328.464 24.770,330.725 24.934,331.787 25.108 C 332.850 25.283,335.198 25.630,337.005 25.879 C 338.812 26.128,341.159 26.572,342.222 26.865 C 343.285 27.159,344.696 27.486,345.357 27.592 C 350.710 28.453,354.649 32.727,353.942 36.908 C 353.160 41.540,351.690 44.106,347.678 47.847 C 346.471 48.973,345.894 49.826,345.894 50.483 L 345.894 51.454 349.082 51.185 C 350.836 51.038,352.444 50.782,352.657 50.617 C 352.870 50.452,353.739 50.126,354.589 49.892 C 356.707 49.309,360.748 45.932,363.161 42.729 C 366.197 38.699,366.583 33.197,363.952 31.437 C 362.023 30.146,359.688 28.986,359.020 28.986 C 358.688 28.986,358.240 28.811,358.027 28.597 C 357.583 28.153,354.595 27.256,350.918 26.464 C 349.536 26.166,347.798 25.742,347.056 25.521 C 346.313 25.301,345.084 25.121,344.324 25.121 C 343.565 25.121,341.650 24.777,340.070 24.357 C 338.220 23.865,335.931 23.590,333.636 23.584 C 331.678 23.579,328.199 23.325,325.907 23.020 C 323.615 22.716,319.304 22.360,316.329 22.230 C 313.353 22.100,307.874 21.751,304.155 21.454 C 300.435 21.157,294.000 20.813,289.855 20.690 C 285.710 20.567,280.359 20.286,277.964 20.066 C 275.569 19.846,268.525 19.506,262.312 19.311 C 256.098 19.116,249.362 18.787,247.343 18.579 C 245.324 18.371,238.367 18.106,231.884 17.990 C 225.401 17.874,219.488 17.710,218.744 17.626 C 210.848 16.736,186.283 16.262,185.152 16.977 M93.720 17.221 C 93.507 17.306,90.551 17.632,87.150 17.946 C 80.738 18.537,78.830 18.897,75.548 20.137 C 74.481 20.540,73.373 20.870,73.087 20.870 C 72.800 20.870,71.563 21.478,70.338 22.222 C 69.113 22.966,67.952 23.575,67.758 23.575 C 67.563 23.575,67.064 23.835,66.649 24.153 C 66.233 24.472,65.198 25.265,64.348 25.916 C 52.587 34.922,55.986 38.137,79.034 39.811 C 82.010 40.027,87.140 40.456,90.435 40.765 C 93.729 41.074,99.326 41.431,102.871 41.559 C 106.416 41.686,110.416 41.954,111.760 42.155 C 113.103 42.355,118.616 42.690,124.009 42.900 C 129.402 43.109,135.315 43.446,137.149 43.648 C 138.983 43.849,144.396 44.122,149.179 44.254 C 153.961 44.385,159.440 44.659,161.353 44.862 C 163.266 45.065,170.048 45.394,176.425 45.593 C 182.802 45.792,189.671 46.126,191.691 46.335 C 193.710 46.545,200.406 46.834,206.570 46.978 C 212.734 47.122,219.343 47.391,221.256 47.576 C 223.169 47.761,230.821 48.082,238.261 48.289 C 245.700 48.496,254.135 48.851,257.005 49.078 C 259.874 49.305,269.961 49.652,279.420 49.850 C 288.879 50.048,300.215 50.330,304.611 50.478 C 312.860 50.756,330.047 50.122,333.720 49.405 C 339.338 48.308,340.887 47.914,343.124 47.011 C 349.622 44.387,352.464 40.939,352.464 35.679 C 352.464 33.622,350.742 31.291,348.792 30.709 C 348.367 30.582,347.498 30.243,346.860 29.955 C 344.726 28.991,340.481 27.826,339.106 27.826 C 338.358 27.826,336.478 27.564,334.929 27.244 C 333.380 26.924,329.605 26.500,326.539 26.302 C 323.474 26.103,319.314 25.762,317.295 25.543 C 315.275 25.324,310.406 24.954,306.473 24.720 C 302.541 24.487,297.845 24.147,296.039 23.966 C 294.232 23.785,290.545 23.623,287.845 23.606 C 285.146 23.589,279.929 23.326,276.251 23.021 C 272.574 22.717,265.478 22.359,260.483 22.225 C 255.488 22.092,249.836 21.814,247.923 21.608 C 246.010 21.402,238.705 21.073,231.691 20.876 C 224.676 20.679,217.111 20.349,214.879 20.142 C 212.647 19.936,204.934 19.649,197.737 19.506 C 190.541 19.363,182.715 19.090,180.346 18.901 C 177.977 18.712,168.374 18.388,159.005 18.181 C 149.637 17.974,139.028 17.627,135.430 17.409 C 129.309 17.038,94.567 16.881,93.720 17.221 M364.831 29.641 C 364.831 29.788,365.309 30.409,365.894 31.020 C 367.313 32.502,367.493 38.680,366.184 40.959 C 363.543 45.555,358.415 50.627,355.666 51.362 C 355.102 51.513,354.570 51.844,354.486 52.098 C 354.268 52.751,357.255 52.699,358.570 52.027 C 359.144 51.734,360.202 51.367,360.920 51.212 C 369.084 49.453,375.433 37.377,370.608 32.787 C 368.704 30.976,364.831 28.866,364.831 29.641 M40.685 31.336 C 38.455 33.587,37.583 35.642,38.294 36.970 C 39.225 38.709,43.947 41.036,47.536 41.524 C 48.493 41.654,49.971 42.009,50.821 42.313 C 52.468 42.901,56.508 43.039,57.757 42.550 C 58.641 42.204,57.446 41.749,55.652 41.750 C 55.121 41.750,53.469 41.379,51.981 40.925 C 44.842 38.747,42.657 36.718,42.780 32.379 C 42.867 29.312,42.747 29.252,40.685 31.336 M38.132 40.451 C 37.712 40.871,37.852 45.088,38.450 50.048 C 38.845 53.319,39.013 59.016,39.022 69.372 C 39.029 77.449,39.216 85.971,39.439 88.309 C 39.661 90.647,39.907 93.256,39.985 94.106 C 40.064 94.957,40.247 102.522,40.393 110.918 C 40.539 119.314,40.817 126.879,41.011 127.729 C 41.395 129.410,41.616 135.141,41.923 151.370 C 42.039 157.515,42.296 162.324,42.542 162.964 C 42.802 163.639,43.085 170.280,43.279 180.290 C 43.492 191.251,43.747 196.961,44.064 197.874 C 44.380 198.785,44.635 204.401,44.843 215.072 C 45.015 223.869,45.342 231.776,45.577 232.846 C 45.818 233.941,46.077 240.620,46.176 248.305 C 46.272 255.747,46.538 262.879,46.766 264.155 C 46.995 265.430,47.338 273.430,47.529 281.932 C 47.720 290.435,48.063 298.348,48.291 299.517 C 48.520 300.686,48.805 305.990,48.926 311.304 C 49.046 316.618,49.331 321.575,49.558 322.319 C 50.415 325.123,57.256 330.662,62.218 332.570 C 66.131 334.074,69.676 335.086,72.271 335.440 C 79.818 336.468,83.365 337.037,84.251 337.361 C 84.783 337.555,86.543 337.811,88.164 337.930 C 89.784 338.049,91.569 338.321,92.131 338.534 C 92.693 338.748,94.932 339.096,97.108 339.309 C 99.283 339.521,101.671 339.856,102.415 340.053 C 103.159 340.251,105.306 340.525,107.185 340.664 C 109.065 340.802,111.065 341.097,111.630 341.319 C 112.195 341.541,114.716 341.880,117.233 342.074 C 119.750 342.267,122.117 342.590,122.492 342.791 C 122.868 342.992,125.070 343.265,127.385 343.396 C 129.700 343.528,132.464 343.873,133.527 344.162 C 134.589 344.452,137.198 344.781,139.324 344.893 C 141.449 345.006,144.406 345.361,145.894 345.683 C 147.382 346.004,149.816 346.280,151.304 346.297 C 152.792 346.313,154.879 346.497,155.942 346.706 C 157.005 346.915,160.048 347.246,162.705 347.441 C 165.362 347.636,169.014 348.060,170.821 348.383 C 172.628 348.707,175.324 348.975,176.812 348.981 C 178.300 348.986,180.560 349.166,181.836 349.382 C 183.111 349.598,187.657 350.026,191.937 350.334 C 196.217 350.642,200.478 351.069,201.405 351.283 C 202.333 351.497,204.832 351.676,206.959 351.681 C 209.086 351.687,213.084 351.955,215.844 352.278 C 218.604 352.601,224.777 353.031,229.562 353.235 C 234.346 353.438,239.304 353.767,240.580 353.964 C 241.855 354.162,247.333 354.439,252.754 354.579 C 258.174 354.719,264.087 354.989,265.894 355.177 C 278.449 356.488,328.708 356.462,332.838 355.142 C 334.122 354.732,335.629 354.390,336.186 354.382 C 336.742 354.375,337.633 354.120,338.164 353.816 C 338.696 353.513,339.565 353.257,340.097 353.248 C 340.628 353.239,341.585 352.886,342.222 352.464 C 342.860 352.041,343.692 351.695,344.071 351.693 C 346.462 351.685,355.500 345.197,355.547 343.456 C 355.552 343.284,356.057 342.501,356.670 341.716 C 357.282 340.932,357.902 339.768,358.047 339.130 C 358.192 338.493,358.715 337.101,359.209 336.039 C 360.603 333.039,361.004 328.138,361.723 305.314 C 361.927 298.831,362.361 287.353,362.688 279.807 C 363.221 267.508,364.150 244.055,364.664 229.952 C 364.768 227.082,365.020 220.560,365.222 215.459 C 365.425 210.357,365.772 201.140,365.992 194.976 C 366.213 188.812,366.654 177.681,366.973 170.242 C 367.291 162.802,367.719 151.324,367.923 144.734 C 368.127 138.145,368.382 131.797,368.488 130.628 C 368.595 129.459,368.863 123.024,369.084 116.329 C 369.306 109.633,369.656 100.502,369.863 96.039 C 370.070 91.575,370.413 82.097,370.624 74.976 C 370.836 67.855,371.200 58.986,371.434 55.266 C 371.667 51.546,371.799 47.931,371.726 47.232 L 371.594 45.962 370.242 47.232 C 368.035 49.304,365.123 51.401,364.452 51.401 C 364.108 51.401,363.661 51.559,363.459 51.752 C 362.904 52.282,357.369 54.106,356.299 54.110 C 355.784 54.113,354.500 54.376,353.446 54.696 C 352.393 55.015,349.262 55.455,346.490 55.672 C 343.718 55.889,339.971 56.223,338.164 56.415 C 334.162 56.839,309.640 56.838,301.643 56.414 C 298.454 56.245,288.715 55.919,280.000 55.690 C 271.285 55.460,260.153 55.010,255.261 54.690 C 250.370 54.369,242.805 54.089,238.450 54.068 C 234.095 54.046,228.792 53.886,226.667 53.711 C 224.541 53.536,216.454 53.207,208.696 52.980 C 200.937 52.753,190.937 52.312,186.473 52.000 C 182.010 51.687,173.836 51.340,168.309 51.228 C 162.783 51.116,156.435 50.850,154.203 50.638 C 151.971 50.426,143.558 50.072,135.507 49.853 C 127.456 49.633,120.695 49.347,120.483 49.215 C 120.271 49.084,114.858 48.831,108.454 48.651 C 102.051 48.472,95.594 48.145,94.106 47.924 C 92.618 47.704,87.612 47.358,82.981 47.157 C 78.349 46.956,74.362 46.668,74.119 46.518 C 73.877 46.369,71.255 46.116,68.293 45.958 C 60.554 45.544,52.598 44.454,45.990 42.901 C 44.027 42.439,42.132 41.757,40.503 40.924 C 38.962 40.136,38.533 40.050,38.132 40.451 M66.568 40.436 C 65.728 40.799,66.466 41.354,67.752 41.325 C 69.106 41.296,71.023 40.655,69.903 40.607 C 69.558 40.592,68.775 40.500,68.164 40.403 C 67.553 40.305,66.835 40.320,66.568 40.436 M81.256 42.402 C 81.841 42.491,82.797 42.491,83.382 42.402 C 83.966 42.314,83.488 42.241,82.319 42.241 C 81.150 42.241,80.671 42.314,81.256 42.402 M62.415 43.671 C 62.556 43.899,64.875 44.058,68.065 44.058 C 71.574 44.058,73.392 43.922,73.237 43.671 C 73.096 43.444,70.777 43.285,67.587 43.285 C 64.079 43.285,62.261 43.421,62.415 43.671 M76.908 44.783 C 76.908 45.410,79.293 45.604,87.030 45.604 C 92.148 45.604,95.019 45.755,95.576 46.053 C 96.704 46.657,110.904 47.265,115.556 46.909 C 120.852 46.503,117.989 46.118,106.087 45.635 C 100.986 45.428,95.507 45.086,93.913 44.875 C 90.296 44.397,76.908 44.324,76.908 44.783 M131.787 47.515 C 129.411 47.641,128.023 47.850,128.437 48.019 C 129.329 48.385,138.615 48.393,141.449 48.031 L 143.575 47.760 141.836 47.483 C 139.940 47.182,137.980 47.188,131.787 47.515 M244.548 50.522 C 245.243 50.608,246.286 50.606,246.867 50.518 C 247.448 50.430,246.879 50.359,245.604 50.361 C 244.329 50.363,243.853 50.436,244.548 50.522 M335.858 50.612 C 335.304 50.962,333.430 51.189,327.923 51.574 C 324.501 51.813,324.482 51.822,326.570 52.194 C 330.162 52.833,338.317 52.629,338.986 51.884 C 339.319 51.512,339.923 51.001,340.328 50.747 C 340.946 50.360,340.696 50.284,338.744 50.270 C 337.469 50.261,336.170 50.415,335.858 50.612 M277.568 52.074 C 278.993 52.148,281.428 52.148,282.978 52.075 C 284.529 52.001,283.362 51.941,280.386 51.940 C 277.411 51.939,276.142 51.999,277.568 52.074 M348.599 53.333 C 348.599 53.546,349.131 53.720,349.781 53.720 C 350.471 53.720,350.864 53.559,350.725 53.333 C 350.593 53.121,350.061 52.947,349.542 52.947 C 349.024 52.947,348.599 53.121,348.599 53.333 M173.975 322.383 C 174.541 322.596,178.123 322.799,181.935 322.835 C 186.729 322.879,189.042 323.044,189.434 323.369 C 189.783 323.659,190.547 323.751,191.422 323.609 C 193.676 323.243,193.964 323.743,193.973 328.048 C 193.983 332.499,194.271 332.895,197.789 333.293 C 201.546 333.718,201.832 333.372,201.915 328.305 C 201.983 324.193,202.934 323.115,204.914 324.906 C 205.541 325.473,205.868 325.500,207.339 325.107 C 210.992 324.130,220.777 325.435,221.174 326.952 C 221.640 328.737,220.222 329.390,216.678 329.022 C 212.348 328.573,205.411 328.605,205.411 329.074 C 205.411 329.286,207.021 329.499,209.082 329.559 C 218.137 329.825,222.077 332.137,220.441 336.225 C 220.006 337.311,219.518 337.860,218.833 338.032 C 217.387 338.395,206.833 337.842,205.924 337.356 C 205.496 337.127,202.545 336.885,199.365 336.817 C 193.828 336.700,193.517 336.651,192.004 335.649 L 190.424 334.604 188.915 335.452 C 187.704 336.133,187.048 336.252,185.587 336.056 C 184.587 335.923,181.217 335.666,178.100 335.485 C 171.012 335.076,171.539 335.498,171.624 330.303 L 171.695 325.990 170.671 325.867 C 169.860 325.770,169.548 325.971,169.171 326.834 C 166.813 332.235,162.478 335.774,160.759 333.703 C 160.264 333.106,164.983 325.411,165.843 325.411 C 166.022 325.411,166.527 324.706,166.966 323.846 C 168.106 321.611,170.561 321.098,173.975 322.383 M174.124 326.154 C 174.003 326.351,174.210 326.571,174.585 326.644 C 175.709 326.862,177.787 326.511,177.559 326.142 C 177.277 325.686,174.407 325.697,174.124 326.154 M182.609 326.945 C 181.632 327.340,183.304 328.116,185.132 328.116 C 185.749 328.116,187.045 328.385,188.014 328.714 C 190.058 329.408,190.532 329.236,190.529 327.803 L 190.527 326.763 186.954 326.698 C 184.989 326.661,183.034 326.773,182.609 326.945 M175.603 329.845 C 175.126 331.088,176.291 331.553,180.968 331.988 C 183.466 332.221,185.686 332.302,185.902 332.169 C 186.639 331.713,185.848 331.208,184.398 331.208 C 183.125 331.208,178.262 330.120,176.484 329.438 C 176.087 329.285,175.759 329.436,175.603 329.845 M205.398 332.020 C 204.996 333.288,205.704 333.629,209.344 333.919 C 215.174 334.382,216.331 333.203,210.655 332.584 C 209.288 332.435,207.814 332.064,207.380 331.760 C 206.285 330.993,205.700 331.069,205.398 332.020 M65.584 336.091 C 64.732 336.942,66.591 340.587,68.762 342.323 C 73.035 345.741,81.816 348.744,92.174 350.331 C 94.087 350.625,96.609 351.046,97.778 351.268 C 100.963 351.871,116.739 353.990,122.512 354.589 C 123.681 354.711,126.638 355.057,129.082 355.359 C 138.087 356.471,143.656 357.075,146.860 357.288 C 148.667 357.408,152.058 357.755,154.396 358.059 C 159.983 358.786,169.639 359.720,176.618 360.209 C 179.700 360.425,182.470 360.690,182.774 360.798 C 183.077 360.906,185.512 361.157,188.184 361.355 C 193.214 361.728,202.050 362.488,212.754 363.466 C 216.155 363.777,220.589 364.126,222.609 364.241 C 224.628 364.356,228.976 364.704,232.271 365.014 C 238.614 365.611,245.717 366.080,261.449 366.942 C 266.763 367.233,273.894 367.668,277.295 367.909 C 286.801 368.581,304.249 368.920,313.043 368.603 C 322.884 368.248,327.004 367.414,333.720 364.416 C 339.032 362.045,344.373 354.783,340.804 354.783 C 340.075 354.783,339.308 354.953,339.099 355.162 C 338.891 355.370,337.508 355.792,336.027 356.098 C 334.545 356.405,332.551 356.885,331.594 357.166 C 329.503 357.779,279.018 357.724,270.463 357.099 C 267.631 356.893,260.357 356.544,254.300 356.325 C 248.242 356.106,241.633 355.747,239.614 355.527 C 237.594 355.308,232.287 354.973,227.819 354.784 C 223.351 354.594,218.516 354.251,217.073 354.021 C 215.631 353.790,211.200 353.444,207.226 353.251 C 203.252 353.058,198.783 352.718,197.295 352.495 C 195.807 352.273,192.242 351.917,189.372 351.704 C 182.602 351.202,176.776 350.648,171.014 349.959 C 168.464 349.654,164.586 349.295,162.397 349.162 C 160.208 349.030,157.860 348.756,157.180 348.554 C 156.499 348.351,153.645 348.027,150.838 347.832 C 148.031 347.638,145.063 347.298,144.244 347.077 C 143.424 346.856,140.764 346.512,138.333 346.312 C 135.902 346.112,132.783 345.768,131.401 345.548 C 130.019 345.327,127.411 344.967,125.604 344.746 C 120.273 344.095,116.337 343.591,113.043 343.139 C 111.343 342.905,108.670 342.572,107.104 342.399 C 105.538 342.225,102.755 341.822,100.920 341.503 C 99.086 341.184,96.193 340.722,94.493 340.477 C 84.027 338.964,84.272 339.002,74.589 337.387 C 72.145 336.979,69.421 336.553,68.536 336.440 C 67.651 336.326,66.686 336.141,66.390 336.027 C 66.095 335.914,65.732 335.943,65.584 336.091 " stroke="none" fill="#fbfbfb" fill-rule="evenodd"></path><path id="path1" d="M83.269 12.154 C 79.647 12.404,76.516 12.711,76.312 12.837 C 76.109 12.963,74.203 13.267,72.077 13.514 C 68.287 13.954,65.693 14.531,62.222 15.706 C 61.266 16.029,60.080 16.390,59.588 16.506 C 56.448 17.250,43.254 25.555,39.926 28.883 C 35.485 33.324,35.147 37.514,36.505 71.304 C 37.049 84.850,37.340 92.689,38.267 118.841 C 38.486 125.005,38.928 136.048,39.250 143.382 C 39.572 150.715,39.992 161.324,40.184 166.957 C 40.376 172.589,40.718 180.937,40.944 185.507 C 41.170 190.077,41.529 198.208,41.741 203.575 C 42.629 226.083,42.925 233.313,43.304 241.739 C 43.524 246.628,43.869 255.324,44.070 261.063 C 44.271 266.802,44.610 274.106,44.824 277.295 C 45.038 280.483,45.395 288.657,45.617 295.459 C 46.297 316.316,46.794 322.154,48.077 324.343 C 49.494 326.762,53.855 330.759,56.580 332.137 C 57.779 332.744,58.854 333.392,58.968 333.577 C 59.083 333.762,59.500 333.913,59.897 333.913 C 61.316 333.913,62.835 335.681,63.335 337.916 C 64.766 344.308,75.184 349.873,90.242 352.288 C 96.737 353.330,101.302 354.008,104.541 354.410 C 106.242 354.622,108.676 354.971,109.952 355.186 C 112.354 355.592,123.228 356.903,129.230 357.511 C 131.118 357.702,133.205 357.954,133.867 358.071 C 135.435 358.347,149.039 359.786,154.010 360.201 C 156.135 360.379,159.353 360.713,161.159 360.944 C 162.966 361.175,166.705 361.536,169.469 361.746 C 172.232 361.957,175.710 362.297,177.198 362.503 C 178.686 362.709,184.338 363.237,189.758 363.677 C 195.179 364.117,202.309 364.727,205.604 365.033 C 208.899 365.339,213.942 365.768,216.812 365.986 C 219.681 366.205,223.507 366.554,225.314 366.763 C 227.121 366.973,229.858 367.145,231.397 367.147 C 232.937 367.148,236.763 367.408,239.900 367.725 C 243.037 368.041,248.821 368.469,252.754 368.677 C 256.686 368.885,262.686 369.234,266.087 369.453 C 298.901 371.568,322.552 371.439,326.879 369.124 C 327.319 368.888,328.081 368.690,328.574 368.683 C 329.066 368.675,330.164 368.333,331.014 367.923 C 331.865 367.512,332.712 367.170,332.896 367.163 C 333.081 367.156,334.298 366.510,335.602 365.729 C 340.712 362.665,343.432 359.620,344.577 355.683 C 345.097 353.892,345.320 353.618,346.591 353.207 C 348.667 352.536,352.741 349.710,355.027 347.356 C 358.420 343.863,359.769 341.524,361.888 335.459 C 362.750 332.989,363.667 318.751,364.439 295.845 C 364.935 281.090,365.458 267.344,366.187 249.855 C 366.515 241.990,366.951 230.947,367.155 225.314 C 367.529 215.014,367.969 203.520,368.703 184.928 C 368.921 179.401,369.349 167.749,369.654 159.034 C 369.959 150.319,370.307 142.058,370.427 140.676 C 370.547 139.295,370.813 131.816,371.019 124.058 C 371.224 116.300,371.568 106.908,371.783 103.188 C 371.998 99.469,372.347 90.947,372.558 84.251 C 372.940 72.180,373.387 60.637,374.106 44.243 C 374.578 33.485,373.768 30.887,369.344 28.966 C 368.881 28.765,368.242 28.437,367.923 28.237 C 367.274 27.831,364.660 26.675,362.319 25.761 C 358.732 24.359,352.732 23.165,345.507 22.414 C 343.275 22.182,340.058 21.816,338.357 21.602 C 334.432 21.106,321.602 20.072,317.295 19.903 C 307.350 19.513,295.320 18.877,291.594 18.543 C 289.256 18.333,283.256 17.991,278.261 17.783 C 273.266 17.575,265.700 17.231,261.449 17.018 C 257.198 16.806,249.459 16.456,244.251 16.240 C 239.043 16.024,230.696 15.677,225.700 15.467 C 201.287 14.444,195.281 14.218,179.324 13.719 C 169.865 13.422,156.473 12.999,149.565 12.779 C 115.445 11.688,93.072 11.477,83.269 12.154 M130.355 14.645 C 130.667 14.957,127.353 15.078,118.048 15.093 C 99.692 15.123,82.756 16.087,79.034 17.314 C 78.396 17.525,77.005 17.988,75.942 18.343 C 74.879 18.698,73.488 19.132,72.850 19.306 C 71.303 19.728,66.682 22.193,64.958 23.517 C 64.197 24.101,63.140 24.853,62.609 25.188 C 60.651 26.424,56.970 30.476,56.081 32.374 C 54.924 34.844,55.139 35.755,57.422 38.037 C 59.946 40.561,57.916 40.929,51.888 39.040 C 45.832 37.143,43.348 34.768,44.434 31.913 C 45.633 28.757,55.777 21.569,62.995 18.760 C 64.589 18.140,66.068 17.505,66.282 17.350 C 66.495 17.195,68.121 16.869,69.893 16.626 C 71.666 16.384,73.512 16.035,73.996 15.851 C 74.971 15.480,80.870 14.397,83.285 14.146 C 86.906 13.769,129.935 14.225,130.355 14.645 M133.628 14.952 C 133.258 15.048,132.563 15.052,132.082 14.959 C 131.601 14.867,131.903 14.788,132.754 14.783 C 133.604 14.779,133.997 14.855,133.628 14.952 M170.012 15.626 C 183.537 15.893,183.408 16.619,169.836 16.617 C 156.723 16.616,143.768 16.207,143.768 15.793 C 143.768 15.492,154.596 15.171,158.647 15.352 C 159.710 15.400,164.824 15.523,170.012 15.626 M210.628 17.053 C 214.348 17.284,218.000 17.542,218.744 17.626 C 219.488 17.710,225.401 17.874,231.884 17.990 C 238.367 18.106,245.324 18.371,247.343 18.579 C 249.362 18.787,256.098 19.116,262.312 19.311 C 268.525 19.506,275.569 19.846,277.964 20.066 C 280.359 20.286,285.710 20.567,289.855 20.690 C 294.000 20.813,300.435 21.157,304.155 21.454 C 307.874 21.751,313.353 22.100,316.329 22.230 C 319.304 22.360,323.615 22.716,325.907 23.020 C 328.199 23.325,331.678 23.579,333.636 23.584 C 335.931 23.590,338.220 23.865,340.070 24.357 C 341.650 24.777,343.565 25.121,344.324 25.121 C 345.084 25.121,346.313 25.301,347.056 25.521 C 347.798 25.742,349.536 26.166,350.918 26.464 C 354.595 27.256,357.583 28.153,358.027 28.597 C 358.240 28.811,358.688 28.986,359.020 28.986 C 359.688 28.986,362.023 30.146,363.952 31.437 C 366.583 33.197,366.197 38.699,363.161 42.729 C 360.748 45.932,356.707 49.309,354.589 49.892 C 353.739 50.126,352.870 50.452,352.657 50.617 C 352.444 50.782,350.836 51.038,349.082 51.185 L 345.894 51.454 345.894 50.483 C 345.894 49.826,346.471 48.973,347.678 47.847 C 353.901 42.044,355.843 35.428,352.453 31.577 C 350.908 29.822,347.571 27.948,345.357 27.592 C 344.696 27.486,343.285 27.159,342.222 26.865 C 341.159 26.572,338.812 26.128,337.005 25.879 C 335.198 25.630,332.850 25.283,331.787 25.108 C 330.725 24.934,328.464 24.770,326.763 24.746 C 325.063 24.721,322.889 24.541,321.932 24.345 C 320.976 24.150,316.802 23.807,312.657 23.583 C 308.512 23.359,303.903 22.999,302.415 22.782 C 300.928 22.566,295.091 22.244,289.445 22.068 C 283.800 21.892,278.843 21.573,278.431 21.358 C 278.013 21.141,272.501 20.848,265.979 20.695 C 259.542 20.544,253.195 20.250,251.873 20.041 C 250.550 19.832,246.077 19.588,241.932 19.500 C 227.398 19.189,221.243 18.929,219.710 18.561 C 218.860 18.357,211.382 18.095,203.092 17.980 C 194.802 17.864,187.251 17.669,186.312 17.547 C 179.439 16.652,198.079 16.274,210.628 17.053 M135.430 17.409 C 139.028 17.627,149.637 17.974,159.005 18.181 C 168.374 18.388,177.977 18.712,180.346 18.901 C 182.715 19.090,190.541 19.363,197.737 19.506 C 204.934 19.649,212.647 19.936,214.879 20.142 C 217.111 20.349,224.676 20.679,231.691 20.876 C 238.705 21.073,246.010 21.402,247.923 21.608 C 249.836 21.814,255.488 22.092,260.483 22.225 C 265.478 22.359,272.574 22.717,276.251 23.021 C 279.929 23.326,285.146 23.589,287.845 23.606 C 290.545 23.623,294.232 23.785,296.039 23.966 C 297.845 24.147,302.541 24.487,306.473 24.720 C 310.406 24.954,315.275 25.324,317.295 25.543 C 319.314 25.762,323.474 26.103,326.539 26.302 C 329.605 26.500,333.380 26.924,334.929 27.244 C 336.478 27.564,338.358 27.826,339.106 27.826 C 340.481 27.826,344.726 28.991,346.860 29.955 C 347.498 30.243,348.367 30.582,348.792 30.709 C 350.742 31.291,352.464 33.622,352.464 35.679 C 352.464 40.939,349.622 44.387,343.124 47.011 C 340.887 47.914,339.338 48.308,333.720 49.405 C 330.047 50.122,312.860 50.756,304.611 50.478 C 300.215 50.330,288.879 50.048,279.420 49.850 C 269.961 49.652,259.874 49.305,257.005 49.078 C 254.135 48.851,245.700 48.496,238.261 48.289 C 230.821 48.082,223.169 47.761,221.256 47.576 C 219.343 47.391,212.734 47.122,206.570 46.978 C 200.406 46.834,193.710 46.545,191.691 46.335 C 189.671 46.126,182.802 45.792,176.425 45.593 C 170.048 45.394,163.266 45.065,161.353 44.862 C 159.440 44.659,153.961 44.385,149.179 44.254 C 144.396 44.122,138.983 43.849,137.149 43.648 C 135.315 43.446,129.402 43.109,124.009 42.900 C 118.616 42.690,113.103 42.355,111.760 42.155 C 110.416 41.954,106.416 41.686,102.871 41.559 C 99.326 41.431,93.729 41.074,90.435 40.765 C 87.140 40.456,82.010 40.027,79.034 39.811 C 55.986 38.137,52.587 34.922,64.348 25.916 C 65.198 25.265,66.233 24.472,66.649 24.153 C 67.064 23.835,67.563 23.575,67.758 23.575 C 67.952 23.575,69.113 22.966,70.338 22.222 C 71.563 21.478,72.800 20.870,73.087 20.870 C 73.373 20.870,74.481 20.540,75.548 20.137 C 78.830 18.897,80.738 18.537,87.150 17.946 C 90.551 17.632,93.507 17.306,93.720 17.221 C 94.567 16.881,129.309 17.038,135.430 17.409 M367.142 30.334 C 372.891 33.248,373.638 36.880,370.011 44.293 C 368.563 47.253,364.326 50.478,360.920 51.212 C 360.202 51.367,359.144 51.734,358.570 52.027 C 357.255 52.699,354.268 52.751,354.486 52.098 C 354.570 51.844,355.102 51.513,355.666 51.362 C 358.415 50.627,363.543 45.555,366.184 40.959 C 367.493 38.680,367.313 32.502,365.894 31.020 C 364.085 29.130,364.412 28.951,367.142 30.334 M42.780 32.379 C 42.657 36.718,44.842 38.747,51.981 40.925 C 53.469 41.379,55.121 41.750,55.652 41.750 C 57.446 41.749,58.641 42.204,57.757 42.550 C 56.508 43.039,52.468 42.901,50.821 42.313 C 49.971 42.009,48.493 41.654,47.536 41.524 C 43.947 41.036,39.225 38.709,38.294 36.970 C 37.583 35.642,38.455 33.587,40.685 31.336 C 42.747 29.252,42.867 29.312,42.780 32.379 M40.503 40.924 C 42.132 41.757,44.027 42.439,45.990 42.901 C 52.598 44.454,60.554 45.544,68.293 45.958 C 71.255 46.116,73.877 46.369,74.119 46.518 C 74.362 46.668,78.349 46.956,82.981 47.157 C 87.612 47.358,92.618 47.704,94.106 47.924 C 95.594 48.145,102.051 48.472,108.454 48.651 C 114.858 48.831,120.271 49.084,120.483 49.215 C 120.695 49.347,127.456 49.633,135.507 49.853 C 143.558 50.072,151.971 50.426,154.203 50.638 C 156.435 50.850,162.783 51.116,168.309 51.228 C 173.836 51.340,182.010 51.687,186.473 52.000 C 190.937 52.312,200.937 52.753,208.696 52.980 C 216.454 53.207,224.541 53.536,226.667 53.711 C 228.792 53.886,234.095 54.046,238.450 54.068 C 242.805 54.089,250.370 54.369,255.261 54.690 C 260.153 55.010,271.285 55.460,280.000 55.690 C 288.715 55.919,298.454 56.245,301.643 56.414 C 309.640 56.838,334.162 56.839,338.164 56.415 C 339.971 56.223,343.718 55.889,346.490 55.672 C 349.262 55.455,352.393 55.015,353.446 54.696 C 354.500 54.376,355.784 54.113,356.299 54.110 C 357.369 54.106,362.904 52.282,363.459 51.752 C 363.661 51.559,364.108 51.401,364.452 51.401 C 365.123 51.401,368.035 49.304,370.242 47.232 L 371.594 45.962 371.726 47.232 C 371.799 47.931,371.667 51.546,371.434 55.266 C 371.200 58.986,370.836 67.855,370.624 74.976 C 370.413 82.097,370.070 91.575,369.863 96.039 C 369.656 100.502,369.306 109.633,369.084 116.329 C 368.863 123.024,368.595 129.459,368.488 130.628 C 368.382 131.797,368.127 138.145,367.923 144.734 C 367.719 151.324,367.291 162.802,366.973 170.242 C 366.654 177.681,366.213 188.812,365.992 194.976 C 365.772 201.140,365.425 210.357,365.222 215.459 C 365.020 220.560,364.768 227.082,364.664 229.952 C 364.150 244.055,363.221 267.508,362.688 279.807 C 362.361 287.353,361.927 298.831,361.723 305.314 C 361.004 328.138,360.603 333.039,359.209 336.039 C 358.715 337.101,358.192 338.493,358.047 339.130 C 357.902 339.768,357.282 340.932,356.670 341.716 C 356.057 342.501,355.552 343.284,355.547 343.456 C 355.500 345.197,346.462 351.685,344.071 351.693 C 343.692 351.695,342.860 352.041,342.222 352.464 C 341.585 352.886,340.628 353.239,340.097 353.248 C 339.565 353.257,338.696 353.513,338.164 353.816 C 337.633 354.120,336.742 354.375,336.186 354.382 C 335.629 354.390,334.122 354.732,332.838 355.142 C 328.708 356.462,278.449 356.488,265.894 355.177 C 264.087 354.989,258.174 354.719,252.754 354.579 C 247.333 354.439,241.855 354.162,240.580 353.964 C 239.304 353.767,234.346 353.438,229.562 353.235 C 224.777 353.031,218.604 352.601,215.844 352.278 C 213.084 351.955,209.086 351.687,206.959 351.681 C 204.832 351.676,202.333 351.497,201.405 351.283 C 200.478 351.069,196.217 350.642,191.937 350.334 C 187.657 350.026,183.111 349.598,181.836 349.382 C 180.560 349.166,178.300 348.986,176.812 348.981 C 175.324 348.975,172.628 348.707,170.821 348.383 C 169.014 348.060,165.362 347.636,162.705 347.441 C 160.048 347.246,157.005 346.915,155.942 346.706 C 154.879 346.497,152.792 346.313,151.304 346.297 C 149.816 346.280,147.382 346.004,145.894 345.683 C 144.406 345.361,141.449 345.006,139.324 344.893 C 137.198 344.781,134.589 344.452,133.527 344.162 C 132.464 343.873,129.700 343.528,127.385 343.396 C 125.070 343.265,122.868 342.992,122.492 342.791 C 122.117 342.590,119.750 342.267,117.233 342.074 C 114.716 341.880,112.195 341.541,111.630 341.319 C 111.065 341.097,109.065 340.802,107.185 340.664 C 105.306 340.525,103.159 340.251,102.415 340.053 C 101.671 339.856,99.283 339.521,97.108 339.309 C 94.932 339.096,92.693 338.748,92.131 338.534 C 91.569 338.321,89.784 338.049,88.164 337.930 C 86.543 337.811,84.783 337.555,84.251 337.361 C 83.365 337.037,79.818 336.468,72.271 335.440 C 69.676 335.086,66.131 334.074,62.218 332.570 C 57.256 330.662,50.415 325.123,49.558 322.319 C 49.331 321.575,49.046 316.618,48.926 311.304 C 48.805 305.990,48.520 300.686,48.291 299.517 C 48.063 298.348,47.720 290.435,47.529 281.932 C 47.338 273.430,46.995 265.430,46.766 264.155 C 46.538 262.879,46.272 255.747,46.176 248.305 C 46.077 240.620,45.818 233.941,45.577 232.846 C 45.342 231.776,45.015 223.869,44.843 215.072 C 44.635 204.401,44.380 198.785,44.064 197.874 C 43.747 196.961,43.492 191.251,43.279 180.290 C 43.085 170.280,42.802 163.639,42.542 162.964 C 42.296 162.324,42.039 157.515,41.923 151.370 C 41.616 135.141,41.395 129.410,41.011 127.729 C 40.817 126.879,40.539 119.314,40.393 110.918 C 40.247 102.522,40.064 94.957,39.985 94.106 C 39.907 93.256,39.661 90.647,39.439 88.309 C 39.216 85.971,39.029 77.449,39.022 69.372 C 39.013 59.016,38.845 53.319,38.450 50.048 C 37.309 40.589,37.571 39.425,40.503 40.924 M69.903 40.607 C 70.385 40.628,70.352 40.711,69.758 40.966 C 68.713 41.415,66.570 41.436,66.301 40.999 C 65.983 40.486,66.882 40.198,68.164 40.403 C 68.775 40.500,69.558 40.592,69.903 40.607 M83.382 42.402 C 82.797 42.491,81.841 42.491,81.256 42.402 C 80.671 42.314,81.150 42.241,82.319 42.241 C 83.488 42.241,83.966 42.314,83.382 42.402 M73.237 43.671 C 73.392 43.922,71.574 44.058,68.065 44.058 C 64.875 44.058,62.556 43.899,62.415 43.671 C 62.261 43.421,64.079 43.285,67.587 43.285 C 70.777 43.285,73.096 43.444,73.237 43.671 M93.913 44.875 C 95.507 45.086,100.986 45.428,106.087 45.635 C 117.989 46.118,120.852 46.503,115.556 46.909 C 110.904 47.265,96.704 46.657,95.576 46.053 C 95.019 45.755,92.148 45.604,87.030 45.604 C 79.293 45.604,76.908 45.410,76.908 44.783 C 76.908 44.324,90.296 44.397,93.913 44.875 M141.836 47.483 L 143.575 47.760 141.449 48.031 C 138.615 48.393,129.329 48.385,128.437 48.019 C 128.023 47.850,129.411 47.641,131.787 47.515 C 137.980 47.188,139.940 47.182,141.836 47.483 M246.867 50.518 C 246.286 50.606,245.243 50.608,244.548 50.522 C 243.853 50.436,244.329 50.363,245.604 50.361 C 246.879 50.359,247.448 50.430,246.867 50.518 M340.328 50.747 C 339.923 51.001,339.319 51.512,338.986 51.884 C 338.317 52.629,330.162 52.833,326.570 52.194 C 324.482 51.822,324.501 51.813,327.923 51.574 C 333.430 51.189,335.304 50.962,335.858 50.612 C 336.170 50.415,337.469 50.261,338.744 50.270 C 340.696 50.284,340.946 50.360,340.328 50.747 M282.978 52.075 C 281.428 52.148,278.993 52.148,277.568 52.074 C 276.142 51.999,277.411 51.939,280.386 51.940 C 283.362 51.941,284.529 52.001,282.978 52.075 M350.725 53.333 C 350.864 53.559,350.471 53.720,349.781 53.720 C 349.131 53.720,348.599 53.546,348.599 53.333 C 348.599 53.121,349.024 52.947,349.542 52.947 C 350.061 52.947,350.593 53.121,350.725 53.333 M168.617 321.949 C 168.148 322.132,167.405 322.985,166.966 323.846 C 166.527 324.706,166.022 325.411,165.843 325.411 C 164.983 325.411,160.264 333.106,160.759 333.703 C 162.478 335.774,166.813 332.235,169.171 326.834 C 169.548 325.971,169.860 325.770,170.671 325.867 L 171.695 325.990 171.624 330.303 C 171.539 335.498,171.012 335.076,178.100 335.485 C 181.217 335.666,184.587 335.923,185.587 336.056 C 187.048 336.252,187.704 336.133,188.915 335.452 L 190.424 334.604 192.004 335.649 C 193.517 336.651,193.828 336.700,199.365 336.817 C 202.545 336.885,205.496 337.127,205.924 337.356 C 206.833 337.842,217.387 338.395,218.833 338.032 C 219.518 337.860,220.006 337.311,220.441 336.225 C 222.077 332.137,218.137 329.825,209.082 329.559 C 207.021 329.499,205.411 329.286,205.411 329.074 C 205.411 328.605,212.348 328.573,216.678 329.022 C 220.222 329.390,221.640 328.737,221.174 326.952 C 220.777 325.435,210.992 324.130,207.339 325.107 C 205.868 325.500,205.541 325.473,204.914 324.906 C 202.934 323.115,201.983 324.193,201.915 328.305 C 201.832 333.372,201.546 333.718,197.789 333.293 C 194.271 332.895,193.983 332.499,193.973 328.048 C 193.964 323.743,193.676 323.243,191.422 323.609 C 190.547 323.751,189.783 323.659,189.434 323.369 C 189.042 323.044,186.729 322.879,181.935 322.835 C 178.123 322.799,174.541 322.596,173.975 322.383 C 172.437 321.804,169.582 321.573,168.617 321.949 M177.559 326.142 C 177.787 326.511,175.709 326.862,174.585 326.644 C 174.210 326.571,174.003 326.351,174.124 326.154 C 174.407 325.697,177.277 325.686,177.559 326.142 M190.529 327.803 C 190.532 329.236,190.058 329.408,188.014 328.714 C 187.045 328.385,185.749 328.116,185.132 328.116 C 184.516 328.116,183.522 327.923,182.924 327.687 C 181.190 327.003,182.750 326.620,186.954 326.698 L 190.527 326.763 190.529 327.803 M180.032 330.444 C 181.636 330.864,183.600 331.208,184.398 331.208 C 185.848 331.208,186.639 331.713,185.902 332.169 C 185.205 332.600,176.465 331.606,175.889 331.030 C 175.186 330.328,175.640 329.114,176.484 329.438 C 176.832 329.571,178.429 330.024,180.032 330.444 M207.380 331.760 C 207.814 332.064,209.288 332.435,210.655 332.584 C 216.331 333.203,215.174 334.382,209.344 333.919 C 205.704 333.629,204.996 333.288,205.398 332.020 C 205.700 331.069,206.285 330.993,207.380 331.760 M68.536 336.440 C 69.421 336.553,72.145 336.979,74.589 337.387 C 84.272 339.002,84.027 338.964,94.493 340.477 C 96.193 340.722,99.086 341.184,100.920 341.503 C 102.755 341.822,105.538 342.225,107.104 342.399 C 108.670 342.572,111.343 342.905,113.043 343.139 C 116.337 343.591,120.273 344.095,125.604 344.746 C 127.411 344.967,130.019 345.327,131.401 345.548 C 132.783 345.768,135.902 346.112,138.333 346.312 C 140.764 346.512,143.424 346.856,144.244 347.077 C 145.063 347.298,148.031 347.638,150.838 347.832 C 153.645 348.027,156.499 348.351,157.180 348.554 C 157.860 348.756,160.208 349.030,162.397 349.162 C 164.586 349.295,168.464 349.654,171.014 349.959 C 176.776 350.648,182.602 351.202,189.372 351.704 C 192.242 351.917,195.807 352.273,197.295 352.495 C 198.783 352.718,203.252 353.058,207.226 353.251 C 211.200 353.444,215.631 353.790,217.073 354.021 C 218.516 354.251,223.351 354.594,227.819 354.784 C 232.287 354.973,237.594 355.308,239.614 355.527 C 241.633 355.747,248.242 356.106,254.300 356.325 C 260.357 356.544,267.631 356.893,270.463 357.099 C 279.018 357.724,329.503 357.779,331.594 357.166 C 332.551 356.885,334.545 356.405,336.027 356.098 C 337.508 355.792,338.891 355.370,339.099 355.162 C 339.308 354.953,340.075 354.783,340.804 354.783 C 344.373 354.783,339.032 362.045,333.720 364.416 C 327.004 367.414,322.884 368.248,313.043 368.603 C 304.249 368.920,286.801 368.581,277.295 367.909 C 273.894 367.668,266.763 367.233,261.449 366.942 C 245.717 366.080,238.614 365.611,232.271 365.014 C 228.976 364.704,224.628 364.356,222.609 364.241 C 220.589 364.126,216.155 363.777,212.754 363.466 C 202.050 362.488,193.214 361.728,188.184 361.355 C 185.512 361.157,183.077 360.906,182.774 360.798 C 182.470 360.690,179.700 360.425,176.618 360.209 C 169.639 359.720,159.983 358.786,154.396 358.059 C 152.058 357.755,148.667 357.408,146.860 357.288 C 143.656 357.075,138.087 356.471,129.082 355.359 C 126.638 355.057,123.681 354.711,122.512 354.589 C 116.739 353.990,100.963 351.871,97.778 351.268 C 96.609 351.046,94.087 350.625,92.174 350.331 C 81.816 348.744,73.035 345.741,68.762 342.323 C 65.967 340.087,64.107 335.151,66.390 336.027 C 66.686 336.141,67.651 336.326,68.536 336.440 " stroke="none" fill="#000000" fill-rule="evenodd"></path></g></svg>