<svg xmlns="http://www.w3.org/2000/svg" width="337" height="391" viewBox="0 0 337 391" version="1.1"><path d="M 123.750 17.689 C 122.168 18.103, 122 19.817, 122 35.573 C 122 46.524, 122.372 53, 123 53 C 123.627 53, 124 46.686, 124 36.059 C 124 26.741, 124.384 18.881, 124.854 18.590 C 125.323 18.300, 127.798 19.389, 130.354 21.009 C 132.909 22.630, 135 23.576, 135 23.111 C 135 22.139, 127.432 16.941, 126.271 17.116 C 125.847 17.180, 124.713 17.438, 123.750 17.689 M 135.385 38 C 135.385 44.875, 135.545 47.688, 135.740 44.250 C 135.936 40.813, 135.936 35.188, 135.740 31.750 C 135.545 28.313, 135.385 31.125, 135.385 38 M 274.076 36.924 C 272.993 38.007, 271.338 40.380, 270.399 42.197 C 269.460 44.014, 257.806 63.275, 244.501 85 C 201.224 155.665, 192.713 170.114, 192.444 173.377 C 192.303 175.095, 192.086 176.950, 191.963 177.500 C 191.840 178.050, 192.346 179.963, 193.089 181.750 C 195.203 186.840, 200.613 185.945, 202.435 180.203 C 202.892 178.764, 203.941 178, 205.460 178 C 206.755 178, 208.081 177.224, 208.452 176.250 C 208.986 174.847, 208.869 174.748, 207.859 175.750 C 207.167 176.438, 205.999 177, 205.265 177 C 204.240 177, 204.178 176.536, 205 175 C 205.589 173.900, 205.872 173, 205.631 173 C 205.389 173, 203.794 175.475, 202.087 178.500 C 200.380 181.525, 198.496 184, 197.902 184 C 196.523 184, 193.077 179.906, 193.033 178.215 C 193.015 177.508, 193.732 175.813, 194.626 174.448 C 196.128 172.156, 196.128 172.014, 194.626 172.590 C 193.732 172.933, 193 172.950, 193 172.628 C 193 172.305, 201.257 158.419, 211.349 141.771 C 259.329 62.618, 273.106 40.508, 274.379 40.618 C 275.239 40.692, 275.563 40.045, 275.255 38.868 C 274.904 37.523, 275.304 37, 276.685 37 C 278.993 37, 286.129 49.573, 284.500 50.767 C 283.950 51.170, 283.455 52.175, 283.400 53 C 283.346 53.825, 273.507 71.600, 261.536 92.500 C 249.566 113.400, 233.920 140.742, 226.767 153.261 C 216.766 170.764, 213.220 176.158, 211.416 176.610 C 209.240 177.157, 207.178 180.511, 208.317 181.651 C 208.592 181.926, 209.113 181.218, 209.475 180.078 C 209.837 178.938, 211.116 177.748, 212.317 177.434 C 214.673 176.818, 221.840 164.792, 263.480 91.585 C 288.465 47.659, 287.522 50.159, 282.408 41.433 C 278.962 35.553, 276.681 34.319, 274.076 36.924 M 127.310 46.500 C 127.315 49.800, 127.502 51.029, 127.725 49.232 C 127.947 47.435, 127.943 44.735, 127.715 43.232 C 127.486 41.729, 127.304 43.200, 127.310 46.500 M 35.413 50.553 C 34.597 52.507, 33.715 55.545, 33.455 57.303 C 32.962 60.627, 33.109 60.353, 35.689 53.142 C 36.808 50.014, 37.491 49.167, 38.109 50.142 C 38.780 51.201, 38.973 51.115, 38.985 49.750 C 39.032 44.381, 41.774 51.475, 52.028 83.500 C 58.280 103.025, 63.711 119, 64.097 119 C 64.482 119, 63.536 115.063, 61.994 110.250 C 54.794 87.780, 42.813 51.272, 41.975 49.250 C 40.506 45.705, 37.161 46.370, 35.413 50.553 M 122.413 72.500 C 122.414 82.400, 122.564 86.315, 122.746 81.199 C 122.928 76.084, 122.927 67.984, 122.744 63.199 C 122.561 58.415, 122.412 62.600, 122.413 72.500 M 136.389 69.500 C 136.390 76.650, 136.550 79.444, 136.742 75.708 C 136.935 71.973, 136.934 66.123, 136.739 62.708 C 136.545 59.294, 136.387 62.350, 136.389 69.500 M 274 62 C 273.411 63.100, 273.155 64, 273.430 64 C 273.705 64, 274.411 63.100, 275 62 C 275.589 60.900, 275.845 60, 275.570 60 C 275.295 60, 274.589 60.900, 274 62 M 34.137 68.618 C 44.557 109.685, 58.560 161.402, 60.276 165.157 L 62.403 169.814 67.683 169.269 C 70.931 168.934, 73.487 169.159, 74.324 169.854 C 75.392 170.740, 75.936 170.435, 76.843 168.445 C 78.835 164.073, 78.163 160.060, 72.444 142.193 C 65.922 121.817, 65.104 119.563, 64.463 120.203 C 64.199 120.468, 66.857 129.340, 70.371 139.920 C 75.571 155.578, 76.487 159.260, 75.296 159.717 C 74.099 160.176, 74.076 160.433, 75.166 161.124 C 76.158 161.752, 75.987 161.991, 74.500 162.055 L 72.500 162.141 74.500 163 C 75.600 163.473, 75.938 163.891, 75.250 163.930 C 74.563 163.968, 74 164.900, 74 166 C 74 167.467, 73.333 168, 71.500 168 C 68.738 168, 68.354 167.096, 70.250 165.053 C 71.053 164.188, 71.084 163.940, 70.335 164.360 C 69.695 164.719, 68.941 164.548, 68.660 163.981 C 68.380 163.414, 68.264 163.516, 68.403 164.208 C 68.614 165.258, 64.052 168.593, 63.534 167.768 C 60.044 162.208, 54 143.954, 54 138.975 C 54 137.874, 53.554 136.191, 53.009 135.236 C 52.049 133.554, 50.102 126.313, 38.969 83 C 36.071 71.725, 33.348 62.103, 32.918 61.618 C 32.489 61.134, 33.037 64.284, 34.137 68.618 M 270.500 68 C 269.647 69.650, 269.174 71, 269.449 71 C 269.724 71, 270.647 69.650, 271.500 68 C 272.353 66.350, 272.826 65, 272.551 65 C 272.276 65, 271.353 66.350, 270.500 68 M 127.286 73.500 C 127.294 76.250, 127.488 77.256, 127.718 75.736 C 127.947 74.216, 127.941 71.966, 127.704 70.736 C 127.467 69.506, 127.279 70.750, 127.286 73.500 M 267 74 C 266.411 75.100, 266.155 76, 266.430 76 C 266.705 76, 267.411 75.100, 268 74 C 268.589 72.900, 268.845 72, 268.570 72 C 268.295 72, 267.589 72.900, 267 74 M 263 81 C 262.411 82.100, 262.155 83, 262.430 83 C 262.705 83, 263.411 82.100, 264 81 C 264.589 79.900, 264.845 79, 264.570 79 C 264.295 79, 263.589 79.900, 263 81 M 260 86 C 259.411 87.100, 259.155 88, 259.430 88 C 259.705 88, 260.411 87.100, 261 86 C 261.589 84.900, 261.845 84, 261.570 84 C 261.295 84, 260.589 84.900, 260 86 M 137.385 101 C 137.385 107.875, 137.545 110.688, 137.740 107.250 C 137.936 103.813, 137.936 98.188, 137.740 94.750 C 137.545 91.313, 137.385 94.125, 137.385 101 M 138 124.622 C 138 127.929, 137.847 128.125, 136.250 126.872 C 134.633 125.604, 134.614 125.644, 136 127.398 C 137 128.663, 137.690 132.661, 138.069 139.398 L 138.638 149.500 138.819 135.250 C 138.919 127.412, 138.775 121, 138.500 121 C 138.225 121, 138 122.630, 138 124.622 M 131.079 127.250 C 131.132 128.753, 131.347 129.002, 131.729 128 C 132.043 127.175, 132.795 126.169, 133.400 125.765 C 134.078 125.312, 133.829 125.025, 132.750 125.015 C 131.574 125.005, 131.026 125.738, 131.079 127.250 M 121.763 142.748 C 122.251 162.658, 122.621 164.599, 122.811 148.250 C 122.915 139.313, 122.662 131.999, 122.250 131.998 C 121.838 131.997, 121.619 136.834, 121.763 142.748 M 131.252 139.500 C 131.263 141.700, 131.468 142.482, 131.707 141.238 C 131.946 139.994, 131.937 138.194, 131.687 137.238 C 131.437 136.282, 131.241 137.300, 131.252 139.500 M 58.447 142.969 C 59.191 147.338, 61 149.409, 61 145.891 C 61 144.511, 60.293 142.509, 59.428 141.441 C 57.943 139.607, 57.889 139.691, 58.447 142.969 M 134 145.441 C 134 146.848, 134.450 148, 135 148 C 135.550 148, 136 147.127, 136 146.059 C 136 144.991, 135.550 143.840, 135 143.500 C 134.433 143.149, 134 143.990, 134 145.441 M 128.300 151 C 128.300 154.025, 128.487 155.262, 128.716 153.750 C 128.945 152.238, 128.945 149.762, 128.716 148.250 C 128.487 146.738, 128.300 147.975, 128.300 151 M 60.531 150.500 C 60.789 151.325, 61.240 152.750, 61.533 153.667 C 61.908 154.841, 62.379 155.021, 63.125 154.275 C 63.872 153.528, 63.852 152.592, 63.057 151.107 C 61.770 148.702, 59.824 148.234, 60.531 150.500 M 133.882 150.250 C 133.716 151.992, 134.002 154.231, 134.615 156 C 135.504 158.567, 137.158 154.479, 136.420 151.538 C 135.760 148.907, 134.089 148.059, 133.882 150.250 M 207 152 C 206.411 153.100, 206.155 154, 206.430 154 C 206.705 154, 207.411 153.100, 208 152 C 208.589 150.900, 208.845 150, 208.570 150 C 208.295 150, 207.589 150.900, 207 152 M 138.373 156.660 C 137.447 160.652, 137.487 161.055, 138.646 159.469 C 139.772 157.930, 140.630 152, 139.727 152 C 139.577 152, 138.968 154.097, 138.373 156.660 M 214.500 157 C 213.647 158.650, 213.174 160, 213.449 160 C 213.724 160, 214.647 158.650, 215.500 157 C 216.353 155.350, 216.826 154, 216.551 154 C 216.276 154, 215.353 155.350, 214.500 157 M 204 157 C 203.411 158.100, 203.155 159, 203.430 159 C 203.705 159, 204.411 158.100, 205 157 C 205.589 155.900, 205.845 155, 205.570 155 C 205.295 155, 204.589 155.900, 204 157 M 206.061 158.886 C 205.427 160.071, 205.180 161.482, 205.513 162.021 C 205.846 162.559, 205.432 163, 204.594 163 C 202.619 163, 200.979 166.119, 201.079 169.684 C 201.123 171.253, 201.402 171.836, 201.709 171 C 202.013 170.175, 202.803 168.825, 203.466 168 C 206.693 163.981, 208.835 159.351, 208.053 158.085 C 207.398 157.027, 206.962 157.202, 206.061 158.886 M 210.500 164 C 209.647 165.650, 209.174 167, 209.449 167 C 209.724 167, 210.647 165.650, 211.500 164 C 212.353 162.350, 212.826 161, 212.551 161 C 212.276 161, 211.353 162.350, 210.500 164 M 135 166.559 C 135 167.416, 135.450 167.840, 136 167.500 C 136.550 167.160, 137 166.459, 137 165.941 C 137 165.423, 136.550 165, 136 165 C 135.450 165, 135 165.702, 135 166.559 M 197 169 C 196.411 170.100, 196.155 171, 196.430 171 C 196.705 171, 197.411 170.100, 198 169 C 198.589 167.900, 198.845 167, 198.570 167 C 198.295 167, 197.589 167.900, 197 169 M 122.032 169.451 C 122.103 171.812, 124.850 173.995, 127.610 173.884 C 129.299 173.816, 129.772 173.578, 128.750 173.311 C 127.787 173.059, 127 172.211, 127 171.427 C 127 169.435, 128.372 169.649, 130.469 171.966 C 131.448 173.048, 133.205 173.835, 134.374 173.716 C 136.366 173.514, 136.510 173.988, 136.654 181.250 C 136.774 187.309, 136.501 189, 135.404 189 C 134.632 189, 134 188.662, 133.999 188.250 C 133.999 187.838, 131.953 187.368, 129.453 187.207 C 126.953 187.046, 111.094 184.458, 94.212 181.457 C 77.329 178.456, 63.400 176, 63.258 176 C 63.116 176, 62.939 174.762, 62.864 173.250 C 62.741 170.777, 62.683 170.735, 62.284 172.829 C 61.872 174.991, 61.433 175.134, 56.170 174.829 L 50.500 174.500 50.359 178 C 50.245 180.845, 50.306 180.964, 50.686 178.637 L 51.155 175.774 54.312 178.637 C 56.048 180.212, 56.687 180.563, 55.732 179.419 C 53.692 176.974, 54.345 175.973, 57.917 176.070 C 60.280 176.135, 60.330 176.218, 58.500 177.051 C 57.110 177.684, 58.024 177.812, 61.500 177.473 C 65.320 177.099, 66.028 177.226, 64.500 178.007 C 62.809 178.872, 62.942 178.944, 65.355 178.470 C 66.926 178.161, 70.301 178.234, 72.855 178.632 C 76.977 179.274, 77.218 179.444, 75 180.142 C 73.230 180.700, 73.668 180.785, 76.500 180.434 C 78.965 180.129, 90.094 181.702, 105.500 184.535 C 137.939 190.499, 142.768 191.262, 144.260 190.659 C 144.942 190.383, 144.064 190.122, 142.309 190.079 C 140.554 190.036, 138.876 189.609, 138.581 189.131 C 138.286 188.653, 137.981 183.591, 137.903 177.881 C 137.809 170.955, 137.480 168.249, 136.913 169.750 C 135.940 172.330, 131.935 172.832, 130.087 170.605 C 128.683 168.913, 121.986 167.953, 122.032 169.451 M 207 170 C 206.411 171.100, 206.155 172, 206.430 172 C 206.705 172, 207.411 171.100, 208 170 C 208.589 168.900, 208.845 168, 208.570 168 C 208.295 168, 207.589 168.900, 207 170 M 211 170 C 210.411 171.100, 210.155 172, 210.430 172 C 210.705 172, 211.411 171.100, 212 170 C 212.589 168.900, 212.845 168, 212.570 168 C 212.295 168, 211.589 168.900, 211 170 M 124.118 180.250 C 124.219 184.738, 124.347 185.064, 125 182.500 C 126.131 178.056, 126.131 175, 125 175 C 124.445 175, 124.053 177.338, 124.118 180.250 M 195.553 176.915 C 195.231 177.436, 195.394 178.125, 195.915 178.447 C 196.436 178.769, 197.125 178.606, 197.447 178.085 C 197.769 177.564, 197.606 176.875, 197.085 176.553 C 196.564 176.231, 195.875 176.394, 195.553 176.915 M 49.417 183.355 C 49.131 184.101, 49.039 187.588, 49.212 191.105 L 49.527 197.500 50.013 189.748 C 50.500 181.990, 50.391 180.817, 49.417 183.355 M 84.750 182.662 C 85.438 182.940, 86.563 182.940, 87.250 182.662 C 87.938 182.385, 87.375 182.158, 86 182.158 C 84.625 182.158, 84.063 182.385, 84.750 182.662 M 206.500 184.066 C 204.642 184.803, 204.668 184.864, 206.856 184.930 C 209.158 184.998, 209.203 185.182, 208.852 192.920 C 208.654 197.277, 208.250 201.083, 207.955 201.379 C 207.659 201.674, 204.736 201.256, 201.458 200.449 C 198.181 199.642, 193.700 198.815, 191.500 198.611 C 189.300 198.407, 185.475 197.899, 183 197.481 C 180.525 197.063, 178.735 196.982, 179.023 197.300 C 179.598 197.937, 180.514 198.148, 193.250 200.584 C 201.567 202.175, 202.003 202.388, 202.063 204.879 L 202.127 207.500 203.061 205.170 C 203.866 203.160, 204.442 202.936, 207.247 203.542 C 209.036 203.927, 210.628 204.573, 210.785 204.976 C 210.942 205.379, 212.179 205.497, 213.535 205.238 C 215.676 204.829, 216.013 205.144, 216.100 207.633 C 216.195 210.381, 216.227 210.399, 216.875 208.083 L 217.551 205.666 219.404 208.493 C 221.216 211.259, 221.198 211.957, 218.580 240.453 C 217.108 256.476, 216.181 270.308, 216.520 271.192 C 216.859 272.075, 216.638 273.106, 216.028 273.483 C 215.295 273.936, 215.143 276.138, 215.578 279.988 C 215.940 283.189, 215.928 286.307, 215.552 286.916 C 214.878 288.006, 213.672 309.241, 213.558 322 C 213.526 325.575, 213.102 328.789, 212.615 329.143 C 211.233 330.145, 212.814 335.008, 214.332 334.426 C 215.722 333.893, 218.011 337.885, 217.985 340.797 C 217.971 342.273, 217.829 342.300, 216.919 341 C 216.109 339.843, 216.023 340.044, 216.542 341.875 C 216.985 343.441, 216.852 344.026, 216.150 343.593 C 214.852 342.791, 212.080 347.951, 212.767 349.889 C 213.051 350.692, 212.813 351.002, 212.202 350.625 C 211.072 349.927, 209.433 353.602, 209.871 355.850 C 210.015 356.593, 209.659 356.907, 209.078 356.548 C 208.415 356.138, 208.268 356.534, 208.681 357.612 C 209.125 358.769, 208.962 359.095, 208.181 358.612 C 207.401 358.130, 207.238 358.456, 207.681 359.612 C 208.164 360.868, 207.985 361.109, 207.015 360.510 C 206.134 359.965, 205.930 360.077, 206.405 360.845 C 206.797 361.480, 206.615 362, 206 362 C 205.385 362, 205.203 362.520, 205.595 363.155 C 206.046 363.884, 205.869 364.037, 205.114 363.570 C 204.446 363.157, 204.178 361.877, 204.507 360.666 C 205.019 358.782, 204.954 358.726, 204.005 360.237 C 203.225 361.481, 203.221 362.544, 203.993 363.987 C 204.768 365.434, 204.763 366, 203.976 366 C 203.374 366, 203.157 366.445, 203.493 366.989 C 203.843 367.555, 203.442 367.723, 202.552 367.382 C 200.316 366.524, 200.674 363.500, 204.015 355.030 C 206.174 349.556, 206.659 347.285, 205.833 346.530 C 205.021 345.788, 204.878 345.990, 205.321 347.250 C 205.660 348.212, 205.522 349, 205.014 349 C 204.506 349, 203.796 350.571, 203.436 352.491 C 203.075 354.411, 202.413 355.755, 201.964 355.478 C 201.515 355.200, 200.859 357.567, 200.506 360.736 C 199.036 373.953, 198.263 377.629, 197.472 375.165 C 196.958 373.565, 196.484 373.217, 195.964 374.058 C 195.411 374.953, 188.667 372.507, 171.103 365.044 C 157.846 359.411, 147 354.434, 147 353.984 C 147 353.534, 147.859 351.163, 148.908 348.714 C 150.278 345.518, 151.559 344.077, 153.449 343.602 C 154.897 343.239, 155.852 342.570, 155.572 342.116 C 155.291 341.662, 156.173 340.247, 157.531 338.971 C 158.889 337.695, 159.998 335.942, 159.996 335.076 C 159.994 334.156, 159.229 334.749, 158.158 336.500 C 157.150 338.150, 155.492 340.175, 154.475 341 C 152.240 342.813, 151.184 345.565, 163.423 317.687 C 168.690 305.689, 173 295.677, 173 295.437 C 173 295.197, 172.550 295, 172 295 C 171.450 295, 171.096 295.337, 171.212 295.750 C 171.329 296.163, 170.895 297.453, 170.248 298.619 C 169.600 299.784, 169.355 301.021, 169.702 301.369 C 170.049 301.716, 169.808 302, 169.167 302 C 168.525 302, 168 302.471, 168 303.046 C 168 303.622, 166.377 307.559, 164.393 311.796 C 162.408 316.033, 160.111 321.185, 159.287 323.244 C 158.462 325.302, 157.433 326.768, 156.999 326.499 C 155.852 325.791, 154.956 328.703, 155.691 330.750 C 156.036 331.712, 155.942 332.158, 155.482 331.740 C 155.022 331.322, 152.723 335.987, 150.372 342.107 C 148.022 348.227, 145.904 353.429, 145.666 353.667 C 145.135 354.199, 107.175 338.084, 99.819 334.204 C 96.894 332.661, 86.400 326.657, 76.500 320.862 C 66.600 315.067, 55.031 308.373, 50.790 305.987 L 43.081 301.648 42.739 294.574 L 42.397 287.500 42.224 295 L 42.050 302.500 72.275 319.824 C 97.244 334.135, 106.413 338.789, 125 346.587 C 137.375 351.779, 148.400 356.459, 149.500 356.987 C 150.600 357.516, 157.350 360.474, 164.500 363.561 C 171.650 366.647, 182.084 371.159, 187.686 373.587 C 193.289 376.014, 198.270 378, 198.756 378 C 200.026 378, 219 341.626, 219 339.191 C 219 338.070, 217.937 335.881, 216.638 334.327 C 214.645 331.943, 214.333 330.639, 214.646 326 C 214.850 322.975, 215.674 310.825, 216.477 299 C 217.280 287.175, 218.915 262.366, 220.111 243.870 L 222.284 210.239 219.523 206.620 C 218.005 204.629, 215.953 203, 214.963 203 C 210.458 203, 210.001 202.140, 209.985 193.643 C 209.967 184.453, 209.407 182.913, 206.500 184.066 M 148.193 191.935 C 149.675 192.409, 153.275 193.050, 156.193 193.360 C 160.486 193.815, 160.834 193.754, 158.016 193.040 C 152.914 191.747, 144.728 190.826, 148.193 191.935 M 168 195.573 C 171.575 196.306, 175.400 196.874, 176.500 196.834 C 177.600 196.794, 175.575 196.161, 172 195.427 C 168.425 194.694, 164.600 194.126, 163.500 194.166 C 162.400 194.206, 164.425 194.839, 168 195.573 M 48.320 204 C 48.320 207.575, 48.502 209.037, 48.723 207.250 C 48.945 205.463, 48.945 202.537, 48.723 200.750 C 48.502 198.963, 48.320 200.425, 48.320 204 M 209.624 208.539 C 208.659 211.053, 208.943 211.702, 210.122 209.675 C 210.706 208.671, 210.973 207.639, 210.715 207.382 C 210.458 207.124, 209.966 207.645, 209.624 208.539 M 212.195 212.500 C 212.215 214.150, 212.439 214.704, 212.693 213.731 C 212.947 212.758, 212.930 211.408, 212.656 210.731 C 212.382 210.054, 212.175 210.850, 212.195 212.500 M 54.863 215.750 C 54.674 222.289, 54.707 223.079, 55.308 226.500 C 55.598 228.150, 55.873 230.063, 55.918 230.750 C 56.115 233.745, 58 231.654, 58 228.441 C 58 226.114, 57.620 225.117, 56.904 225.560 C 56.122 226.043, 56.012 224.050, 56.521 218.619 C 57.024 213.246, 56.905 211, 56.117 211 C 55.470 211, 54.942 212.999, 54.863 215.750 M 47.328 219.500 C 47.333 223.350, 47.513 224.802, 47.730 222.728 C 47.946 220.653, 47.943 217.503, 47.722 215.728 C 47.501 213.952, 47.324 215.650, 47.328 219.500 M 206.624 215.539 C 205.659 218.053, 205.943 218.702, 207.122 216.675 C 207.706 215.671, 207.973 214.639, 207.715 214.382 C 207.458 214.124, 206.966 214.645, 206.624 215.539 M 215.195 217.500 C 215.215 219.150, 215.439 219.704, 215.693 218.731 C 215.947 217.758, 215.930 216.408, 215.656 215.731 C 215.382 215.054, 215.175 215.850, 215.195 217.500 M 88 219.500 C 89.292 220.875, 90.574 222, 90.849 222 C 91.124 222, 90.292 220.875, 89 219.500 C 87.708 218.125, 86.426 217, 86.151 217 C 85.876 217, 86.708 218.125, 88 219.500 M 100 220 C 97.628 223.331, 98.276 223.940, 101.328 221.250 C 103.244 219.562, 103.294 219.578, 102.758 221.724 C 102.276 223.647, 102.694 224.032, 105.851 224.577 C 107.858 224.924, 111.428 225.836, 113.785 226.604 C 120.505 228.793, 124.248 228.209, 121.869 225.342 C 121.015 224.313, 121.134 224, 122.378 224 C 125.505 224, 123.961 222.233, 119.941 221.213 C 116.113 220.241, 115.827 220.324, 114.942 222.651 C 113.785 225.696, 111.612 224.682, 112.417 221.473 C 112.943 219.381, 112.525 219.064, 107.949 218.083 C 105.173 217.487, 102.729 217, 102.519 217 C 102.308 217, 101.175 218.350, 100 220 M 211.252 222.500 C 211.263 224.700, 211.468 225.482, 211.707 224.238 C 211.946 222.994, 211.937 221.194, 211.687 220.238 C 211.437 219.282, 211.241 220.300, 211.252 222.500 M 203.624 222.539 C 202.659 225.053, 202.943 225.702, 204.122 223.675 C 204.706 222.671, 204.973 221.639, 204.715 221.382 C 204.458 221.124, 203.966 221.645, 203.624 222.539 M 95 228 C 97.302 230.750, 99.411 233, 99.686 233 C 99.961 233, 98.302 230.750, 96 228 C 93.698 225.250, 91.589 223, 91.314 223 C 91.039 223, 92.698 225.250, 95 228 M 214.195 226.500 C 214.215 228.150, 214.439 228.704, 214.693 227.731 C 214.947 226.758, 214.930 225.408, 214.656 224.731 C 214.382 224.054, 214.175 224.850, 214.195 226.500 M 46.682 227.750 C 46.441 228.162, 46.014 234.575, 45.731 242 C 45.448 249.425, 45.402 254.150, 45.629 252.500 C 46.166 248.597, 47.608 227, 47.331 227 C 47.214 227, 46.922 227.338, 46.682 227.750 M 53.158 230 C 53.158 231.375, 53.385 231.938, 53.662 231.250 C 53.940 230.563, 53.940 229.438, 53.662 228.750 C 53.385 228.063, 53.158 228.625, 53.158 230 M 210.272 233 C 210.272 235.475, 210.467 236.488, 210.706 235.250 C 210.944 234.012, 210.944 231.988, 210.706 230.750 C 210.467 229.512, 210.272 230.525, 210.272 233 M 132 232 C 131.175 232.533, 130.950 232.969, 131.500 232.969 C 132.050 232.969, 133.175 232.533, 134 232 C 134.825 231.467, 135.050 231.031, 134.500 231.031 C 133.950 231.031, 132.825 231.467, 132 232 M 127 234 C 126.175 234.533, 125.950 234.969, 126.500 234.969 C 127.050 234.969, 128.175 234.533, 129 234 C 129.825 233.467, 130.050 233.031, 129.500 233.031 C 128.950 233.031, 127.825 233.467, 127 234 M 101.500 236 C 102.495 237.100, 103.535 238, 103.810 238 C 104.085 238, 103.495 237.100, 102.500 236 C 101.505 234.900, 100.465 234, 100.190 234 C 99.915 234, 100.505 234.900, 101.500 236 M 213.195 236.500 C 213.215 238.150, 213.439 238.704, 213.693 237.731 C 213.947 236.758, 213.930 235.408, 213.656 234.731 C 213.382 234.054, 213.175 234.850, 213.195 236.500 M 57.923 235.750 C 57.881 236.162, 57.696 237.286, 57.513 238.246 C 57.329 239.206, 57.588 240.245, 58.089 240.555 C 58.590 240.865, 59 239.741, 59 238.059 C 59 236.377, 58.775 235, 58.500 235 C 58.225 235, 57.966 235.338, 57.923 235.750 M 122 236 C 121.175 236.533, 120.950 236.969, 121.500 236.969 C 122.050 236.969, 123.175 236.533, 124 236 C 124.825 235.467, 125.050 235.031, 124.500 235.031 C 123.950 235.031, 122.825 235.467, 122 236 M 52.195 239 C 52.215 240.925, 52.438 241.713, 52.689 240.750 C 52.941 239.787, 53.564 239, 54.073 239 C 54.583 239, 54.993 238.213, 54.985 237.250 C 54.973 235.880, 54.782 235.796, 54.106 236.863 C 53.377 238.014, 53.158 238.014, 52.700 236.863 C 52.402 236.113, 52.175 237.075, 52.195 239 M 196.624 238.539 C 195.659 241.053, 195.943 241.702, 197.122 239.675 C 197.706 238.671, 197.973 237.639, 197.715 237.382 C 197.458 237.124, 196.966 237.645, 196.624 238.539 M 209.252 242.500 C 209.263 244.700, 209.468 245.482, 209.707 244.238 C 209.946 242.994, 209.937 241.194, 209.687 240.238 C 209.437 239.282, 209.241 240.300, 209.252 242.500 M 212.195 246.500 C 212.215 248.150, 212.439 248.704, 212.693 247.731 C 212.947 246.758, 212.930 245.408, 212.656 244.731 C 212.382 244.054, 212.175 244.850, 212.195 246.500 M 58.737 245.750 C 58.528 246.162, 58.673 247.850, 59.060 249.500 C 59.752 252.450, 59.765 252.437, 59.882 248.750 C 59.994 245.189, 59.577 244.096, 58.737 245.750 M 189.694 255.102 C 188.234 258.486, 187.282 261.648, 187.579 262.128 C 187.875 262.607, 187.714 263, 187.220 263 C 185.926 263, 183.854 267.955, 184.626 269.203 C 185.034 269.864, 185.618 269.647, 186.193 268.620 C 186.696 267.721, 186.785 266.461, 186.390 265.822 C 185.905 265.037, 186.229 264.874, 187.388 265.319 C 188.407 265.710, 188.856 265.576, 188.493 264.989 C 188.157 264.445, 188.331 264, 188.879 264 C 189.427 264, 189.812 263.155, 189.734 262.122 C 189.656 261.089, 190.689 258.178, 192.028 255.653 C 193.739 252.428, 194.149 250.749, 193.406 250.006 C 192.664 249.264, 191.560 250.779, 189.694 255.102 M 208.252 253.500 C 208.263 255.700, 208.468 256.482, 208.707 255.238 C 208.946 253.994, 208.937 252.194, 208.687 251.238 C 208.437 250.282, 208.241 251.300, 208.252 253.500 M 211.232 256 C 211.232 257.925, 211.438 258.712, 211.689 257.750 C 211.941 256.788, 211.941 255.213, 211.689 254.250 C 211.438 253.287, 211.232 254.075, 211.232 256 M 59.341 255.750 C 59.593 256.163, 60.121 261, 60.513 266.500 C 60.905 272, 61.650 277.175, 62.170 278 C 62.825 279.040, 62.956 278.428, 62.595 276 C 62.309 274.075, 61.771 268.563, 61.400 263.750 C 61.029 258.938, 60.310 255, 59.803 255 C 59.297 255, 59.089 255.338, 59.341 255.750 M 44.328 263.500 C 44.333 267.350, 44.513 268.802, 44.730 266.728 C 44.946 264.653, 44.943 261.503, 44.722 259.728 C 44.501 257.952, 44.324 259.650, 44.328 263.500 M 207.232 264 C 207.232 265.925, 207.438 266.712, 207.689 265.750 C 207.941 264.788, 207.941 263.212, 207.689 262.250 C 207.438 261.288, 207.232 262.075, 207.232 264 M 210.232 266 C 210.232 267.925, 210.438 268.712, 210.689 267.750 C 210.941 266.788, 210.941 265.212, 210.689 264.250 C 210.438 263.288, 210.232 264.075, 210.232 266 M 105.158 269 C 105.158 270.375, 105.385 270.938, 105.662 270.250 C 105.940 269.563, 105.940 268.438, 105.662 267.750 C 105.385 267.063, 105.158 267.625, 105.158 269 M 182.146 272.578 C 180.646 275.872, 180.700 276.356, 182.395 274.789 C 183.162 274.080, 183.610 273.201, 183.389 272.835 C 183.168 272.470, 183.531 271.990, 184.195 271.768 C 185.002 271.499, 185.053 271.150, 184.347 270.714 C 183.767 270.356, 182.777 271.195, 182.146 272.578 M 206.232 274 C 206.232 275.925, 206.438 276.712, 206.689 275.750 C 206.941 274.788, 206.941 273.212, 206.689 272.250 C 206.438 271.288, 206.232 272.075, 206.232 274 M 43.328 278.500 C 43.333 282.350, 43.513 283.802, 43.730 281.728 C 43.946 279.653, 43.943 276.503, 43.722 274.728 C 43.501 272.952, 43.324 274.650, 43.328 278.500 M 209.232 276 C 209.232 277.925, 209.438 278.712, 209.689 277.750 C 209.941 276.788, 209.941 275.212, 209.689 274.250 C 209.438 273.288, 209.232 274.075, 209.232 276 M 179.162 279.543 C 177.487 283.220, 177.807 284.005, 179.618 280.662 C 180.464 279.100, 180.969 277.636, 180.741 277.407 C 180.512 277.179, 179.802 278.140, 179.162 279.543 M 62 282.833 C 62 284.575, 62.410 286, 62.912 286 C 63.414 286, 63.699 284.860, 63.546 283.467 C 63.129 279.670, 62 279.207, 62 282.833 M 205.195 283.500 C 205.215 285.150, 205.439 285.704, 205.693 284.731 C 205.947 283.758, 205.930 282.408, 205.656 281.731 C 205.382 281.054, 205.175 281.850, 205.195 283.500 M 208.232 286 C 208.232 287.925, 208.438 288.712, 208.689 287.750 C 208.941 286.788, 208.941 285.212, 208.689 284.250 C 208.438 283.288, 208.232 284.075, 208.232 286 M 176.211 285.601 C 175.501 286.370, 175.201 287, 175.542 287 C 175.884 287, 175.190 288.575, 174 290.500 C 172.810 292.425, 172.234 294, 172.719 294 C 173.587 294, 178.373 285.023, 177.796 284.480 C 177.633 284.327, 176.920 284.831, 176.211 285.601 M 58 288.969 C 58 289.501, 58.675 289.678, 59.500 289.362 C 60.325 289.045, 61 288.609, 61 288.393 C 61 288.177, 60.325 288, 59.500 288 C 58.675 288, 58 288.436, 58 288.969 M 63 291.392 C 63 293.441, 63.419 294.859, 63.931 294.543 C 64.443 294.226, 64.640 292.747, 64.370 291.256 C 63.627 287.158, 63 287.220, 63 291.392 M 204.195 294.500 C 204.215 296.150, 204.439 296.704, 204.693 295.731 C 204.947 294.758, 204.930 293.408, 204.656 292.731 C 204.382 292.054, 204.175 292.850, 204.195 294.500 M 207.232 296 C 207.232 297.925, 207.438 298.712, 207.689 297.750 C 207.941 296.788, 207.941 295.212, 207.689 294.250 C 207.438 293.288, 207.232 294.075, 207.232 296 M 212.109 297.575 C 211.398 299.541, 211.083 301.416, 211.408 301.742 C 211.734 302.067, 212 301.557, 212 300.608 C 212 299.659, 212.450 299.160, 213 299.500 C 213.583 299.861, 214 298.844, 214 297.059 C 214 293.122, 213.689 293.207, 212.109 297.575 M 63.031 296.500 C 63.031 297.050, 63.467 298.175, 64 299 C 64.533 299.825, 64.969 300.050, 64.969 299.500 C 64.969 298.950, 64.533 297.825, 64 297 C 63.467 296.175, 63.031 295.950, 63.031 296.500 M 203.195 304.500 C 203.215 306.150, 203.439 306.704, 203.693 305.731 C 203.947 304.758, 203.930 303.408, 203.656 302.731 C 203.382 302.054, 203.175 302.850, 203.195 304.500 M 206.252 305.500 C 206.263 307.700, 206.468 308.482, 206.707 307.238 C 206.946 305.994, 206.937 304.194, 206.687 303.238 C 206.437 302.282, 206.241 303.300, 206.252 305.500 M 209 305.859 C 209 306.397, 208.733 307.661, 208.406 308.668 C 207.970 310.011, 208.066 310.145, 208.765 309.169 C 209.473 308.181, 209.880 308.648, 210.347 310.986 C 211.182 315.159, 213.019 313.882, 212.930 309.191 C 212.873 306.216, 212.693 305.888, 212 307.500 C 211.299 309.130, 211.128 309.188, 211.070 307.809 C 210.997 306.039, 209 304.158, 209 305.859 M 103.158 312 C 103.158 313.375, 103.385 313.938, 103.662 313.250 C 103.940 312.563, 103.940 311.438, 103.662 310.750 C 103.385 310.063, 103.158 310.625, 103.158 312 M 202.195 314.500 C 202.215 316.150, 202.439 316.704, 202.693 315.731 C 202.947 314.758, 202.930 313.408, 202.656 312.731 C 202.382 312.054, 202.175 312.850, 202.195 314.500 M 205.195 315.500 C 205.215 317.150, 205.439 317.704, 205.693 316.731 C 205.947 315.758, 205.930 314.408, 205.656 313.731 C 205.382 313.054, 205.175 313.850, 205.195 315.500 M 210.921 318.751 C 211.399 322.202, 211.468 322.272, 211.798 319.628 C 211.995 318.049, 211.762 316.362, 211.279 315.879 C 210.776 315.376, 210.623 316.601, 210.921 318.751 M 209.195 322 C 209.165 325.025, 209.527 328.400, 210 329.500 C 210.732 331.204, 210.859 331.056, 210.856 328.500 C 210.853 326.850, 210.491 323.475, 210.051 321 L 209.250 316.500 209.195 322 M 116 321.559 C 116 322.416, 116.457 322.835, 117.016 322.490 C 117.575 322.144, 117.774 321.443, 117.457 320.931 C 116.600 319.544, 116 319.802, 116 321.559 M 207.161 322.500 C 207.057 324.150, 206.693 326.625, 206.350 328 C 205.874 329.915, 206.009 330.239, 206.928 329.386 C 207.642 328.723, 207.971 326.495, 207.739 323.886 C 207.475 320.917, 207.289 320.469, 207.161 322.500 M 107 322 C 107 322.550, 107.450 323, 108 323 C 108.550 323, 109 322.550, 109 322 C 109 321.450, 108.550 321, 108 321 C 107.450 321, 107 321.450, 107 322 M 201.195 324.500 C 201.215 326.150, 201.439 326.704, 201.693 325.731 C 201.947 324.758, 201.930 323.408, 201.656 322.731 C 201.382 322.054, 201.175 322.850, 201.195 324.500 M 204.252 325.500 C 204.263 327.700, 204.468 328.482, 204.707 327.238 C 204.946 325.994, 204.937 324.194, 204.687 323.238 C 204.437 322.282, 204.241 323.300, 204.252 325.500 M 125 329.441 C 125 330.298, 125.450 331, 126 331 C 126.550 331, 127 330.577, 127 330.059 C 127 329.541, 126.550 328.840, 126 328.500 C 125.450 328.160, 125 328.584, 125 329.441 M 203.232 335 C 203.232 336.925, 203.438 337.712, 203.689 336.750 C 203.941 335.788, 203.941 334.212, 203.689 333.250 C 203.438 332.288, 203.232 333.075, 203.232 335 M 210.624 335.539 C 209.659 338.053, 209.943 338.702, 211.122 336.675 C 211.706 335.671, 211.973 334.639, 211.715 334.382 C 211.458 334.124, 210.966 334.645, 210.624 335.539 M 211.624 340.539 C 210.659 343.053, 210.943 343.702, 212.122 341.675 C 212.706 340.671, 212.973 339.639, 212.715 339.382 C 212.458 339.124, 211.966 339.645, 211.624 340.539 M 158 341 C 157.175 341.533, 156.950 341.969, 157.500 341.969 C 158.050 341.969, 159.175 341.533, 160 341 C 160.825 340.467, 161.050 340.031, 160.500 340.031 C 159.950 340.031, 158.825 340.467, 158 341 M 199.195 344.500 C 199.215 346.150, 199.439 346.704, 199.693 345.731 C 199.947 344.758, 199.930 343.408, 199.656 342.731 C 199.382 342.054, 199.175 342.850, 199.195 344.500 M 206.015 343.191 C 206.007 344.121, 206.450 345.160, 207 345.500 C 208.266 346.282, 208.266 344.958, 207 343 C 206.165 341.707, 206.029 341.734, 206.015 343.191 M 209.624 345.539 C 208.659 348.053, 208.943 348.702, 210.122 346.675 C 210.706 345.671, 210.973 344.639, 210.715 344.382 C 210.458 344.124, 209.966 344.645, 209.624 345.539 M 207.624 350.539 C 206.659 353.053, 206.943 353.702, 208.122 351.675 C 208.706 350.671, 208.973 349.639, 208.715 349.382 C 208.458 349.124, 207.966 349.645, 207.624 350.539 M 205.624 355.539 C 204.659 358.053, 204.943 358.702, 206.122 356.675 C 206.706 355.671, 206.973 354.639, 206.715 354.382 C 206.458 354.124, 205.966 354.645, 205.624 355.539 M 197.232 365 C 197.232 366.925, 197.438 367.712, 197.689 366.750 C 197.941 365.788, 197.941 364.212, 197.689 363.250 C 197.438 362.288, 197.232 363.075, 197.232 365" stroke="none" fill="#656365" fill-rule="evenodd"/></svg>