<svg id="svg" xmlns="http://www.w3.org/2000/svg" xmlns:xlink="http://www.w3.org/1999/xlink" width="400" height="484.1444270015699" viewBox="0, 0, 400,484.1444270015699"><g id="svgg"><path id="path0" d="M178.179 12.788 L 175.824 13.408 175.807 33.863 C 175.797 45.113,175.526 87.298,175.204 127.609 C 174.594 204.069,174.578 203.452,177.245 206.402 C 178.811 208.135,178.337 224.804,176.721 224.804 C 175.693 224.804,120.102 214.837,118.524 214.370 C 117.054 213.934,116.899 202.961,118.332 200.763 C 121.243 196.298,121.401 196.887,96.675 120.277 L 73.847 49.548 71.304 49.735 C 67.810 49.991,62.794 60.173,62.794 67.008 C 62.794 69.467,96.053 194.348,96.875 194.976 C 98.994 196.595,101.319 210.989,99.462 210.989 C 99.253 210.989,96.553 210.527,93.464 209.961 C 86.525 208.692,84.772 209.194,84.772 212.453 C 84.772 214.731,75.012 359.641,74.459 365.569 L 74.127 369.129 112.260 390.973 L 150.392 412.818 206.593 436.909 C 237.504 450.160,263.642 461.387,264.678 461.859 C 269.207 463.920,271.525 464.674,271.941 464.222 C 272.873 463.208,295.956 419.699,296.428 418.065 C 297.192 415.418,295.904 411.878,293.137 409.023 L 290.624 406.430 295.660 330.617 L 300.696 254.804 297.550 250.479 C 295.820 248.100,294.338 246.154,294.256 246.154 C 293.818 246.154,286.512 244.786,285.703 244.553 C 284.886 244.317,284.783 242.727,284.986 233.418 C 285.191 224.015,285.087 222.447,284.213 221.721 C 281.711 219.645,284.133 214.451,288.325 212.902 C 291.425 211.757,285.323 222.003,343.207 120.764 C 385.952 46.005,381.637 54.174,380.269 50.590 C 379.059 47.423,372.561 36.357,371.493 35.645 C 367.734 33.141,369.159 31.014,314.185 121.193 C 263.966 203.572,263.466 204.426,263.623 207.424 C 263.716 209.183,263.383 211.254,262.830 212.363 C 261.915 214.197,261.954 214.379,263.835 216.998 L 265.793 219.724 265.669 229.956 C 265.601 235.584,265.350 240.351,265.111 240.551 C 264.873 240.750,248.995 238.065,229.827 234.584 L 194.976 228.255 194.636 217.890 C 194.449 212.189,194.099 207.205,193.858 206.816 C 193.617 206.426,193.841 205.759,194.355 205.332 C 195.083 204.728,195.290 202.971,195.290 197.403 C 195.290 192.935,195.573 189.798,196.043 189.045 C 196.776 187.870,191.921 20.619,191.116 19.316 C 190.826 18.847,182.515 13.135,181.162 12.474 C 180.816 12.306,179.474 12.447,178.179 12.788 M185.667 16.484 L 190.581 19.780 192.578 81.005 C 193.676 114.678,194.594 144.283,194.619 146.792 L 194.662 151.355 191.415 149.122 C 186.774 145.929,186.194 146.242,186.146 151.969 L 186.106 156.672 186.329 152.119 C 186.589 146.804,186.802 146.702,191.314 149.741 L 194.542 151.914 194.901 157.747 C 195.839 172.966,196.018 187.820,195.274 188.716 C 194.772 189.322,194.553 191.992,194.619 196.731 C 194.708 203.157,194.595 203.948,193.436 204.997 C 192.647 205.711,192.363 206.421,192.697 206.846 C 194.188 208.744,194.144 224.172,192.645 224.833 L 191.209 225.467 192.622 225.194 C 193.781 224.970,194.035 225.201,194.035 226.482 C 194.035 227.850,193.820 228.001,192.308 227.701 C 191.358 227.513,189.524 227.177,188.232 226.954 C 186.939 226.732,186.038 226.298,186.228 225.991 C 186.418 225.683,184.861 225.432,182.769 225.432 L 178.964 225.432 178.964 216.641 L 178.964 207.849 181.633 207.744 L 184.301 207.638 181.947 207.392 C 179.730 207.160,179.592 207.019,179.592 204.986 C 179.592 201.979,182.684 201.802,184.401 204.710 C 186.824 208.810,188.107 207.311,187.759 200.786 L 187.448 194.976 187.263 200.471 C 187.058 206.574,186.754 206.927,184.383 203.818 L 182.745 201.671 182.574 174.462 L 182.404 147.253 182.254 174.691 L 182.104 202.129 179.324 202.320 C 176.644 202.505,176.579 202.557,177.524 203.768 C 178.314 204.779,178.431 204.810,178.126 203.925 C 177.918 203.320,178.042 202.826,178.402 202.826 C 179.298 202.826,178.838 204.857,177.869 205.180 C 175.753 205.884,175.694 202.846,176.087 113.344 C 176.502 18.499,176.598 14.044,178.243 13.607 C 180.335 13.052,180.846 13.249,185.667 16.484 M181.137 46.782 C 181.137 62.323,181.218 68.591,181.318 60.711 C 181.418 52.830,181.418 40.114,181.318 32.453 C 181.218 24.792,181.137 31.240,181.137 46.782 M374.709 41.959 C 379.918 50.863,381.266 54.631,379.241 54.631 C 378.875 54.631,378.747 54.907,378.955 55.245 C 379.255 55.730,336.666 130.822,295.983 201.543 C 290.520 211.039,290.338 211.267,287.586 212.129 C 284.466 213.106,282.575 215.936,282.575 219.628 C 282.575 221.150,282.265 221.636,281.162 221.849 C 280.140 222.046,280.314 222.145,281.790 222.206 L 283.830 222.292 283.830 231.711 L 283.830 241.130 281.790 241.231 L 279.749 241.331 281.790 241.585 C 283.344 241.777,283.830 242.144,283.830 243.122 C 283.830 244.135,283.532 244.335,282.418 244.069 C 281.641 243.884,279.592 243.509,277.865 243.236 L 274.725 242.740 277.237 242.338 C 279.655 241.951,279.620 241.933,276.295 241.842 C 274.396 241.790,271.397 241.574,269.631 241.362 L 266.420 240.976 266.297 231.612 L 266.175 222.248 272.648 222.510 C 276.208 222.654,278.203 222.647,277.080 222.494 C 275.383 222.263,275.023 221.931,274.945 220.527 L 274.851 218.838 274.589 220.565 C 274.389 221.891,273.981 222.292,272.837 222.292 L 271.345 222.292 272.994 219.774 C 274.151 218.006,274.793 217.491,275.145 218.047 C 275.473 218.562,275.651 218.278,275.658 217.231 C 275.671 215.042,277.501 212.471,277.531 214.600 C 277.548 215.792,277.894 216.013,279.749 216.013 C 281.284 216.013,281.947 215.728,281.947 215.071 C 281.947 214.553,282.441 214.109,283.046 214.085 C 284.067 214.044,284.069 214.011,283.072 213.614 C 281.138 212.843,374.275 54.288,376.595 54.403 C 378.245 54.485,378.221 54.442,376.138 53.587 C 374.246 52.809,373.423 51.687,370.216 45.503 C 368.167 41.554,366.393 38.422,366.273 38.541 C 365.909 38.905,373.693 53.375,374.252 53.375 C 374.539 53.375,369.766 61.923,363.646 72.370 C 357.525 82.818,336.478 118.824,316.874 152.385 L 281.230 213.404 279.391 212.763 C 278.380 212.411,277.666 211.938,277.805 211.713 C 281.653 205.465,296.389 179.783,296.389 179.324 C 296.389 178.971,294.520 181.925,292.234 185.888 C 287.838 193.512,272.890 218.928,272.031 220.242 C 271.317 221.333,267.504 222.036,267.504 221.077 C 267.504 220.668,266.511 219.032,265.296 217.442 C 262.486 213.761,261.495 216.053,277.287 189.721 C 284.667 177.415,290.218 167.928,289.623 168.638 C 289.027 169.348,283.182 178.872,276.632 189.802 C 270.083 200.732,264.656 209.607,264.573 209.523 C 262.655 207.606,263.660 205.855,314.880 121.821 C 369.731 31.832,366.428 37.116,368.244 36.444 C 370.504 35.608,371.479 36.439,374.709 41.959 M73.364 51.334 C 73.818 52.214,106.448 152.943,116.182 183.516 L 118.531 190.895 115.132 190.895 C 112.212 190.895,111.646 190.696,111.108 189.482 L 110.483 188.069 110.767 189.524 C 111.086 191.161,109.375 193.997,105.308 198.574 C 101.463 202.900,101.108 202.754,98.842 195.918 C 98.098 193.673,97.228 191.888,96.909 191.951 C 96.590 192.014,88.908 163.898,79.837 129.471 L 63.346 66.876 64.599 62.070 C 66.290 55.585,69.064 50.055,69.750 51.805 C 70.215 52.994,70.244 52.986,70.286 51.648 C 70.340 49.917,72.518 49.695,73.364 51.334 M70.425 54.003 C 70.425 54.521,70.806 55.934,71.272 57.143 C 71.737 58.352,72.118 58.917,72.118 58.399 C 72.118 57.881,71.737 56.468,71.272 55.259 C 70.806 54.050,70.425 53.485,70.425 54.003 M72.309 60.283 C 72.309 60.801,72.690 62.214,73.155 63.422 C 73.621 64.631,74.002 65.196,74.002 64.678 C 74.002 64.160,73.621 62.747,73.155 61.538 C 72.690 60.330,72.309 59.765,72.309 60.283 M74.163 66.248 C 74.131 66.593,74.781 68.995,75.608 71.586 C 76.436 74.176,77.139 76.013,77.171 75.667 C 77.204 75.322,76.553 72.920,75.726 70.330 C 74.899 67.739,74.195 65.903,74.163 66.248 M77.333 77.237 C 77.333 77.755,77.713 79.168,78.179 80.377 C 78.644 81.586,79.025 82.151,79.025 81.633 C 79.025 81.115,78.644 79.702,78.179 78.493 C 77.713 77.284,77.333 76.719,77.333 77.237 M79.216 83.516 C 79.216 84.035,79.597 85.447,80.063 86.656 C 80.528 87.865,80.909 88.430,80.909 87.912 C 80.909 87.394,80.528 85.981,80.063 84.772 C 79.597 83.564,79.216 82.998,79.216 83.516 M181.765 110.832 C 181.765 126.374,181.846 132.642,181.946 124.761 C 182.046 116.880,182.046 104.164,181.946 96.503 C 181.846 88.843,181.764 95.290,181.765 110.832 M81.071 89.482 C 81.038 89.827,81.689 92.229,82.516 94.819 C 83.343 97.410,84.046 99.246,84.079 98.901 C 84.111 98.556,83.461 96.154,82.633 93.564 C 81.806 90.973,81.103 89.137,81.071 89.482 M84.240 100.471 C 84.240 100.989,84.621 102.402,85.086 103.611 C 85.552 104.819,85.933 105.385,85.933 104.867 C 85.933 104.349,85.552 102.936,85.086 101.727 C 84.621 100.518,84.240 99.953,84.240 100.471 M86.124 106.750 C 86.124 107.268,86.505 108.681,86.970 109.890 C 87.436 111.099,87.817 111.664,87.817 111.146 C 87.817 110.628,87.436 109.215,86.970 108.006 C 86.505 106.797,86.124 106.232,86.124 106.750 M88.008 113.030 C 88.008 113.548,88.388 114.961,88.854 116.170 C 89.320 117.378,89.700 117.943,89.700 117.425 C 89.700 116.907,89.320 115.495,88.854 114.286 C 88.388 113.077,88.008 112.512,88.008 113.030 M89.862 118.995 C 89.829 119.341,90.480 121.743,91.307 124.333 C 92.134 126.923,92.838 128.760,92.870 128.414 C 92.902 128.069,92.252 125.667,91.424 123.077 C 90.597 120.487,89.894 118.650,89.862 118.995 M93.031 129.984 C 93.031 130.502,93.412 131.915,93.878 133.124 C 94.343 134.333,94.724 134.898,94.724 134.380 C 94.724 133.862,94.343 132.449,93.878 131.240 C 93.412 130.031,93.031 129.466,93.031 129.984 M94.915 136.264 C 94.915 136.782,95.296 138.195,95.761 139.403 C 96.227 140.612,96.608 141.177,96.608 140.659 C 96.608 140.141,96.227 138.728,95.761 137.520 C 95.296 136.311,94.915 135.746,94.915 136.264 M96.799 142.543 C 96.799 143.061,97.180 144.474,97.645 145.683 C 98.111 146.892,98.492 147.457,98.492 146.939 C 98.492 146.421,98.111 145.008,97.645 143.799 C 97.180 142.590,96.799 142.025,96.799 142.543 M98.653 148.509 C 98.621 148.854,99.271 151.256,100.098 153.846 C 100.926 156.436,101.629 158.273,101.661 157.928 C 101.693 157.582,101.043 155.181,100.216 152.590 C 99.388 150.000,98.685 148.163,98.653 148.509 M94.307 149.875 C 94.889 150.029,95.567 151.056,95.814 152.157 C 96.061 153.259,96.372 153.850,96.504 153.470 C 96.964 152.151,95.499 149.449,94.364 149.523 C 93.370 149.588,93.364 149.626,94.307 149.875 M97.050 156.044 C 97.223 157.080,97.915 159.623,98.588 161.695 C 99.261 163.768,99.670 164.615,99.497 163.579 C 99.324 162.543,98.631 160.000,97.958 157.928 C 97.285 155.856,96.876 155.008,97.050 156.044 M101.822 159.498 C 101.822 160.016,102.203 161.429,102.669 162.637 C 103.134 163.846,103.515 164.411,103.515 163.893 C 103.515 163.375,103.134 161.962,102.669 160.754 C 102.203 159.545,101.822 158.980,101.822 159.498 M186.770 176.138 C 186.770 184.427,186.860 187.731,186.969 183.480 C 187.077 179.230,187.077 172.448,186.968 168.410 C 186.859 164.372,186.770 167.849,186.770 176.138 M103.706 165.777 C 103.706 166.295,104.087 167.708,104.553 168.917 C 105.018 170.126,105.399 170.691,105.399 170.173 C 105.399 169.655,105.018 168.242,104.553 167.033 C 104.087 165.824,103.706 165.259,103.706 165.777 M99.931 166.405 C 99.931 166.923,100.174 167.912,100.471 168.603 C 100.811 169.394,101.011 169.511,101.011 168.917 C 101.011 168.399,100.768 167.410,100.471 166.719 C 100.131 165.927,99.931 165.811,99.931 166.405 M94.946 167.257 C 95.564 167.727,95.885 168.579,95.707 169.278 C 95.126 171.563,97.521 177.298,98.442 175.824 C 98.880 175.123,98.955 174.568,98.612 174.568 C 98.275 174.568,98.179 174.098,98.400 173.523 C 98.685 172.780,98.569 172.622,97.999 172.974 C 97.402 173.343,97.307 173.121,97.630 172.105 C 97.888 171.290,97.726 170.334,97.226 169.732 C 96.766 169.178,96.460 168.626,96.546 168.506 C 97.201 167.600,96.482 166.408,95.290 166.425 C 94.002 166.443,93.972 166.516,94.946 167.257 M292.867 170.450 C 293.578 171.984,294.250 173.149,294.359 173.040 C 294.697 172.702,292.513 167.661,292.030 167.661 C 291.779 167.661,292.156 168.916,292.867 170.450 M101.445 171.743 C 101.618 172.779,102.311 175.322,102.984 177.394 C 103.657 179.466,104.066 180.314,103.892 179.278 C 103.719 178.242,103.027 175.699,102.354 173.626 C 101.681 171.554,101.272 170.706,101.445 171.743 M189.785 172.057 C 189.785 173.265,189.914 173.760,190.072 173.155 C 190.230 172.551,190.230 171.562,190.072 170.958 C 189.914 170.353,189.785 170.848,189.785 172.057 M191.296 170.608 C 190.642 171.263,190.840 175.824,191.523 175.824 C 191.868 175.824,192.151 176.389,192.151 177.080 C 192.151 177.854,191.729 178.340,191.052 178.346 C 190.113 178.354,190.090 178.444,190.895 178.964 C 191.732 179.505,191.732 179.574,190.895 179.582 C 189.461 179.596,190.011 185.445,191.580 186.865 C 193.050 188.196,193.173 187.348,191.739 185.764 C 190.805 184.731,190.801 184.615,191.699 184.615 C 192.550 184.615,192.702 183.594,192.729 177.739 C 192.757 171.448,192.372 169.532,191.296 170.608 M105.590 172.057 C 105.590 172.575,105.971 173.987,106.436 175.196 C 106.902 176.405,107.283 176.970,107.283 176.452 C 107.283 175.934,106.902 174.521,106.436 173.312 C 105.971 172.104,105.590 171.538,105.590 172.057 M97.959 178.228 C 97.959 180.325,100.190 185.109,100.895 184.524 C 102.088 183.534,101.921 182.698,100.628 183.183 C 99.666 183.543,99.636 183.463,100.390 182.536 C 101.438 181.248,100.340 177.917,98.868 177.917 C 98.368 177.917,97.959 178.057,97.959 178.228 M107.444 178.022 C 107.412 178.367,108.062 180.769,108.889 183.359 C 109.717 185.950,110.420 187.786,110.452 187.441 C 110.485 187.096,109.834 184.694,109.007 182.104 C 108.180 179.513,107.476 177.677,107.444 178.022 M191.956 183.203 C 191.798 183.807,191.668 183.312,191.668 182.104 C 191.668 180.895,191.798 180.400,191.956 181.005 C 192.114 181.609,192.114 182.598,191.956 183.203 M104.327 182.104 C 104.327 182.622,104.570 183.611,104.867 184.301 C 105.207 185.093,105.406 185.209,105.406 184.615 C 105.406 184.097,105.163 183.108,104.867 182.418 C 104.526 181.626,104.327 181.510,104.327 182.104 M105.554 186.185 C 105.524 186.531,106.042 188.650,106.705 190.895 C 107.368 193.140,107.928 194.553,107.950 194.035 C 107.995 192.955,105.638 185.230,105.554 186.185 M280.460 189.482 C 279.632 190.777,279.101 191.978,279.281 192.151 C 279.460 192.323,279.744 192.079,279.911 191.609 C 280.167 190.886,280.308 190.886,280.815 191.609 C 281.301 192.303,281.362 192.287,281.139 191.523 C 280.987 191.005,281.255 189.804,281.735 188.854 C 282.999 186.350,282.215 186.737,280.460 189.482 M281.872 189.796 C 281.831 190.228,281.849 190.956,281.911 191.414 C 281.973 191.873,281.461 192.395,280.773 192.575 C 280.046 192.765,279.658 193.258,279.848 193.752 C 280.384 195.149,279.467 196.099,278.422 195.231 C 277.370 194.358,277.561 194.189,275.445 197.857 C 273.789 200.729,273.252 204.307,274.374 205.001 C 274.723 205.216,274.834 204.397,274.644 202.997 C 274.348 200.817,274.398 200.720,275.263 201.784 C 276.155 202.881,276.261 202.833,277.329 200.842 C 277.948 199.688,278.805 198.179,279.234 197.488 C 279.663 196.797,280.223 195.808,280.479 195.290 C 280.735 194.772,281.589 193.397,282.378 192.233 C 283.749 190.211,283.809 189.011,282.538 189.011 C 282.213 189.011,281.913 189.364,281.872 189.796 M118.682 192.622 C 118.683 193.559,118.184 193.689,115.284 193.509 C 111.927 193.299,111.872 193.325,110.816 195.549 C 110.228 196.788,109.390 197.802,108.954 197.802 C 108.517 197.802,107.808 198.226,107.378 198.744 C 106.948 199.262,106.296 199.686,105.928 199.686 C 105.560 199.686,105.974 198.909,106.847 197.959 C 107.720 197.009,109.068 195.173,109.841 193.878 C 111.480 191.136,118.680 190.113,118.682 192.622 M101.099 194.035 C 101.099 194.732,101.518 195.290,102.041 195.290 C 102.564 195.290,102.983 194.732,102.983 194.035 C 102.983 193.337,102.564 192.779,102.041 192.779 C 101.518 192.779,101.099 193.337,101.099 194.035 M114.914 195.881 C 114.914 196.897,115.190 197.899,115.529 198.108 C 117.232 199.161,114.580 200.942,111.309 200.942 C 107.580 200.942,106.928 199.909,109.566 198.180 C 110.424 197.618,111.302 196.456,111.518 195.596 C 112.130 193.159,114.914 193.393,114.914 195.881 M117.779 196.907 C 118.046 198.683,117.954 200.036,117.540 200.450 C 117.065 200.925,116.954 200.441,117.159 198.789 C 117.323 197.468,117.200 196.612,116.875 196.813 C 116.330 197.149,115.542 195.848,115.542 194.611 C 115.542 192.526,117.410 194.444,117.779 196.907 M277.677 196.672 C 276.732 197.616,276.686 198.651,277.614 198.077 C 278.113 197.769,278.112 198.009,277.610 198.947 C 276.717 200.617,275.860 201.133,275.350 200.309 C 275.128 199.949,275.285 199.733,275.699 199.827 C 276.113 199.922,276.595 199.607,276.769 199.128 C 276.982 198.543,276.820 198.419,276.280 198.754 C 275.707 199.108,275.621 198.997,275.982 198.370 C 276.803 196.947,277.678 195.918,278.067 195.918 C 278.267 195.918,278.091 196.257,277.677 196.672 M191.328 196.950 C 191.090 197.188,190.899 197.690,190.904 198.064 C 190.910 198.438,191.177 198.328,191.499 197.820 C 192.002 197.024,192.139 197.042,192.487 197.947 C 193.051 199.417,192.187 200.724,191.396 199.596 C 190.921 198.918,190.844 198.914,191.020 199.576 C 191.343 200.797,192.231 200.782,193.014 199.541 C 193.741 198.387,192.224 196.054,191.328 196.950 M112.894 202.031 C 111.265 202.159,108.439 202.161,106.614 202.034 C 104.790 201.906,106.122 201.801,109.576 201.799 C 113.030 201.798,114.523 201.902,112.894 202.031 M116.170 208.489 C 116.170 214.045,116.143 214.146,114.757 213.811 C 113.980 213.624,110.518 212.969,107.064 212.358 L 100.785 211.245 100.599 207.035 L 100.414 202.826 108.292 202.826 L 116.170 202.826 116.170 208.489 M185.400 208.282 C 186.005 208.440,186.994 208.440,187.598 208.282 C 188.203 208.124,187.708 207.995,186.499 207.995 C 185.290 207.995,184.796 208.124,185.400 208.282 M132.810 217.930 C 157.677 222.439,185.086 227.381,193.721 228.913 C 240.197 237.162,280.677 244.783,278.299 244.837 C 276.404 244.880,275.729 245.118,276.047 245.633 C 276.355 246.131,276.155 246.234,275.424 245.954 C 274.831 245.726,274.489 245.772,274.664 246.055 C 274.839 246.338,268.057 249.334,259.594 252.714 C 251.131 256.094,244.311 258.963,244.439 259.091 C 244.567 259.219,251.696 256.505,260.283 253.061 C 277.603 246.114,276.683 246.327,275.325 249.579 C 274.782 250.878,274.455 252.059,274.599 252.202 C 274.742 252.346,275.425 250.973,276.116 249.151 C 277.407 245.751,280.880 244.062,283.353 245.632 C 283.788 245.908,284.941 246.139,285.914 246.144 C 287.851 246.155,287.849 246.940,285.902 250.765 C 285.403 251.747,285.123 252.679,285.281 252.837 C 285.439 252.995,286.218 251.556,287.013 249.639 C 288.370 246.364,289.470 245.166,289.492 246.939 C 289.499 247.515,289.624 247.530,289.964 246.996 C 290.598 246.000,293.878 246.702,293.878 247.834 C 293.878 248.332,294.096 248.605,294.363 248.440 C 294.630 248.275,295.942 249.704,297.279 251.617 L 299.709 255.094 298.961 264.282 C 298.550 269.335,297.523 280.656,296.680 289.439 C 295.836 298.222,295.253 307.265,295.383 309.533 C 295.576 312.898,295.525 313.195,295.105 311.146 C 294.727 309.306,294.662 309.959,294.861 313.587 C 295.010 316.310,294.558 325.777,293.856 334.623 C 293.155 343.469,292.716 352.684,292.881 355.102 C 293.107 358.421,293.045 358.959,292.627 357.300 C 292.238 355.755,292.137 357.155,292.288 362.009 C 292.440 366.881,292.353 368.084,291.993 366.091 C 291.639 364.128,291.543 365.565,291.678 370.801 C 291.814 376.016,291.724 377.369,291.386 375.196 C 291.032 372.918,290.962 373.780,291.128 378.336 C 291.255 381.790,290.995 389.702,290.551 395.918 L 289.743 407.221 291.810 409.179 C 292.947 410.256,293.878 411.615,293.878 412.199 C 293.878 412.783,294.131 413.105,294.440 412.914 C 295.163 412.467,295.761 414.041,295.761 416.390 C 295.761 418.480,272.605 462.288,271.772 461.774 C 271.497 461.604,271.272 461.924,271.272 462.486 C 271.272 463.562,268.672 463.218,268.237 462.083 C 268.121 461.784,267.605 461.538,267.089 461.538 C 266.401 461.538,206.277 436.151,205.532 435.546 C 205.107 435.201,211.253 421.980,211.835 421.987 C 212.840 422.000,223.632 417.457,223.325 417.150 C 223.188 417.013,221.436 417.626,219.432 418.513 C 214.248 420.806,214.112 420.284,218.740 415.841 C 220.979 413.690,222.572 411.931,222.280 411.931 C 221.988 411.931,222.860 409.199,224.218 405.861 C 225.577 402.523,226.582 399.685,226.453 399.556 C 226.324 399.427,225.049 402.229,223.620 405.783 C 221.619 410.762,220.237 413.127,217.598 416.088 C 215.715 418.201,214.331 420.087,214.523 420.279 C 214.715 420.471,214.351 420.548,213.715 420.450 C 213.079 420.352,212.328 420.585,212.047 420.968 C 211.759 421.359,211.702 421.068,211.915 420.304 C 213.268 415.470,210.638 419.668,207.921 426.681 C 205.405 433.173,204.440 435.022,203.713 434.743 C 203.194 434.544,191.126 429.364,176.895 423.233 L 151.020 412.085 150.663 407.455 L 150.305 402.826 150.192 407.064 C 150.129 409.396,149.867 411.289,149.608 411.273 C 149.349 411.256,139.246 405.534,127.159 398.557 L 105.181 385.871 104.808 382.732 L 104.436 379.592 104.337 382.261 C 104.212 385.662,105.633 386.170,89.411 376.923 C 76.023 369.291,75.366 368.829,75.356 367.033 C 75.341 364.336,85.355 216.247,85.773 212.975 C 86.244 209.292,88.490 210.897,88.623 215.011 L 88.705 217.582 89.094 215.404 C 89.479 213.243,89.751 213.553,122.619 253.534 C 140.844 275.704,155.925 294.283,156.131 294.820 C 156.449 295.648,156.616 295.664,157.217 294.925 C 157.608 294.445,171.575 288.610,188.255 281.958 C 204.935 275.306,218.481 269.763,218.357 269.639 C 218.233 269.515,204.329 274.936,187.460 281.686 C 157.973 293.484,156.746 293.914,155.702 292.819 C 150.185 287.030,89.896 212.571,90.449 212.229 C 90.845 211.985,90.305 211.625,89.219 211.407 C 87.784 211.120,86.310 209.732,87.441 209.733 C 87.527 209.733,107.943 213.422,132.810 217.930 M267.121 211.885 C 266.550 213.373,267.358 214.877,268.601 214.637 C 269.296 214.504,269.702 213.853,269.702 212.873 C 269.702 211.083,267.720 210.324,267.121 211.885 M269.277 213.082 C 269.397 213.701,269.077 214.129,268.492 214.129 C 267.909 214.129,267.504 213.592,267.504 212.821 C 267.504 211.290,268.971 211.506,269.277 213.082 M96.389 213.501 C 97.425 213.764,98.980 213.980,99.843 213.980 C 101.243 213.980,101.209 213.928,99.529 213.501 C 98.493 213.237,96.939 213.021,96.075 213.021 C 94.675 213.021,94.709 213.073,96.389 213.501 M281.182 214.660 C 281.323 215.083,280.748 215.385,279.801 215.385 C 278.606 215.385,278.179 215.059,278.179 214.149 C 278.179 212.787,280.700 213.216,281.182 214.660 M106.436 215.385 C 107.473 215.648,109.027 215.864,109.890 215.864 C 111.290 215.864,111.257 215.812,109.576 215.385 C 108.540 215.121,106.986 214.905,106.122 214.905 C 104.722 214.905,104.756 214.957,106.436 215.385 M116.484 217.268 C 117.520 217.532,119.074 217.748,119.937 217.748 C 121.338 217.748,121.304 217.696,119.623 217.268 C 118.587 217.005,117.033 216.789,116.170 216.789 C 114.769 216.789,114.803 216.841,116.484 217.268 M89.348 220.722 C 89.352 222.449,89.474 223.081,89.619 222.126 C 89.763 221.172,89.759 219.759,89.610 218.987 C 89.461 218.214,89.343 218.995,89.348 220.722 M123.391 218.524 C 124.427 218.788,125.981 219.004,126.845 219.004 C 128.245 219.004,128.211 218.952,126.531 218.524 C 125.495 218.261,123.940 218.045,123.077 218.045 C 121.677 218.045,121.711 218.097,123.391 218.524 M133.438 220.408 C 134.474 220.672,136.028 220.888,136.892 220.888 C 138.292 220.888,138.258 220.836,136.578 220.408 C 135.542 220.145,133.987 219.929,133.124 219.929 C 131.724 219.929,131.758 219.981,133.438 220.408 M140.345 221.664 C 141.381 221.928,142.936 222.143,143.799 222.143 C 145.199 222.143,145.165 222.092,143.485 221.664 C 142.449 221.400,140.895 221.185,140.031 221.185 C 138.631 221.185,138.665 221.236,140.345 221.664 M150.392 223.548 C 151.429 223.812,152.983 224.027,153.846 224.027 C 155.246 224.027,155.213 223.975,153.532 223.548 C 152.496 223.284,150.942 223.069,150.078 223.069 C 148.678 223.069,148.712 223.120,150.392 223.548 M157.300 224.804 C 158.336 225.067,159.890 225.283,160.754 225.283 C 162.154 225.283,162.120 225.231,160.440 224.804 C 159.403 224.540,157.849 224.324,156.986 224.324 C 155.586 224.324,155.619 224.376,157.300 224.804 M89.976 227.630 C 89.980 229.356,90.102 229.988,90.247 229.034 C 90.391 228.079,90.387 226.666,90.238 225.894 C 90.089 225.122,89.971 225.903,89.976 227.630 M187.912 225.865 C 188.516 226.023,189.505 226.023,190.110 225.865 C 190.714 225.707,190.220 225.577,189.011 225.577 C 187.802 225.577,187.308 225.707,187.912 225.865 M167.347 226.688 C 168.383 226.951,169.937 227.167,170.801 227.167 C 172.201 227.167,172.167 227.115,170.487 226.688 C 169.451 226.424,167.896 226.208,167.033 226.208 C 165.633 226.208,165.667 226.260,167.347 226.688 M174.254 227.943 C 175.290 228.207,176.845 228.423,177.708 228.423 C 179.108 228.423,179.074 228.371,177.394 227.943 C 176.358 227.680,174.804 227.464,173.940 227.464 C 172.540 227.464,172.574 227.516,174.254 227.943 M184.301 229.827 C 185.338 230.091,186.892 230.307,187.755 230.307 C 189.155 230.307,189.122 230.255,187.441 229.827 C 186.405 229.564,184.851 229.348,183.987 229.348 C 182.587 229.348,182.621 229.400,184.301 229.827 M191.209 231.083 C 192.245 231.347,193.799 231.563,194.662 231.563 C 196.063 231.563,196.029 231.511,194.349 231.083 C 193.312 230.820,191.758 230.604,190.895 230.604 C 189.495 230.604,189.528 230.656,191.209 231.083 M90.612 234.223 C 90.612 236.122,90.730 236.900,90.874 235.950 C 91.018 235.000,91.018 233.446,90.874 232.496 C 90.730 231.546,90.612 232.323,90.612 234.223 M201.256 232.967 C 202.292 233.231,203.846 233.446,204.710 233.446 C 206.110 233.446,206.076 233.395,204.396 232.967 C 203.359 232.703,201.805 232.488,200.942 232.488 C 199.542 232.488,199.576 232.539,201.256 232.967 M208.163 234.223 C 209.199 234.487,210.754 234.702,211.617 234.702 C 213.017 234.702,212.983 234.651,211.303 234.223 C 210.267 233.959,208.713 233.744,207.849 233.744 C 206.449 233.744,206.483 233.795,208.163 234.223 M228.885 237.991 C 229.922 238.254,231.476 238.470,232.339 238.470 C 233.739 238.470,233.705 238.418,232.025 237.991 C 230.989 237.727,229.435 237.511,228.571 237.511 C 227.171 237.511,227.205 237.563,228.885 237.991 M91.240 241.130 C 91.240 243.030,91.358 243.807,91.502 242.857 C 91.645 241.907,91.645 240.353,91.502 239.403 C 91.358 238.454,91.240 239.231,91.240 241.130 M235.793 239.246 C 236.829 239.510,238.383 239.726,239.246 239.726 C 240.647 239.726,240.613 239.674,238.932 239.246 C 237.896 238.983,236.342 238.767,235.479 238.767 C 234.078 238.767,234.112 238.819,235.793 239.246 M242.700 240.502 C 243.736 240.766,245.290 240.982,246.154 240.982 C 247.554 240.982,247.520 240.930,245.840 240.502 C 244.804 240.239,243.250 240.023,242.386 240.023 C 240.986 240.023,241.020 240.075,242.700 240.502 M253.375 242.386 C 254.411 242.650,255.965 242.866,256.829 242.866 C 258.229 242.866,258.195 242.814,256.515 242.386 C 255.479 242.123,253.925 241.907,253.061 241.907 C 251.661 241.907,251.695 241.959,253.375 242.386 M91.859 247.724 C 91.864 249.451,91.986 250.082,92.130 249.128 C 92.275 248.173,92.271 246.761,92.122 245.988 C 91.973 245.216,91.855 245.997,91.859 247.724 M270.801 245.331 C 271.405 245.489,272.394 245.489,272.998 245.331 C 273.603 245.173,273.108 245.044,271.900 245.044 C 270.691 245.044,270.196 245.173,270.801 245.331 M289.025 251.177 C 289.025 252.732,289.147 253.367,289.297 252.590 C 289.447 251.813,289.447 250.542,289.297 249.765 C 289.147 248.987,289.025 249.623,289.025 251.177 M293.421 251.805 C 293.421 253.359,293.543 253.995,293.693 253.218 C 293.842 252.441,293.842 251.170,293.693 250.392 C 293.543 249.615,293.421 250.251,293.421 251.805 M92.162 253.689 C 91.140 259.120,90.982 264.891,91.930 262.166 L 92.804 259.655 92.964 262.166 C 93.068 263.807,93.202 264.134,93.349 263.108 C 93.771 260.165,92.637 251.165,92.162 253.689 M271.667 259.108 C 270.404 262.450,269.474 265.288,269.602 265.416 C 269.730 265.544,270.869 262.915,272.132 259.573 C 273.396 256.232,274.325 253.393,274.197 253.265 C 274.069 253.137,272.930 255.767,271.667 259.108 M281.411 261.003 C 279.626 265.032,278.266 268.428,278.387 268.550 C 278.509 268.672,280.069 265.475,281.854 261.446 C 283.639 257.417,285.000 254.021,284.878 253.899 C 284.756 253.777,283.196 256.974,281.411 261.003 M288.397 257.457 C 288.397 259.011,288.520 259.647,288.669 258.870 C 288.819 258.093,288.819 256.821,288.669 256.044 C 288.520 255.267,288.397 255.903,288.397 257.457 M292.793 258.085 C 292.793 259.639,292.915 260.275,293.065 259.498 C 293.214 258.721,293.214 257.449,293.065 256.672 C 292.915 255.895,292.793 256.531,292.793 258.085 M287.769 263.736 C 287.769 265.290,287.892 265.926,288.041 265.149 C 288.191 264.372,288.191 263.100,288.041 262.323 C 287.892 261.546,287.769 262.182,287.769 263.736 M292.173 264.050 C 292.178 265.777,292.300 266.409,292.444 265.454 C 292.589 264.500,292.585 263.087,292.436 262.315 C 292.287 261.542,292.169 262.323,292.173 264.050 M148.001 265.892 C 146.027 268.178,145.292 269.460,145.781 269.762 C 146.729 270.348,150.912 265.832,150.315 264.867 C 150.039 264.420,150.207 264.277,150.760 264.485 C 151.249 264.669,153.768 265.343,156.358 265.983 C 162.034 267.385,161.587 267.122,161.069 268.756 C 160.700 269.919,160.542 269.973,159.913 269.155 C 159.383 268.466,153.165 265.624,152.181 265.620 C 151.962 265.620,150.706 269.636,150.706 270.338 C 150.706 271.221,157.708 272.867,159.136 272.319 C 159.662 272.117,160.328 272.373,160.616 272.887 C 160.904 273.402,162.254 273.978,163.615 274.167 C 164.977 274.357,166.656 274.758,167.347 275.060 C 172.533 277.324,175.432 276.887,175.071 273.896 C 174.806 271.703,166.405 268.770,166.405 270.871 C 166.405 272.195,165.481 272.635,163.657 272.177 C 162.167 271.803,161.376 267.515,162.794 267.507 C 163.053 267.505,163.265 267.050,163.265 266.495 C 163.265 265.856,162.920 265.618,162.323 265.847 C 161.805 266.046,161.381 265.968,161.381 265.675 C 161.381 264.953,155.836 263.596,155.000 264.114 C 154.633 264.340,154.153 264.244,153.933 263.901 C 152.664 261.926,150.919 262.511,148.001 265.892 M90.595 267.504 C 90.595 269.058,90.717 269.694,90.867 268.917 C 91.017 268.140,91.017 266.868,90.867 266.091 C 90.717 265.314,90.595 265.950,90.595 267.504 M93.752 268.132 C 93.752 270.031,93.869 270.808,94.013 269.859 C 94.157 268.909,94.157 267.355,94.013 266.405 C 93.869 265.455,93.752 266.232,93.752 268.132 M268.202 268.202 C 267.815 269.311,267.608 270.329,267.742 270.464 C 267.877 270.598,268.303 269.800,268.690 268.690 C 269.077 267.580,269.284 266.562,269.149 266.428 C 269.015 266.294,268.588 267.092,268.202 268.202 M156.605 269.086 C 157.925 269.638,158.868 270.227,158.700 270.395 C 158.399 270.695,152.590 269.417,152.590 269.051 C 152.590 268.085,153.472 266.899,153.799 267.427 C 154.022 267.788,155.284 268.535,156.605 269.086 M167.313 267.559 C 166.670 268.599,167.605 269.123,172.041 270.208 C 175.855 271.141,178.149 270.694,176.583 269.323 C 175.797 268.634,170.682 267.589,169.785 267.933 C 169.307 268.116,168.917 267.953,168.917 267.571 C 168.917 266.678,167.862 266.670,167.313 267.559 M287.141 270.016 C 287.141 271.570,287.264 272.206,287.413 271.429 C 287.563 270.651,287.563 269.380,287.413 268.603 C 287.264 267.826,287.141 268.462,287.141 270.016 M291.537 270.016 C 291.537 271.570,291.659 272.206,291.809 271.429 C 291.959 270.651,291.959 269.380,291.809 268.603 C 291.659 267.826,291.537 268.462,291.537 270.016 M274.504 276.701 C 272.719 280.730,271.358 284.126,271.480 284.248 C 271.602 284.370,273.162 281.174,274.947 277.145 C 276.732 273.116,278.092 269.720,277.970 269.598 C 277.849 269.476,276.289 272.673,274.504 276.701 M89.954 272.841 C 89.961 274.223,90.090 274.714,90.240 273.933 C 90.390 273.152,90.385 272.022,90.227 271.421 C 90.070 270.821,89.947 271.460,89.954 272.841 M91.742 274.568 C 91.789 277.485,91.934 278.090,92.308 276.923 C 93.039 274.639,93.039 270.644,92.308 270.644 C 91.949 270.644,91.707 272.329,91.742 274.568 M169.396 271.899 C 169.996 272.244,171.334 272.843,172.370 273.230 C 174.983 274.205,173.342 274.637,170.219 273.796 C 168.708 273.389,167.661 272.731,167.661 272.189 C 167.661 271.105,167.937 271.059,169.396 271.899 M264.760 277.318 C 263.496 280.660,262.567 283.499,262.695 283.626 C 262.823 283.754,263.961 281.125,265.225 277.784 C 266.488 274.442,267.417 271.603,267.289 271.476 C 267.161 271.348,266.023 273.977,264.760 277.318 M94.371 274.725 C 94.376 276.452,94.498 277.084,94.642 276.130 C 94.786 275.175,94.783 273.762,94.634 272.990 C 94.485 272.217,94.366 272.998,94.371 274.725 M290.917 275.981 C 290.922 277.708,291.044 278.340,291.188 277.385 C 291.333 276.431,291.329 275.018,291.180 274.246 C 291.031 273.473,290.913 274.254,290.917 275.981 M286.513 276.295 C 286.513 277.849,286.636 278.485,286.785 277.708 C 286.935 276.931,286.935 275.659,286.785 274.882 C 286.636 274.105,286.513 274.741,286.513 276.295 M89.339 278.179 C 89.339 279.733,89.461 280.369,89.611 279.592 C 89.761 278.815,89.761 277.543,89.611 276.766 C 89.461 275.989,89.339 276.625,89.339 278.179 M93.107 278.807 C 93.107 280.361,93.229 280.997,93.379 280.220 C 93.528 279.443,93.528 278.171,93.379 277.394 C 93.229 276.617,93.107 277.253,93.107 278.807 M91.240 281.947 C 91.240 283.846,91.358 284.623,91.502 283.673 C 91.645 282.724,91.645 281.170,91.502 280.220 C 91.358 279.270,91.240 280.047,91.240 281.947 M94.999 281.633 C 95.004 283.359,95.126 283.991,95.270 283.037 C 95.414 282.082,95.411 280.670,95.261 279.897 C 95.112 279.125,94.994 279.906,94.999 281.633 M290.289 282.261 C 290.294 283.987,290.416 284.619,290.560 283.665 C 290.705 282.710,290.701 281.297,290.552 280.525 C 290.403 279.753,290.285 280.534,290.289 282.261 M285.885 282.575 C 285.885 284.129,286.008 284.765,286.157 283.987 C 286.307 283.210,286.307 281.939,286.157 281.162 C 286.008 280.385,285.885 281.020,285.885 282.575 M88.698 283.516 C 88.705 284.898,88.834 285.389,88.984 284.608 C 89.134 283.827,89.129 282.697,88.971 282.096 C 88.814 281.496,88.691 282.135,88.698 283.516 M93.735 284.458 C 93.735 286.013,93.857 286.648,94.007 285.871 C 94.156 285.094,94.156 283.823,94.007 283.046 C 93.857 282.268,93.735 282.904,93.735 284.458 M259.736 290.505 C 258.473 293.847,257.544 296.685,257.671 296.813 C 257.799 296.941,258.938 294.312,260.201 290.970 C 261.465 287.629,262.394 284.790,262.266 284.662 C 262.138 284.534,260.999 287.164,259.736 290.505 M267.596 292.400 C 265.811 296.429,264.451 299.825,264.573 299.947 C 264.695 300.069,266.255 296.872,268.040 292.843 C 269.824 288.814,271.185 285.418,271.063 285.296 C 270.941 285.175,269.381 288.371,267.596 292.400 M95.627 288.540 C 95.632 290.267,95.754 290.899,95.898 289.944 C 96.042 288.990,96.038 287.577,95.889 286.805 C 95.740 286.032,95.622 286.813,95.627 288.540 M289.653 288.226 C 289.653 289.780,289.775 290.416,289.925 289.639 C 290.075 288.862,290.075 287.590,289.925 286.813 C 289.775 286.036,289.653 286.672,289.653 288.226 M88.077 290.424 C 88.077 293.532,88.193 294.176,88.472 292.622 C 88.753 291.050,89.177 290.449,89.959 290.511 C 90.827 290.580,91.034 290.129,90.966 288.313 C 90.901 286.571,90.811 286.401,90.589 287.598 C 90.123 290.103,88.909 290.363,88.466 288.052 C 88.211 286.724,88.077 287.539,88.077 290.424 M285.266 289.168 C 285.271 290.895,285.393 291.527,285.537 290.572 C 285.681 289.618,285.677 288.205,285.528 287.432 C 285.379 286.660,285.261 287.441,285.266 289.168 M94.363 290.110 C 94.363 291.664,94.485 292.300,94.635 291.523 C 94.784 290.746,94.784 289.474,94.635 288.697 C 94.485 287.920,94.363 288.556,94.363 290.110 M91.223 293.878 C 91.223 295.432,91.345 296.068,91.495 295.290 C 91.645 294.513,91.645 293.242,91.495 292.465 C 91.345 291.688,91.223 292.323,91.223 293.878 M289.034 294.192 C 289.038 295.918,289.160 296.550,289.305 295.596 C 289.449 294.641,289.445 293.228,289.296 292.456 C 289.147 291.684,289.029 292.465,289.034 294.192 M96.264 295.133 C 96.264 297.033,96.381 297.810,96.525 296.860 C 96.669 295.911,96.669 294.356,96.525 293.407 C 96.381 292.457,96.264 293.234,96.264 295.133 M284.638 295.447 C 284.643 297.174,284.765 297.806,284.909 296.852 C 285.053 295.897,285.049 294.484,284.900 293.712 C 284.751 292.940,284.633 293.721,284.638 295.447 M94.990 295.761 C 94.990 297.316,95.113 297.951,95.263 297.174 C 95.412 296.397,95.412 295.126,95.263 294.349 C 95.113 293.571,94.990 294.207,94.990 295.761 M88.698 297.331 C 88.705 298.713,88.834 299.204,88.984 298.423 C 89.134 297.642,89.129 296.511,88.971 295.911 C 88.814 295.311,88.691 295.950,88.698 297.331 M91.851 299.529 C 91.851 301.083,91.973 301.719,92.123 300.942 C 92.273 300.165,92.273 298.893,92.123 298.116 C 91.973 297.339,91.851 297.975,91.851 299.529 M155.953 302.355 C 155.951 305.463,156.057 306.814,156.189 305.356 C 156.321 303.899,156.322 301.356,156.192 299.705 C 156.063 298.054,155.955 299.246,155.953 302.355 M254.712 303.692 C 253.449 307.034,252.520 309.872,252.648 310.000 C 252.776 310.128,253.914 307.499,255.178 304.157 C 256.441 300.816,257.370 297.977,257.242 297.849 C 257.114 297.721,255.976 300.351,254.712 303.692 M288.406 300.471 C 288.410 302.198,288.532 302.830,288.677 301.875 C 288.821 300.921,288.817 299.508,288.668 298.735 C 288.519 297.963,288.401 298.744,288.406 300.471 M95.606 301.099 C 95.613 302.480,95.741 302.972,95.892 302.190 C 96.042 301.409,96.036 300.279,95.879 299.679 C 95.722 299.078,95.599 299.717,95.606 301.099 M96.449 303.500 C 96.180 306.203,96.102 308.556,96.276 308.730 C 96.708 309.162,97.522 301.260,97.199 299.776 C 97.056 299.122,96.719 300.798,96.449 303.500 M284.010 301.727 C 284.015 303.454,284.137 304.086,284.281 303.131 C 284.425 302.177,284.422 300.764,284.272 299.991 C 284.123 299.219,284.005 300.000,284.010 301.727 M89.339 302.669 C 89.339 304.223,89.461 304.859,89.611 304.082 C 89.761 303.305,89.761 302.033,89.611 301.256 C 89.461 300.479,89.339 301.115,89.339 302.669 M260.689 308.099 C 258.904 312.127,257.543 315.524,257.665 315.645 C 257.787 315.767,259.347 312.571,261.132 308.542 C 262.917 304.513,264.278 301.117,264.156 300.995 C 264.034 300.873,262.474 304.070,260.689 308.099 M92.479 305.181 C 92.479 306.735,92.601 307.370,92.751 306.593 C 92.901 305.816,92.901 304.545,92.751 303.768 C 92.601 302.991,92.479 303.626,92.479 305.181 M262.580 307.704 C 259.994 313.495,259.559 314.691,260.528 313.344 C 261.655 311.776,261.336 313.618,259.743 317.868 C 257.393 324.136,257.312 324.441,258.516 322.449 L 259.655 320.565 260.016 327.786 L 260.376 335.008 260.425 326.217 C 260.469 318.095,260.618 317.019,262.371 312.088 L 264.270 306.750 264.317 323.844 C 264.364 340.784,264.350 340.969,262.786 344.506 C 261.918 346.468,261.317 348.182,261.450 348.315 C 261.582 348.448,262.442 346.780,263.359 344.608 L 265.028 340.659 264.853 321.833 L 264.678 303.007 262.580 307.704 M287.769 306.436 C 287.769 307.991,287.892 308.626,288.041 307.849 C 288.191 307.072,288.191 305.801,288.041 305.024 C 287.892 304.246,287.769 304.882,287.769 306.436 M283.382 308.006 C 283.387 309.733,283.509 310.365,283.653 309.411 C 283.797 308.456,283.794 307.043,283.645 306.271 C 283.495 305.498,283.377 306.279,283.382 308.006 M89.954 308.006 C 89.961 309.388,90.090 309.879,90.240 309.098 C 90.390 308.317,90.385 307.186,90.227 306.586 C 90.070 305.986,89.947 306.625,89.954 308.006 M97.048 309.762 C 96.775 312.108,96.703 314.181,96.889 314.367 C 97.349 314.826,98.151 308.156,97.814 306.676 C 97.666 306.026,97.322 307.415,97.048 309.762 M93.107 310.832 C 93.107 312.386,93.229 313.022,93.379 312.245 C 93.528 311.468,93.528 310.196,93.379 309.419 C 93.229 308.642,93.107 309.278,93.107 310.832 M155.325 314.286 C 155.323 317.394,155.429 318.745,155.561 317.287 C 155.693 315.830,155.694 313.287,155.564 311.636 C 155.435 309.985,155.327 311.177,155.325 314.286 M287.150 312.402 C 287.154 314.129,287.276 314.761,287.421 313.806 C 287.565 312.852,287.561 311.439,287.412 310.666 C 287.263 309.894,287.145 310.675,287.150 312.402 M90.582 313.030 C 90.589 314.411,90.718 314.903,90.868 314.121 C 91.018 313.340,91.012 312.210,90.855 311.610 C 90.698 311.009,90.575 311.648,90.582 313.030 M251.247 312.786 C 250.860 313.895,250.654 314.913,250.788 315.048 C 250.922 315.182,251.349 314.384,251.736 313.274 C 252.122 312.164,252.329 311.146,252.195 311.012 C 252.060 310.878,251.634 311.676,251.247 312.786 M282.754 314.286 C 282.759 316.013,282.881 316.644,283.025 315.690 C 283.170 314.735,283.166 313.323,283.017 312.550 C 282.868 311.778,282.749 312.559,282.754 314.286 M97.761 314.700 C 97.465 316.162,98.108 324.253,99.528 336.923 C 100.755 347.882,101.631 356.977,101.473 357.135 C 100.932 357.676,98.273 351.963,97.897 349.451 L 97.520 346.939 97.426 349.608 C 97.360 351.470,97.058 352.276,96.425 352.276 C 95.816 352.276,95.441 351.403,95.279 349.608 L 95.039 346.939 94.929 349.630 C 94.837 351.882,95.448 353.422,98.663 359.050 C 101.390 363.824,102.657 366.780,103.027 369.231 C 103.930 375.204,103.135 363.716,101.398 345.683 C 100.534 336.703,99.466 325.542,99.026 320.879 C 98.390 314.144,98.130 312.874,97.761 314.700 M93.735 316.484 C 93.735 318.038,93.857 318.673,94.007 317.896 C 94.156 317.119,94.156 315.848,94.007 315.071 C 93.857 314.294,93.735 314.929,93.735 316.484 M249.556 336.938 C 244.084 349.249,239.508 359.027,239.388 358.667 C 239.268 358.307,239.632 357.120,240.197 356.028 C 240.761 354.937,241.103 353.924,240.957 353.778 C 240.811 353.632,239.347 356.554,237.702 360.273 C 234.238 368.107,233.639 369.796,235.414 366.719 C 236.956 364.046,237.147 365.183,235.675 368.271 C 235.092 369.493,234.433 370.199,234.211 369.840 C 233.989 369.480,232.344 372.490,230.555 376.528 C 228.766 380.566,227.421 383.988,227.566 384.133 C 227.710 384.278,228.027 383.772,228.269 383.010 C 228.565 382.076,228.861 381.869,229.174 382.377 C 229.445 382.815,235.970 368.897,244.792 349.062 C 253.126 330.325,259.846 314.896,259.725 314.775 C 259.604 314.654,255.028 324.628,249.556 336.938 M91.223 318.367 C 91.223 319.922,91.345 320.557,91.495 319.780 C 91.645 319.003,91.645 317.732,91.495 316.954 C 91.345 316.177,91.223 316.813,91.223 318.367 M247.805 321.902 C 246.542 325.244,245.613 328.083,245.741 328.210 C 245.868 328.338,247.007 325.709,248.270 322.368 C 249.534 319.026,250.463 316.187,250.335 316.060 C 250.207 315.932,249.069 318.561,247.805 321.902 M286.513 318.367 C 286.513 319.922,286.636 320.557,286.785 319.780 C 286.935 319.003,286.935 317.732,286.785 316.954 C 286.636 316.177,286.513 316.813,286.513 318.367 M294.057 318.681 C 294.062 320.408,294.184 321.040,294.328 320.086 C 294.472 319.131,294.469 317.718,294.320 316.946 C 294.171 316.174,294.052 316.954,294.057 318.681 M253.782 323.797 C 251.997 327.826,250.636 331.222,250.758 331.344 C 250.880 331.466,252.440 328.269,254.225 324.240 C 256.010 320.212,257.370 316.816,257.248 316.694 C 257.126 316.572,255.566 319.768,253.782 323.797 M282.126 320.565 C 282.131 322.292,282.253 322.924,282.397 321.969 C 282.542 321.015,282.538 319.602,282.389 318.830 C 282.240 318.057,282.122 318.838,282.126 320.565 M94.363 322.135 C 94.363 323.689,94.485 324.325,94.635 323.548 C 94.784 322.771,94.784 321.499,94.635 320.722 C 94.485 319.945,94.363 320.581,94.363 322.135 M154.694 325.903 C 154.694 328.838,154.802 330.039,154.934 328.571 C 155.066 327.104,155.066 324.702,154.934 323.234 C 154.802 321.766,154.694 322.967,154.694 325.903 M91.838 323.705 C 91.845 325.086,91.974 325.578,92.124 324.796 C 92.274 324.015,92.268 322.885,92.111 322.285 C 91.954 321.684,91.831 322.323,91.838 323.705 M285.885 324.647 C 285.885 326.201,286.008 326.837,286.157 326.060 C 286.307 325.283,286.307 324.011,286.157 323.234 C 286.008 322.457,285.885 323.093,285.885 324.647 M293.438 325.275 C 293.438 327.174,293.555 327.951,293.699 327.002 C 293.843 326.052,293.843 324.498,293.699 323.548 C 293.555 322.598,293.438 323.375,293.438 325.275 M281.498 326.845 C 281.503 328.571,281.625 329.203,281.769 328.249 C 281.914 327.294,281.910 325.881,281.761 325.109 C 281.612 324.337,281.494 325.118,281.498 326.845 M255.031 329.442 C 253.948 332.101,253.165 334.379,253.290 334.504 C 253.416 334.630,254.405 332.557,255.487 329.899 C 256.570 327.240,257.353 324.962,257.228 324.836 C 257.102 324.711,256.114 326.783,255.031 329.442 M94.978 327.473 C 94.985 328.854,95.113 329.345,95.264 328.564 C 95.414 327.783,95.408 326.653,95.251 326.052 C 95.094 325.452,94.971 326.091,94.978 327.473 M92.466 328.728 C 92.473 330.110,92.602 330.601,92.752 329.820 C 92.902 329.039,92.896 327.909,92.739 327.308 C 92.582 326.708,92.459 327.347,92.466 328.728 M285.266 330.612 C 285.271 332.339,285.393 332.971,285.537 332.016 C 285.681 331.062,285.677 329.649,285.528 328.877 C 285.379 328.104,285.261 328.885,285.266 330.612 M242.782 335.089 C 241.518 338.431,240.589 341.269,240.717 341.397 C 240.845 341.525,241.983 338.896,243.247 335.554 C 244.510 332.213,245.439 329.374,245.311 329.246 C 245.183 329.118,244.045 331.748,242.782 335.089 M292.801 331.868 C 292.806 333.595,292.928 334.227,293.072 333.272 C 293.217 332.318,293.213 330.905,293.064 330.133 C 292.915 329.360,292.797 330.141,292.801 331.868 M280.870 333.124 C 280.875 334.851,280.997 335.483,281.141 334.528 C 281.286 333.574,281.282 332.161,281.133 331.389 C 280.984 330.616,280.866 331.397,280.870 333.124 M95.606 333.124 C 95.613 334.505,95.741 334.997,95.892 334.216 C 96.042 333.434,96.036 332.304,95.879 331.704 C 95.722 331.103,95.599 331.743,95.606 333.124 M93.107 334.066 C 93.107 335.620,93.229 336.256,93.379 335.479 C 93.528 334.702,93.528 333.430,93.379 332.653 C 93.229 331.876,93.107 332.512,93.107 334.066 M249.092 334.409 C 247.617 337.503,247.825 338.029,249.367 335.106 C 250.067 333.778,250.529 332.580,250.393 332.445 C 250.258 332.309,249.672 333.193,249.092 334.409 M154.066 337.834 C 154.066 340.769,154.174 341.970,154.306 340.502 C 154.438 339.035,154.438 336.633,154.306 335.165 C 154.174 333.697,154.066 334.898,154.066 337.834 M284.629 336.578 C 284.629 338.132,284.752 338.768,284.902 337.991 C 285.051 337.214,285.051 335.942,284.902 335.165 C 284.752 334.388,284.629 335.024,284.629 336.578 M251.261 338.545 C 250.518 340.334,250.013 341.902,250.139 342.029 C 250.266 342.155,250.978 340.795,251.722 339.006 C 252.465 337.217,252.970 335.649,252.843 335.522 C 252.717 335.396,252.005 336.756,251.261 338.545 M96.246 338.462 C 96.246 340.016,96.369 340.651,96.519 339.874 C 96.668 339.097,96.668 337.826,96.519 337.049 C 96.369 336.272,96.246 336.907,96.246 338.462 M292.173 338.776 C 292.178 340.502,292.300 341.134,292.444 340.180 C 292.589 339.225,292.585 337.812,292.436 337.040 C 292.287 336.268,292.169 337.049,292.173 338.776 M280.242 339.403 C 280.247 341.130,280.369 341.762,280.513 340.808 C 280.658 339.853,280.654 338.440,280.505 337.668 C 280.356 336.896,280.238 337.677,280.242 339.403 M93.722 339.403 C 93.729 340.785,93.857 341.276,94.008 340.495 C 94.158 339.714,94.152 338.584,93.995 337.983 C 93.838 337.383,93.715 338.022,93.722 339.403 M244.362 345.147 C 242.578 349.176,241.217 352.572,241.339 352.694 C 241.461 352.816,243.021 349.619,244.806 345.591 C 246.590 341.562,247.951 338.166,247.829 338.044 C 247.707 337.922,246.147 341.118,244.362 345.147 M259.005 341.228 C 258.555 342.297,257.592 344.553,256.864 346.243 C 256.137 347.932,255.648 349.421,255.778 349.551 C 255.909 349.682,256.877 347.734,257.930 345.224 C 259.683 341.043,260.021 340.631,261.947 340.319 L 264.050 339.979 261.936 339.632 C 260.031 339.320,259.742 339.477,259.005 341.228 M284.001 342.857 C 284.001 344.411,284.124 345.047,284.274 344.270 C 284.423 343.493,284.423 342.221,284.274 341.444 C 284.124 340.667,284.001 341.303,284.001 342.857 M96.874 344.113 C 96.874 345.667,96.997 346.303,97.146 345.526 C 97.296 344.749,97.296 343.477,97.146 342.700 C 96.997 341.923,96.874 342.559,96.874 344.113 M94.350 344.427 C 94.357 345.808,94.485 346.300,94.636 345.519 C 94.786 344.737,94.780 343.607,94.623 343.007 C 94.466 342.406,94.343 343.046,94.350 344.427 M237.758 348.276 C 236.495 351.618,235.566 354.456,235.693 354.584 C 235.821 354.712,236.960 352.083,238.223 348.741 C 239.487 345.400,240.416 342.561,240.288 342.433 C 240.160 342.305,239.021 344.935,237.758 348.276 M291.545 345.055 C 291.550 346.782,291.672 347.414,291.816 346.459 C 291.961 345.505,291.957 344.092,291.808 343.319 C 291.659 342.547,291.541 343.328,291.545 345.055 M247.495 347.652 C 246.413 350.311,245.629 352.589,245.755 352.715 C 245.881 352.840,246.869 350.768,247.952 348.109 C 249.035 345.450,249.818 343.172,249.692 343.047 C 249.567 342.921,248.578 344.994,247.495 347.652 M279.614 345.683 C 279.619 347.410,279.741 348.042,279.885 347.087 C 280.030 346.133,280.026 344.720,279.877 343.947 C 279.728 343.175,279.610 343.956,279.614 345.683 M153.438 349.765 C 153.438 352.700,153.546 353.901,153.678 352.433 C 153.810 350.965,153.810 348.564,153.678 347.096 C 153.546 345.628,153.438 346.829,153.438 349.765 M283.382 348.823 C 283.387 350.549,283.509 351.181,283.653 350.227 C 283.797 349.272,283.794 347.859,283.645 347.087 C 283.495 346.315,283.377 347.096,283.382 348.823 M260.071 350.733 C 259.018 353.042,259.219 353.535,260.357 351.436 C 260.888 350.456,261.205 349.536,261.062 349.392 C 260.918 349.249,260.472 349.852,260.071 350.733 M278.987 351.962 C 278.991 353.689,279.113 354.321,279.258 353.367 C 279.402 352.412,279.398 350.999,279.249 350.227 C 279.100 349.455,278.982 350.235,278.987 351.962 M290.917 351.962 C 290.922 353.689,291.044 354.321,291.188 353.367 C 291.333 352.412,291.329 350.999,291.180 350.227 C 291.031 349.455,290.913 350.235,290.917 351.962 M252.835 355.818 C 251.568 358.811,250.634 361.361,250.758 361.485 C 250.882 361.610,252.020 359.263,253.287 356.270 C 254.554 353.277,255.489 350.727,255.365 350.603 C 255.240 350.478,254.102 352.825,252.835 355.818 M100.103 356.303 C 101.435 358.685,102.354 361.186,102.353 362.425 C 102.352 364.335,102.072 364.022,99.206 358.912 C 96.338 353.800,96.040 352.445,97.748 352.286 C 97.805 352.281,98.864 354.088,100.103 356.303 M282.746 354.788 C 282.746 356.342,282.868 356.978,283.018 356.201 C 283.167 355.424,283.167 354.152,283.018 353.375 C 282.868 352.598,282.746 353.234,282.746 354.788 M240.898 363.661 C 238.602 369.251,236.825 373.926,236.949 374.050 C 237.073 374.174,239.053 369.702,241.349 364.112 C 243.645 358.522,245.422 353.847,245.298 353.723 C 245.175 353.599,243.195 358.072,240.898 363.661 M254.095 364.614 C 251.461 370.728,249.405 375.831,249.527 375.953 C 249.649 376.075,251.904 371.172,254.539 365.057 C 257.173 358.942,259.229 353.839,259.107 353.717 C 258.985 353.595,256.730 358.499,254.095 364.614 M234.293 357.370 C 233.906 358.479,233.699 359.497,233.834 359.632 C 233.968 359.766,234.394 358.968,234.781 357.858 C 235.168 356.748,235.375 355.730,235.240 355.596 C 235.106 355.462,234.680 356.260,234.293 357.370 M278.359 358.242 C 278.363 359.969,278.485 360.601,278.630 359.646 C 278.774 358.691,278.770 357.279,278.621 356.506 C 278.472 355.734,278.354 356.515,278.359 358.242 M290.204 357.127 C 290.152 358.240,289.262 361.285,288.226 363.893 C 286.887 367.264,286.368 369.584,286.431 371.916 L 286.521 375.196 286.979 371.115 C 287.230 368.870,287.886 366.044,288.435 364.835 L 289.433 362.637 289.541 365.463 C 289.623 367.620,289.779 367.099,290.199 363.265 C 290.501 360.502,290.647 357.535,290.523 356.672 C 290.344 355.421,290.279 355.514,290.204 357.127 M152.813 361.381 C 152.811 364.490,152.917 365.841,153.049 364.383 C 153.181 362.926,153.182 360.383,153.053 358.732 C 152.923 357.081,152.815 358.273,152.813 361.381 M282.118 361.068 C 282.118 362.622,282.240 363.257,282.390 362.480 C 282.539 361.703,282.539 360.432,282.390 359.655 C 282.240 358.878,282.118 359.513,282.118 361.068 M238.305 362.323 C 237.678 363.712,237.025 364.707,236.852 364.534 C 236.679 364.361,237.050 363.084,237.677 361.695 C 238.303 360.307,238.956 359.312,239.129 359.485 C 239.302 359.658,238.931 360.935,238.305 362.323 M230.851 366.486 C 229.587 369.828,228.658 372.667,228.786 372.794 C 228.914 372.922,230.052 370.293,231.316 366.952 C 232.579 363.610,233.508 360.771,233.380 360.644 C 233.252 360.516,232.114 363.145,230.851 366.486 M277.731 364.521 C 277.735 366.248,277.857 366.880,278.002 365.925 C 278.146 364.971,278.142 363.558,277.993 362.786 C 277.844 362.013,277.726 362.794,277.731 364.521 M246.871 369.948 C 245.084 374.147,243.722 377.683,243.845 377.807 C 243.969 377.930,245.532 374.596,247.320 370.397 C 249.108 366.198,250.469 362.662,250.346 362.539 C 250.223 362.415,248.659 365.750,246.871 369.948 M281.498 367.033 C 281.503 368.760,281.625 369.392,281.769 368.437 C 281.914 367.483,281.910 366.070,281.761 365.297 C 281.612 364.525,281.494 365.306,281.498 367.033 M152.182 372.998 C 152.182 375.934,152.290 377.135,152.422 375.667 C 152.554 374.199,152.554 371.797,152.422 370.330 C 152.290 368.862,152.182 370.063,152.182 372.998 M277.103 370.801 C 277.107 372.527,277.229 373.159,277.374 372.205 C 277.518 371.250,277.514 369.837,277.365 369.065 C 277.216 368.293,277.098 369.074,277.103 370.801 M289.034 371.429 C 289.038 373.155,289.160 373.787,289.305 372.833 C 289.449 371.878,289.445 370.465,289.296 369.693 C 289.147 368.921,289.029 369.702,289.034 371.429 M118.681 370.136 C 118.681 370.633,118.964 371.215,119.309 371.429 C 119.655 371.642,119.937 371.235,119.937 370.524 C 119.937 369.813,119.655 369.231,119.309 369.231 C 118.964 369.231,118.681 369.638,118.681 370.136 M232.013 376.440 C 230.700 379.386,229.511 381.682,229.370 381.542 C 229.230 381.401,230.170 378.857,231.460 375.887 C 232.750 372.917,233.939 370.621,234.102 370.785 C 234.266 370.948,233.326 373.493,232.013 376.440 M280.862 372.998 C 280.862 374.553,280.984 375.188,281.134 374.411 C 281.284 373.634,281.284 372.363,281.134 371.586 C 280.984 370.808,280.862 371.444,280.862 372.998 M103.790 376.452 C 103.795 378.179,103.917 378.811,104.061 377.856 C 104.206 376.902,104.202 375.489,104.053 374.717 C 103.904 373.944,103.786 374.725,103.790 376.452 M225.827 379.673 C 224.564 383.015,223.635 385.853,223.763 385.981 C 223.890 386.109,225.029 383.480,226.292 380.138 C 227.556 376.797,228.485 373.958,228.357 373.830 C 228.229 373.702,227.091 376.332,225.827 379.673 M276.475 377.080 C 276.479 378.807,276.601 379.439,276.746 378.484 C 276.890 377.530,276.886 376.117,276.737 375.345 C 276.588 374.572,276.470 375.353,276.475 377.080 M234.309 379.677 C 233.226 382.336,232.443 384.614,232.568 384.740 C 232.694 384.865,233.682 382.793,234.765 380.134 C 235.848 377.475,236.631 375.197,236.506 375.072 C 236.380 374.946,235.391 377.019,234.309 379.677 M287.585 377.881 L 286.702 380.220 286.291 378.022 C 285.911 375.991,285.874 376.063,285.801 378.964 L 285.723 382.104 286.970 380.220 C 288.671 377.652,288.543 378.910,286.622 383.636 C 285.740 385.807,285.147 387.711,285.304 387.868 C 285.461 388.025,285.964 387.075,286.421 385.756 L 287.254 383.359 287.602 385.871 C 287.872 387.822,288.060 387.001,288.444 382.198 C 289.000 375.245,288.855 374.514,287.585 377.881 M244.048 387.847 C 241.414 393.962,239.358 399.065,239.480 399.187 C 239.602 399.309,241.857 394.406,244.492 388.291 C 247.126 382.176,249.182 377.073,249.060 376.951 C 248.938 376.829,246.683 381.733,244.048 387.847 M280.234 379.278 C 280.234 380.832,280.356 381.468,280.506 380.691 C 280.656 379.914,280.656 378.642,280.506 377.865 C 280.356 377.088,280.234 377.724,280.234 379.278 M239.964 386.275 C 238.176 390.474,236.815 394.010,236.938 394.133 C 237.061 394.257,238.625 390.922,240.413 386.723 C 242.200 382.525,243.562 378.988,243.439 378.865 C 243.315 378.742,241.752 382.076,239.964 386.275 M151.554 384.929 C 151.554 387.865,151.662 389.066,151.794 387.598 C 151.926 386.130,151.926 383.728,151.794 382.261 C 151.662 380.793,151.554 381.994,151.554 384.929 M290.304 383.359 C 290.308 385.432,290.425 386.204,290.565 385.075 C 290.705 383.946,290.702 382.251,290.559 381.307 C 290.415 380.364,290.301 381.287,290.304 383.359 M275.847 383.359 C 275.852 385.086,275.973 385.718,276.118 384.764 C 276.262 383.809,276.258 382.396,276.109 381.624 C 275.960 380.852,275.842 381.633,275.847 383.359 M279.614 385.243 C 279.619 386.970,279.741 387.602,279.885 386.648 C 280.030 385.693,280.026 384.280,279.877 383.508 C 279.728 382.736,279.610 383.516,279.614 385.243 M146.311 383.950 C 146.311 384.448,146.593 385.030,146.939 385.243 C 147.284 385.457,147.567 385.050,147.567 384.338 C 147.567 383.627,147.284 383.046,146.939 383.046 C 146.593 383.046,146.311 383.453,146.311 383.950 M228.246 384.965 C 227.956 385.878,227.650 386.099,227.350 385.612 C 226.978 385.011,221.878 395.398,220.594 399.372 C 220.324 400.209,220.365 400.209,220.967 399.372 C 221.570 398.535,221.649 398.535,221.681 399.372 C 221.701 399.890,222.258 399.325,222.920 398.116 C 224.154 395.863,224.641 393.913,223.548 395.604 C 223.007 396.442,222.939 396.442,222.939 395.604 C 222.939 394.231,224.143 392.422,224.193 393.721 C 224.212 394.239,224.770 393.673,225.432 392.465 C 226.666 390.211,227.153 388.261,226.060 389.953 C 225.519 390.790,225.451 390.790,225.451 389.953 C 225.451 388.578,226.654 386.772,226.706 388.069 C 226.726 388.587,227.316 387.925,228.017 386.597 C 228.717 385.269,229.154 384.047,228.988 383.881 C 228.822 383.715,228.488 384.203,228.246 384.965 M229.286 391.923 C 227.861 395.449,226.797 398.435,226.922 398.560 C 227.048 398.685,228.316 395.903,229.741 392.378 C 231.166 388.853,232.229 385.866,232.104 385.741 C 231.979 385.616,230.711 388.398,229.286 391.923 M220.804 392.860 C 219.540 396.202,218.611 399.040,218.739 399.168 C 218.867 399.296,220.005 396.667,221.269 393.325 C 222.532 389.984,223.461 387.145,223.333 387.017 C 223.205 386.889,222.067 389.519,220.804 392.860 M275.219 389.639 C 275.224 391.366,275.346 391.998,275.490 391.043 C 275.634 390.089,275.630 388.676,275.481 387.903 C 275.332 387.131,275.214 387.912,275.219 389.639 M289.677 391.523 C 289.680 393.595,289.797 394.367,289.937 393.238 C 290.077 392.110,290.074 390.414,289.931 389.471 C 289.787 388.527,289.673 389.451,289.677 391.523 M278.978 391.209 C 278.978 392.763,279.100 393.399,279.250 392.622 C 279.400 391.845,279.400 390.573,279.250 389.796 C 279.100 389.019,278.978 389.655,278.978 391.209 M284.647 391.837 C 284.647 393.736,284.764 394.513,284.908 393.564 C 285.052 392.614,285.052 391.060,284.908 390.110 C 284.764 389.160,284.647 389.937,284.647 391.837 M287.150 391.523 C 287.154 393.250,287.276 393.882,287.421 392.927 C 287.565 391.972,287.561 390.560,287.412 389.787 C 287.263 389.015,287.145 389.796,287.150 391.523 M150.926 396.860 C 150.926 399.796,151.034 400.997,151.166 399.529 C 151.298 398.061,151.298 395.659,151.166 394.192 C 151.034 392.724,150.926 393.925,150.926 396.860 M167.661 393.370 C 167.661 393.867,167.943 394.449,168.289 394.662 C 168.634 394.876,168.917 394.469,168.917 393.758 C 168.917 393.047,168.634 392.465,168.289 392.465 C 167.943 392.465,167.661 392.872,167.661 393.370 M274.591 395.918 C 274.596 397.645,274.718 398.277,274.862 397.323 C 275.006 396.368,275.002 394.955,274.853 394.183 C 274.704 393.411,274.586 394.192,274.591 395.918 M233.997 400.402 C 232.730 403.395,231.795 405.945,231.920 406.069 C 232.044 406.194,233.182 403.847,234.449 400.854 C 235.716 397.861,236.651 395.311,236.526 395.187 C 236.402 395.062,235.264 397.409,233.997 400.402 M278.350 397.488 C 278.350 399.042,278.472 399.678,278.622 398.901 C 278.772 398.124,278.772 396.852,278.622 396.075 C 278.472 395.298,278.350 395.934,278.350 397.488 M286.342 395.889 C 286.342 396.391,285.989 397.581,285.557 398.534 L 284.772 400.267 284.384 398.092 C 284.036 396.145,283.989 396.245,283.933 399.058 C 283.875 401.948,285.505 401.981,285.777 399.095 C 285.811 398.729,286.066 399.137,286.342 400.000 C 286.738 401.235,286.858 400.867,286.908 398.273 C 286.942 396.460,286.829 394.976,286.656 394.976 C 286.484 394.976,286.342 395.387,286.342 395.889 M289.049 399.686 C 289.052 401.758,289.169 402.530,289.309 401.402 C 289.449 400.273,289.446 398.578,289.303 397.634 C 289.159 396.690,289.045 397.614,289.049 399.686 M273.963 402.198 C 273.968 403.925,274.090 404.557,274.234 403.602 C 274.378 402.648,274.374 401.235,274.225 400.462 C 274.076 399.690,273.958 400.471,273.963 402.198 M217.338 401.954 C 216.951 403.063,216.745 404.081,216.879 404.216 C 217.013 404.350,217.440 403.552,217.827 402.442 C 218.213 401.332,218.420 400.314,218.286 400.180 C 218.151 400.046,217.725 400.844,217.338 401.954 M236.082 406.266 L 233.385 412.581 231.945 411.227 C 230.843 410.193,230.646 409.608,231.107 408.746 C 232.062 406.962,231.765 406.417,230.791 408.163 C 229.993 409.593,230.048 409.874,231.413 411.308 L 232.911 412.883 228.522 414.688 C 226.109 415.681,224.246 416.606,224.383 416.743 C 224.714 417.074,232.446 413.800,233.395 412.927 C 234.248 412.144,239.363 400.536,239.011 400.183 C 238.883 400.055,237.565 402.792,236.082 406.266 M217.214 406.889 C 214.402 413.353,213.019 414.792,215.383 408.794 C 216.100 406.976,216.576 405.377,216.440 405.242 C 215.547 404.349,211.688 417.167,212.426 418.575 C 213.361 420.360,219.000 408.676,218.663 405.651 C 218.550 404.637,218.675 404.361,219.016 404.870 C 219.387 405.423,219.868 404.980,220.631 403.379 C 221.229 402.126,221.564 400.947,221.377 400.760 C 221.190 400.572,221.032 400.819,221.026 401.308 C 221.019 402.023,220.914 402.036,220.494 401.374 C 220.142 400.819,219.073 402.617,217.214 406.889 M277.731 403.454 C 277.735 405.181,277.857 405.812,278.002 404.858 C 278.146 403.903,278.142 402.491,277.993 401.718 C 277.844 400.946,277.726 401.727,277.731 403.454 M284.960 406.123 C 283.175 413.206,283.146 413.703,284.805 408.818 C 285.680 406.243,286.313 403.629,286.212 403.010 C 286.111 402.391,285.548 403.792,284.960 406.123 M288.312 405.700 C 288.265 406.590,287.504 409.095,286.622 411.266 C 285.740 413.436,285.130 415.323,285.266 415.459 C 285.801 415.995,288.930 406.863,288.672 405.517 C 288.416 404.178,288.391 404.191,288.312 405.700 M273.335 408.477 C 273.340 410.204,273.462 410.836,273.606 409.881 C 273.750 408.927,273.746 407.514,273.597 406.742 C 273.448 405.969,273.330 406.750,273.335 408.477 M217.342 409.203 C 216.641 410.531,216.056 411.415,216.040 411.167 C 215.996 410.445,218.097 406.271,218.368 406.542 C 218.504 406.678,218.042 407.875,217.342 409.203 M277.094 409.419 C 277.094 410.973,277.217 411.609,277.366 410.832 C 277.516 410.055,277.516 408.783,277.366 408.006 C 277.217 407.229,277.094 407.865,277.094 409.419 M289.588 411.013 C 289.524 412.544,287.247 419.118,283.839 427.609 C 280.735 435.343,278.298 441.773,278.424 441.899 C 279.192 442.667,290.173 413.112,289.943 410.893 L 289.693 408.477 289.588 411.013 M225.432 410.989 C 224.223 411.455,223.658 411.835,224.176 411.835 C 224.694 411.835,226.107 411.455,227.316 410.989 C 228.524 410.524,229.089 410.143,228.571 410.143 C 228.053 410.143,226.641 410.524,225.432 410.989 M214.994 414.652 C 214.404 415.889,213.655 416.736,213.330 416.535 C 212.983 416.320,212.908 416.786,213.150 417.661 C 213.477 418.848,213.428 418.942,212.911 418.124 C 212.459 417.408,212.475 416.481,212.964 415.080 C 213.426 413.754,213.829 413.329,214.143 413.837 C 214.473 414.371,214.755 414.182,215.059 413.222 C 215.301 412.460,215.627 411.964,215.783 412.120 C 215.939 412.276,215.584 413.415,214.994 414.652 M272.707 414.757 C 272.712 416.484,272.834 417.115,272.978 416.161 C 273.122 415.206,273.119 413.794,272.970 413.021 C 272.820 412.249,272.702 413.030,272.707 414.757 M276.466 415.699 C 276.466 417.253,276.589 417.889,276.738 417.111 C 276.888 416.334,276.888 415.063,276.738 414.286 C 276.589 413.509,276.466 414.144,276.466 415.699 M282.004 416.384 C 281.579 417.801,281.347 419.076,281.489 419.217 C 281.630 419.359,282.093 418.315,282.517 416.897 C 282.942 415.480,283.174 414.205,283.033 414.064 C 282.891 413.922,282.428 414.966,282.004 416.384 M294.259 414.808 C 294.049 415.354,293.878 416.169,293.878 416.618 C 293.878 417.067,289.055 426.581,283.160 437.760 C 277.265 448.938,272.645 457.378,272.893 456.515 C 273.411 454.710,273.419 454.552,273.162 451.177 C 272.988 448.891,272.929 449.004,272.503 452.433 C 272.000 456.492,271.871 461.878,272.318 460.202 C 272.467 459.640,277.473 449.882,283.442 438.518 C 289.410 427.154,294.476 416.947,294.698 415.836 C 295.126 413.693,294.895 413.151,294.259 414.808 M272.079 421.036 C 272.084 422.763,272.206 423.395,272.350 422.440 C 272.494 421.486,272.491 420.073,272.342 419.301 C 272.193 418.528,272.074 419.309,272.079 421.036 M275.847 421.664 C 275.852 423.391,275.973 424.023,276.118 423.068 C 276.262 422.114,276.258 420.701,276.109 419.929 C 275.960 419.156,275.842 419.937,275.847 421.664 M281.323 424.793 C 279.125 430.477,278.485 431.415,279.064 428.100 C 279.365 426.373,279.270 426.466,278.441 428.705 C 276.025 435.234,278.578 433.333,281.224 426.633 C 282.680 422.944,283.764 419.818,283.631 419.686 C 283.499 419.553,282.460 421.852,281.323 424.793 M280.120 422.663 C 279.695 424.080,279.463 425.356,279.605 425.497 C 279.746 425.638,280.209 424.594,280.634 423.177 C 281.058 421.759,281.290 420.484,281.149 420.343 C 281.008 420.202,280.545 421.246,280.120 422.663 M271.443 427.002 C 271.443 428.556,271.565 429.192,271.715 428.414 C 271.864 427.637,271.864 426.366,271.715 425.589 C 271.565 424.812,271.443 425.447,271.443 427.002 M275.210 427.630 C 275.210 429.184,275.333 429.819,275.482 429.042 C 275.632 428.265,275.632 426.994,275.482 426.217 C 275.333 425.440,275.210 426.075,275.210 427.630 M270.815 433.281 C 270.815 434.835,270.937 435.471,271.087 434.694 C 271.236 433.917,271.236 432.645,271.087 431.868 C 270.937 431.091,270.815 431.727,270.815 433.281 M274.591 433.595 C 274.596 435.322,274.718 435.954,274.862 434.999 C 275.006 434.045,275.002 432.632,274.853 431.859 C 274.704 431.087,274.586 431.868,274.591 433.595 M275.920 436.817 C 274.783 440.957,274.722 441.042,274.392 438.932 C 274.137 437.298,273.925 438.160,273.564 442.296 C 273.297 445.354,273.238 448.015,273.431 448.209 C 273.625 448.403,273.783 447.862,273.783 447.008 C 273.783 446.155,274.779 442.986,275.996 439.968 C 277.504 436.230,278.033 434.165,277.656 433.491 C 277.248 432.763,276.792 433.636,275.920 436.817 M270.187 439.560 C 270.187 441.115,270.309 441.750,270.459 440.973 C 270.609 440.196,270.609 438.925,270.459 438.148 C 270.309 437.370,270.187 438.006,270.187 439.560 M269.559 445.840 C 269.559 447.394,269.681 448.030,269.831 447.253 C 269.981 446.476,269.981 445.204,269.831 444.427 C 269.681 443.650,269.559 444.286,269.559 445.840 M268.931 452.119 C 268.931 453.673,269.053 454.309,269.203 453.532 C 269.353 452.755,269.353 451.484,269.203 450.706 C 269.053 449.929,268.931 450.565,268.931 452.119 M268.303 458.399 C 268.303 459.953,268.425 460.589,268.575 459.812 C 268.725 459.035,268.725 457.763,268.575 456.986 C 268.425 456.209,268.303 456.845,268.303 458.399 " stroke="none" fill="#000000" fill-rule="evenodd"></path></g></svg>