<svg id="svg" xmlns="http://www.w3.org/2000/svg" xmlns:xlink="http://www.w3.org/1999/xlink" width="400" height="347.6923076923077" viewBox="0, 0, 400,347.6923076923077"><g id="svgg"><path id="path0" d="M170.000 24.454 C 174.683 25.170,175.480 25.669,173.336 26.543 C 168.950 28.331,158.693 27.993,161.538 26.154 C 163.137 25.121,163.243 24.655,161.885 24.639 C 157.547 24.587,156.625 34.084,155.778 87.524 L 154.915 141.972 145.916 145.854 C 140.966 147.990,137.162 149.982,137.461 150.282 C 137.761 150.581,142.916 148.736,148.918 146.182 C 160.984 141.048,163.689 140.707,168.996 143.650 C 173.244 146.006,119.431 170.234,113.870 168.469 C 106.703 166.194,107.425 163.543,116.179 159.990 C 120.880 158.082,124.430 156.224,124.067 155.862 C 123.705 155.500,118.899 157.248,113.388 159.747 C 106.460 162.888,102.874 163.798,101.770 162.693 C 100.665 161.588,100.408 162.232,100.936 164.778 C 101.466 167.330,100.704 166.659,98.456 162.595 L 95.211 156.728 92.109 160.672 C 90.403 162.841,88.236 164.615,87.293 164.615 C 86.350 164.615,87.561 162.546,89.985 160.016 C 95.892 153.850,93.505 151.939,87.454 157.990 L 82.699 162.745 86.728 171.545 L 90.757 180.346 97.831 172.479 L 104.904 164.612 109.390 167.262 C 115.635 170.951,114.290 172.776,103.725 174.956 L 94.615 176.835 102.692 176.057 C 107.135 175.629,110.707 175.822,110.631 176.485 C 110.554 177.149,107.266 187.385,103.323 199.231 L 96.154 220.769 90.769 221.721 L 85.385 222.672 91.282 222.874 C 98.352 223.117,98.220 223.614,88.815 232.207 C 80.485 239.816,80.670 239.835,78.728 231.195 C 77.339 225.009,77.430 224.763,81.336 224.161 L 85.385 223.538 81.261 223.307 L 77.138 223.077 83.954 202.756 C 91.464 180.364,91.282 181.040,89.518 182.130 C 88.830 182.556,82.664 170.070,75.816 154.385 L 63.365 125.866 69.375 119.856 C 72.680 116.551,75.385 114.406,75.385 115.091 C 75.385 115.775,76.438 117.679,77.725 119.321 C 79.482 121.562,79.392 120.828,77.365 116.381 C 74.996 111.181,74.473 110.792,73.101 113.213 C 65.152 127.248,63.436 125.713,59.862 101.374 L 56.857 80.906 60.629 77.133 L 64.402 73.361 66.029 78.603 L 67.657 83.846 66.768 77.692 C 65.775 70.822,63.801 67.692,60.463 67.692 C 57.247 67.692,49.220 76.175,49.291 79.497 C 49.329 81.287,50.122 80.535,51.473 77.429 C 53.619 72.497,59.404 68.120,61.286 70.006 C 61.848 70.570,60.270 72.785,57.780 74.928 L 53.252 78.825 56.398 101.335 C 59.418 122.939,60.047 125.050,72.012 153.719 C 78.868 170.149,84.167 184.096,83.787 184.712 C 83.406 185.328,84.094 186.215,85.315 186.683 C 87.130 187.380,86.427 190.833,81.460 205.619 C 78.118 215.565,75.385 225.093,75.385 226.793 C 75.385 229.311,73.890 228.468,67.326 222.250 C 62.894 218.051,61.153 216.720,63.458 219.291 C 65.762 221.863,67.891 226.194,68.189 228.916 C 68.487 231.638,70.971 236.652,73.708 240.058 C 85.958 255.301,75.972 247.660,62.017 231.113 C 42.316 207.751,41.367 206.249,41.045 197.933 C 40.899 194.151,40.357 191.318,39.842 191.636 C 39.327 191.954,39.253 190.402,39.676 188.186 C 40.170 185.602,39.866 184.516,38.828 185.158 C 37.802 185.792,37.528 184.944,38.078 182.838 C 38.610 180.804,38.343 179.892,37.388 180.482 C 36.422 181.079,36.122 179.912,36.599 177.417 C 37.126 174.663,36.817 173.730,35.625 174.467 C 34.495 175.165,34.212 174.684,34.820 173.099 C 36.581 168.510,30.869 156.691,27.148 157.222 C 22.097 157.942,22.317 163.253,28.411 187.840 C 35.409 216.077,34.345 213.918,51.936 235.577 C 67.931 255.273,68.073 255.356,78.955 251.481 C 79.953 251.126,82.500 253.655,84.615 257.101 L 88.462 263.367 88.940 256.063 C 89.447 248.330,86.458 243.761,84.256 248.902 C 83.302 251.132,83.177 251.064,83.448 248.462 C 83.625 246.769,83.146 244.388,82.383 243.170 C 81.097 241.117,93.908 227.692,97.154 227.692 C 98.395 227.692,132.880 267.739,132.070 268.240 C 131.778 268.421,128.307 271.141,124.356 274.284 C 113.829 282.662,112.770 282.053,109.106 265.518 C 107.997 260.515,106.844 257.161,106.542 258.065 C 104.395 264.507,111.351 279.409,121.655 290.443 C 132.288 301.829,133.944 304.961,130.465 307.111 C 129.307 307.827,125.126 304.430,119.219 297.978 L 109.817 287.706 106.255 270.171 C 102.142 249.923,102.145 249.932,95.392 246.467 C 90.022 243.712,88.999 241.104,92.962 240.278 C 96.378 239.566,105.660 249.352,105.102 253.077 C 104.711 255.689,104.816 255.750,105.796 253.479 C 106.790 251.176,107.546 251.551,111.233 256.171 C 115.767 261.854,120.000 263.225,120.000 259.012 C 120.000 254.642,106.100 239.655,102.838 240.508 C 101.259 240.921,97.953 240.499,95.492 239.569 C 92.052 238.271,90.453 238.347,88.585 239.898 C 84.849 242.998,85.590 244.382,92.886 247.926 L 99.617 251.196 103.418 269.060 C 107.711 289.233,107.744 288.152,102.874 286.921 C 95.557 285.070,91.768 280.698,90.678 272.846 L 89.642 265.385 89.467 272.308 C 89.038 289.269,121.159 317.159,130.934 308.312 C 133.682 305.826,134.767 305.812,148.088 308.100 C 165.233 311.045,181.752 309.044,168.846 305.585 C 162.254 303.818,159.396 304.342,161.538 306.923 C 164.528 310.526,161.694 309.635,156.643 305.385 C 151.730 301.251,146.343 300.426,143.410 303.359 C 140.576 306.193,139.532 303.763,141.803 299.618 L 143.846 295.886 163.077 299.424 C 189.878 304.354,189.218 304.119,191.046 309.363 C 191.936 311.915,192.949 313.718,193.298 313.369 C 193.647 313.020,193.238 310.908,192.389 308.675 C 191.171 305.472,191.305 304.615,193.024 304.615 C 196.313 304.615,197.119 306.978,195.385 311.537 L 193.825 315.640 189.102 311.666 C 184.311 307.635,177.887 306.427,176.154 309.231 C 175.631 310.077,172.994 310.851,170.294 310.951 L 165.385 311.133 170.000 312.308 C 172.538 312.954,176.346 313.495,178.462 313.511 L 182.308 313.539 178.462 312.308 L 174.615 311.076 178.462 311.031 C 180.577 311.006,183.692 311.580,185.385 312.308 L 188.462 313.630 185.385 313.903 C 183.692 314.053,185.206 314.826,188.748 315.621 C 193.649 316.720,195.305 317.873,195.672 320.440 C 195.937 322.296,197.447 324.061,199.028 324.363 C 200.776 324.696,201.504 324.265,200.884 323.262 C 199.342 320.768,206.512 309.256,209.615 309.243 C 213.216 309.227,213.066 309.965,207.707 318.676 L 203.105 326.154 208.860 326.120 C 218.102 326.066,227.063 321.223,228.171 315.684 C 228.884 312.117,230.373 310.555,234.471 309.074 C 237.422 308.007,239.491 306.575,239.069 305.892 C 238.647 305.209,239.490 305.107,240.942 305.664 C 242.875 306.405,243.244 306.131,242.322 304.639 C 241.471 303.262,241.656 302.968,242.894 303.733 C 245.295 305.217,261.685 298.405,260.465 296.430 C 259.948 295.594,260.261 295.365,261.162 295.921 C 262.062 296.478,266.150 295.489,270.246 293.725 C 277.360 290.661,277.910 290.634,282.567 293.126 C 288.581 296.344,288.291 296.522,310.271 276.083 C 326.829 260.685,329.750 256.751,331.349 247.692 C 332.025 243.860,331.468 244.660,329.416 250.469 C 326.735 258.057,320.996 266.154,318.298 266.154 C 317.657 266.154,319.849 258.071,323.168 248.191 C 328.917 231.078,334.144 222.129,337.265 224.057 C 338.059 224.548,338.473 223.011,338.195 220.609 C 337.856 217.687,336.609 216.005,334.367 215.445 C 331.299 214.680,331.923 213.424,342.428 199.231 C 348.691 190.769,353.767 182.808,353.709 181.538 C 353.615 179.487,353.508 179.487,352.745 181.538 C 349.689 189.757,319.493 227.692,316.008 227.692 C 312.615 227.692,314.068 225.254,330.449 203.462 L 348.662 179.231 355.237 158.231 C 360.492 141.446,361.475 136.603,360.137 134.101 C 357.784 129.706,358.054 126.154,360.740 126.154 C 362.909 126.154,363.762 128.247,365.129 136.923 C 365.568 139.712,365.792 139.265,365.944 135.294 C 366.194 128.774,363.197 124.067,359.283 124.833 C 356.620 125.353,348.125 144.023,349.792 145.690 C 350.161 146.058,351.315 143.717,352.356 140.488 C 358.809 120.479,359.315 134.947,352.907 156.215 C 347.899 172.833,344.615 179.714,344.615 173.590 C 344.615 172.603,344.171 172.240,343.627 172.783 C 343.083 173.327,343.420 174.714,344.376 175.866 C 345.986 177.805,313.128 224.258,308.988 225.897 C 305.976 227.090,308.085 222.145,313.305 215.775 C 316.646 211.698,318.275 208.520,317.329 207.924 C 316.455 207.374,315.395 205.538,314.972 203.846 C 314.516 202.022,314.130 203.082,314.025 206.448 C 313.805 213.439,311.469 215.306,310.044 209.628 C 309.198 206.256,309.787 204.747,313.046 201.944 C 315.394 199.924,316.632 197.697,315.987 196.654 C 315.252 195.464,313.138 196.904,309.767 200.887 C 306.749 204.455,304.652 205.959,304.638 204.567 C 304.626 203.271,298.140 194.415,290.225 184.886 L 275.835 167.563 278.605 161.858 C 280.129 158.721,281.762 154.077,282.235 151.538 C 282.708 149.000,281.634 150.947,279.849 155.865 C 273.502 173.347,275.574 163.196,284.677 132.208 C 289.757 114.917,294.401 96.615,294.998 91.538 L 296.083 82.308 297.171 88.462 C 297.901 92.588,298.078 90.814,297.708 83.077 C 297.305 74.649,297.523 72.783,298.517 76.154 C 299.537 79.613,299.724 78.264,299.263 70.769 C 298.843 63.937,299.065 61.988,299.966 64.615 C 300.974 67.555,301.258 66.354,301.171 59.524 C 301.059 50.670,300.999 50.557,294.846 47.417 L 288.633 44.248 285.855 47.679 C 284.327 49.566,283.171 52.591,283.286 54.401 C 283.483 57.489,283.538 57.473,284.174 54.142 C 284.547 52.189,285.318 50.850,285.888 51.165 C 286.457 51.481,289.173 52.627,291.923 53.712 C 297.743 56.009,297.674 55.129,294.068 80.769 L 291.472 99.231 286.238 98.975 C 282.606 98.797,281.675 99.143,283.194 100.105 C 284.399 100.868,286.643 101.502,288.181 101.515 C 290.131 101.531,290.725 102.353,290.144 104.231 C 289.686 105.712,285.752 118.692,281.402 133.077 C 277.051 147.462,272.935 160.291,272.256 161.588 C 271.358 163.299,275.217 168.989,286.339 182.357 L 301.658 200.769 295.829 201.705 L 290.000 202.640 296.359 202.859 C 300.891 203.014,302.995 203.850,303.681 205.769 C 306.683 214.163,307.292 216.923,306.144 216.923 C 303.069 216.923,287.797 206.749,288.396 205.099 C 288.760 204.096,288.437 203.058,287.679 202.792 C 286.920 202.525,278.715 193.308,269.444 182.308 L 252.588 162.308 260.952 161.845 C 265.552 161.591,268.976 160.833,268.561 160.161 C 268.146 159.489,269.158 155.381,270.811 151.032 L 273.816 143.124 267.624 139.965 C 260.325 136.242,259.290 136.652,256.812 144.252 C 255.782 147.413,254.242 150.452,253.390 151.004 C 252.539 151.556,254.889 153.633,258.613 155.619 L 265.385 159.231 257.862 159.708 C 248.795 160.284,246.454 158.557,248.932 153.119 C 250.382 149.935,250.300 149.231,248.477 149.231 C 247.252 149.231,246.568 150.096,246.955 151.154 C 249.144 157.127,245.644 157.151,214.484 151.377 C 181.916 145.343,179.461 144.495,183.333 140.623 C 185.550 138.406,187.846 138.611,209.304 142.942 C 222.250 145.555,233.934 147.623,235.267 147.538 C 236.601 147.453,226.772 145.128,213.424 142.372 C 200.076 139.616,188.692 136.897,188.125 136.330 C 186.769 134.974,180.796 81.160,178.557 50.131 C 176.516 21.835,176.912 23.011,169.525 23.295 L 163.846 23.514 170.000 24.454 M176.120 53.662 C 177.365 76.869,177.368 76.860,166.538 76.900 L 160.000 76.923 160.000 67.929 C 160.000 62.982,160.447 52.633,160.994 44.931 L 161.988 30.928 167.532 30.464 C 174.845 29.852,174.843 29.846,176.120 53.662 M295.174 49.319 C 298.019 51.054,300.008 52.812,299.595 53.226 C 298.555 54.266,287.692 48.956,287.692 47.407 C 287.692 45.434,289.599 45.921,295.174 49.319 M177.624 83.462 C 178.114 87.058,179.567 99.000,180.853 110.000 C 182.139 121.000,183.556 131.203,184.002 132.674 C 186.412 140.637,177.022 146.762,169.231 142.308 C 165.410 140.124,165.425 140.109,171.538 140.031 C 180.729 139.914,181.521 138.907,180.466 128.682 C 179.627 120.554,179.257 119.837,176.311 120.628 C 174.532 121.106,170.827 121.506,168.077 121.517 L 163.077 121.538 163.077 130.769 C 163.077 135.897,162.393 140.000,161.538 140.000 C 160.564 140.000,160.000 128.746,160.000 109.315 L 160.000 78.630 167.308 78.054 C 171.327 77.737,175.092 77.353,175.675 77.200 C 176.258 77.048,177.135 79.865,177.624 83.462 M51.157 88.462 C 51.174 91.846,51.489 93.050,51.857 91.136 C 52.225 89.222,52.211 86.453,51.826 84.982 C 51.441 83.511,51.140 85.077,51.157 88.462 M271.926 95.715 C 270.447 99.204,269.489 102.309,269.796 102.617 C 270.104 102.924,271.234 101.054,272.308 98.460 C 274.218 93.851,274.334 93.806,277.515 96.488 C 280.702 99.175,280.718 99.168,278.278 96.154 C 276.907 94.462,275.523 92.244,275.201 91.225 C 274.879 90.206,273.405 92.227,271.926 95.715 M69.537 93.077 C 69.537 94.769,70.092 97.885,70.769 100.000 C 71.745 103.046,72.001 103.206,72.001 100.769 C 72.001 99.077,71.447 95.962,70.769 93.846 C 69.794 90.801,69.537 90.641,69.537 93.077 M52.696 100.769 C 52.713 104.154,53.028 105.357,53.396 103.444 C 53.764 101.530,53.750 98.761,53.365 97.290 C 52.980 95.819,52.679 97.385,52.696 100.769 M295.610 99.231 C 295.463 101.769,294.986 105.577,294.551 107.692 L 293.759 111.538 295.414 107.746 C 296.324 105.660,296.801 101.853,296.473 99.285 L 295.877 94.615 295.610 99.231 M54.234 113.077 C 54.251 116.462,54.566 117.665,54.934 115.751 C 55.302 113.838,55.288 111.068,54.903 109.597 C 54.518 108.127,54.217 109.692,54.234 113.077 M261.744 120.205 C 259.922 124.589,258.685 128.429,258.996 128.739 C 259.306 129.049,261.050 125.717,262.872 121.333 C 264.693 116.950,265.930 113.110,265.620 112.799 C 265.310 112.489,263.565 115.822,261.744 120.205 M290.154 120.923 C 288.667 125.641,287.727 129.778,288.065 130.117 C 288.404 130.455,289.897 126.872,291.385 122.154 C 292.872 117.436,293.812 113.299,293.473 112.960 C 293.135 112.622,291.641 116.205,290.154 120.923 M55.615 123.432 C 55.400 127.361,67.473 159.194,68.710 157.957 C 69.021 157.645,66.557 150.857,63.234 142.871 C 59.910 134.886,56.888 126.300,56.518 123.792 C 55.846 119.234,55.845 119.234,55.615 123.432 M178.462 130.029 C 178.462 136.687,178.297 136.941,174.595 136.011 C 172.469 135.478,169.789 135.822,168.639 136.776 C 166.972 138.159,166.353 137.532,165.582 133.679 C 163.991 125.727,164.309 125.125,170.218 124.903 C 173.299 124.787,176.184 124.329,176.628 123.885 C 178.207 122.306,178.462 123.159,178.462 130.029 M254.051 138.667 C 252.230 143.050,250.993 146.890,251.303 147.201 C 251.613 147.511,253.358 144.178,255.179 139.795 C 257.001 135.411,258.238 131.571,257.928 131.261 C 257.617 130.951,255.873 134.283,254.051 138.667 M90.769 144.615 C 94.173 151.385,97.304 156.923,97.727 156.923 C 98.150 156.923,95.711 151.385,92.308 144.615 C 88.904 137.846,85.773 132.308,85.350 132.308 C 84.927 132.308,87.366 137.846,90.769 144.615 M284.755 138.601 C 283.715 142.074,283.147 145.198,283.493 145.544 C 283.839 145.890,284.974 143.333,286.014 139.860 C 287.054 136.388,287.622 133.263,287.276 132.917 C 286.930 132.571,285.796 135.129,284.755 138.601 M266.501 143.071 C 269.272 144.760,270.706 146.145,269.688 146.148 C 266.824 146.157,260.000 142.736,260.000 141.292 C 260.000 139.410,260.901 139.657,266.501 143.071 M360.147 153.993 C 358.266 160.855,357.007 166.751,357.350 167.093 C 357.692 167.436,359.511 162.101,361.392 155.238 C 363.273 148.375,364.531 142.480,364.189 142.138 C 363.846 141.795,362.027 147.130,360.147 153.993 M265.101 146.362 C 266.949 147.323,268.654 148.265,268.889 148.457 C 269.124 148.648,268.556 150.804,267.627 153.248 C 266.137 157.168,265.760 157.375,264.431 155.000 C 263.602 153.519,261.243 152.308,259.187 152.308 C 255.760 152.308,255.596 151.989,257.203 148.462 C 259.168 144.148,260.275 143.854,265.101 146.362 M213.077 153.109 C 250.099 159.815,245.705 157.369,267.897 183.633 C 287.314 206.614,286.553 202.881,277.555 231.007 C 269.170 257.214,270.975 255.030,250.482 263.763 C 231.854 271.702,230.769 271.922,230.769 267.762 C 230.769 257.664,212.188 263.530,210.230 274.246 C 209.137 280.230,208.313 281.538,205.638 281.538 C 201.038 281.538,137.813 269.214,135.971 267.958 C 132.454 265.560,98.462 224.621,98.462 222.783 C 98.462 218.930,114.039 174.064,115.859 172.676 C 120.775 168.927,176.834 146.010,179.231 146.770 C 180.077 147.038,195.308 149.891,213.077 153.109 M345.552 154.824 C 344.184 158.838,341.510 163.839,339.609 165.938 L 336.154 169.753 340.211 166.800 C 342.622 165.044,345.256 160.760,346.704 156.237 C 349.842 146.439,348.831 145.200,345.552 154.824 M129.231 153.077 C 127.115 154.286,126.077 155.276,126.923 155.276 C 127.769 155.276,130.192 154.286,132.308 153.077 C 134.423 151.868,135.462 150.878,134.615 150.878 C 133.769 150.878,131.346 151.868,129.231 153.077 M29.835 160.895 C 30.349 162.233,30.769 165.522,30.768 168.203 C 30.767 170.884,32.955 181.038,35.630 190.769 L 40.494 208.462 57.170 228.833 C 75.595 251.342,75.252 250.773,70.385 250.760 C 67.387 250.753,45.665 226.183,39.486 215.810 C 38.353 213.909,27.566 173.879,25.172 162.692 C 24.161 157.973,28.127 156.444,29.835 160.895 M69.773 161.538 C 71.575 167.911,78.934 184.615,79.939 184.615 C 80.572 184.615,79.592 181.327,77.761 177.308 C 72.655 166.098,69.049 158.979,69.773 161.538 M95.934 167.442 C 94.618 167.737,93.993 168.933,94.485 170.214 C 94.969 171.477,94.681 172.054,93.829 171.528 C 92.992 171.011,92.283 171.494,92.253 172.602 C 92.223 173.709,91.235 172.885,90.057 170.769 C 88.129 167.306,88.242 166.574,91.189 163.419 L 94.462 159.915 96.355 163.419 C 97.929 166.334,97.858 167.010,95.934 167.442 M354.725 173.187 C 354.159 175.441,353.993 177.583,354.356 177.945 C 354.718 178.308,355.478 176.760,356.044 174.505 C 356.610 172.251,356.776 170.109,356.413 169.747 C 356.051 169.384,355.291 170.932,354.725 173.187 M176.968 201.478 C 175.723 202.266,175.031 203.143,175.429 203.427 C 176.807 204.411,191.561 212.448,197.945 215.691 C 203.627 218.578,212.795 216.518,209.029 213.199 C 206.152 210.664,198.466 207.978,197.689 209.236 C 197.168 210.079,196.005 210.769,195.105 210.769 C 193.979 210.769,193.998 210.133,195.164 208.727 C 198.634 204.546,182.364 198.065,176.968 201.478 M297.522 214.030 C 301.847 216.670,305.595 219.015,305.852 219.241 C 306.109 219.467,303.841 226.773,300.812 235.475 C 297.783 244.178,295.511 251.917,295.763 252.674 C 296.016 253.432,298.125 248.207,300.451 241.064 L 304.681 228.078 311.559 228.853 C 315.876 229.340,319.300 228.911,320.757 227.703 C 323.866 225.122,323.857 225.160,317.692 240.448 C 311.803 255.054,311.712 255.385,313.612 255.385 C 314.329 255.385,317.855 247.455,321.447 237.763 C 328.314 219.231,330.546 215.911,334.980 217.630 C 337.339 218.544,337.023 219.281,332.549 223.293 C 328.362 227.047,326.153 231.641,320.666 247.999 C 314.105 267.561,313.690 268.307,305.040 276.099 C 285.240 293.937,285.553 293.721,282.612 291.571 C 280.174 289.788,281.583 288.110,296.876 274.588 C 306.210 266.335,313.846 258.852,313.846 257.959 C 313.846 257.066,312.981 257.427,311.923 258.762 C 310.865 260.098,304.808 265.537,298.462 270.849 C 292.115 276.162,285.511 281.762,283.786 283.294 C 280.736 286.003,280.642 285.986,280.393 282.675 C 280.252 280.802,280.625 279.955,281.222 280.793 C 281.833 281.650,285.673 278.627,290.000 273.882 C 294.231 269.243,296.361 266.471,294.733 267.723 C 291.962 269.855,291.841 269.756,292.822 266.154 C 295.139 257.652,295.551 254.240,293.693 258.948 C 292.603 261.711,291.206 262.966,289.838 262.410 C 284.983 260.438,282.540 260.027,285.769 261.726 C 287.673 262.728,289.231 263.998,289.231 264.549 C 289.231 266.011,278.617 276.063,277.900 275.279 C 275.564 272.724,269.297 258.061,270.032 256.871 C 270.577 255.990,272.824 256.368,275.615 257.811 C 278.184 259.140,280.590 259.923,280.962 259.551 C 281.333 259.180,279.538 258.006,276.972 256.944 C 271.235 254.567,270.963 257.257,279.576 231.210 C 287.706 206.624,286.804 207.487,297.522 214.030 M333.974 233.205 C 332.981 237.148,332.458 240.663,332.810 241.015 C 333.163 241.368,334.264 238.430,335.256 234.487 C 336.249 230.544,336.773 227.030,336.421 226.677 C 336.068 226.324,334.967 229.262,333.974 233.205 M110.088 248.788 C 109.636 249.966,109.850 250.568,110.563 250.127 C 111.277 249.686,113.398 250.962,115.277 252.962 C 117.617 255.453,118.140 256.940,116.936 257.684 C 115.970 258.281,115.026 258.527,114.837 258.231 C 114.648 257.935,112.256 255.055,109.521 251.831 C 106.786 248.607,104.971 245.285,105.488 244.449 C 106.871 242.211,111.086 246.187,110.088 248.788 M272.386 267.848 C 274.992 273.011,276.906 277.391,276.639 277.582 C 276.207 277.892,237.506 294.529,232.692 296.475 C 231.256 297.055,230.769 294.348,230.769 285.785 L 230.769 274.319 248.846 266.502 C 258.788 262.204,267.086 258.636,267.286 258.574 C 267.485 258.512,269.780 262.685,272.386 267.848 M228.346 267.505 C 229.232 268.939,222.184 270.769,215.773 270.769 C 212.532 270.769,212.231 270.408,213.846 268.462 C 215.911 265.974,226.949 265.246,228.346 267.505 M136.875 272.692 C 137.757 274.885,138.302 275.267,138.364 273.732 C 138.504 270.246,203.077 282.470,203.077 285.983 C 203.077 287.728,203.658 287.563,205.492 285.294 C 208.582 281.474,207.477 294.847,204.279 299.966 C 201.894 303.787,199.501 304.058,200.592 300.385 C 202.678 293.363,202.726 289.344,200.647 295.769 C 199.347 299.788,197.721 303.077,197.035 303.077 C 196.349 303.077,182.749 300.654,166.814 297.692 C 150.879 294.731,137.288 292.308,136.613 292.308 C 135.937 292.308,135.304 290.750,135.206 288.846 C 135.072 286.241,134.854 286.051,134.324 288.077 C 133.449 291.426,134.271 291.574,124.705 286.343 L 116.611 281.917 124.844 275.599 C 134.431 268.242,135.028 268.097,136.875 272.692 M228.618 288.788 C 227.367 308.148,228.545 306.129,217.854 307.233 C 207.739 308.277,207.839 308.541,211.534 290.485 C 215.587 270.678,214.598 272.308,222.564 272.308 L 229.684 272.308 228.618 288.788 M278.961 282.158 C 280.559 286.323,275.958 290.517,273.471 287.162 C 271.492 284.493,271.017 284.470,265.496 286.778 C 256.004 290.744,256.914 289.364,266.923 284.615 C 277.896 279.409,277.905 279.407,278.961 282.158 M110.487 297.324 C 118.493 306.221,120.757 309.895,115.807 305.958 C 113.132 303.829,107.902 298.003,102.404 291.026 C 96.929 284.077,102.412 288.350,110.487 297.324 M124.327 308.494 C 123.824 308.997,120.474 306.273,116.882 302.441 C 106.028 290.860,105.063 287.806,115.487 298.021 C 120.852 303.278,124.830 307.991,124.327 308.494 M256.077 290.538 C 255.273 291.257,251.846 292.932,248.462 294.259 C 245.077 295.587,239.538 297.841,236.154 299.268 C 225.662 303.690,231.708 299.738,243.477 294.480 C 254.920 289.368,258.711 288.182,256.077 290.538 M131.802 294.485 C 131.342 295.683,132.820 296.066,136.329 295.656 C 141.825 295.015,142.092 295.229,140.605 299.105 C 139.486 302.021,137.402 302.279,136.491 299.615 C 136.129 298.558,136.092 299.250,136.407 301.154 C 137.198 305.922,136.439 305.532,131.748 298.763 C 127.087 292.037,126.719 290.492,130.088 291.785 C 131.406 292.291,132.177 293.506,131.802 294.485 M206.699 302.655 C 204.800 310.218,196.923 321.412,196.923 316.546 C 196.923 314.315,197.663 312.032,198.566 311.474 C 199.470 310.915,199.824 309.454,199.353 308.226 C 198.882 306.998,199.152 306.399,199.952 306.893 C 200.753 307.388,202.493 305.693,203.820 303.127 C 206.817 297.332,208.087 297.123,206.699 302.655 M153.846 306.154 L 157.692 307.386 153.846 307.386 C 151.731 307.386,148.269 306.831,146.154 306.154 L 142.308 304.922 146.154 304.922 C 148.269 304.922,151.731 305.476,153.846 306.154 M226.668 312.692 C 225.204 320.423,220.031 325.181,219.977 318.846 C 219.961 316.878,219.434 317.189,218.019 320.000 C 216.646 322.728,214.596 323.990,210.969 324.339 L 205.854 324.833 210.235 317.033 C 215.032 308.492,221.922 305.609,220.608 312.692 C 220.135 315.241,220.410 315.039,221.650 311.923 C 224.113 305.734,227.877 306.311,226.668 312.692 " stroke="none" fill="#000000" fill-rule="evenodd"></path></g></svg>